<ttFont>
    <TTGlyph name=".notdef" xMin="60" yMin="0" xMax="1084" yMax="1280">
      <contour>
        <pt x="60" y="0" on="1"/>
        <pt x="60" y="1280" on="1"/>
        <pt x="1084" y="1280" on="1"/>
        <pt x="1084" y="0" on="1"/>
      </contour>
      <contour>
        <pt x="92" y="32" on="1"/>
        <pt x="1052" y="32" on="1"/>
        <pt x="1052" y="1248" on="1"/>
        <pt x="92" y="1248" on="1"/>
      </contour>
    </TTGlyph>
    <TTGlyph name="A" xMin="35" yMin="0" xMax="1457" yMax="1430">
      <contour>
        <pt x="147" y="0" on="1"/>
        <pt x="35" y="0" on="1"/>
        <pt x="682" y="1430" on="1"/>
        <pt x="807" y="1430" on="1"/>
        <pt x="1457" y="0" on="1"/>
        <pt x="1332" y="0" on="1"/>
        <pt x="1120" y="480" on="1"/>
        <pt x="479" y="480" on="1"/>
        <pt x="510" y="570" on="1"/>
        <pt x="1081" y="570" on="1"/>
        <pt x="738" y="1348" on="1"/>
      </contour>
    </TTGlyph>
    <TTGlyph name="AE" xMin="35" yMin="0" xMax="1760" yMax="1430">
      <contour>
        <pt x="35" y="0" on="1"/>
        <pt x="642" y="1430" on="1"/>
        <pt x="1740" y="1430" on="1"/>
        <pt x="1740" y="1340" on="1"/>
        <pt x="822" y="1340" on="1"/>
        <pt x="1062" y="770" on="1"/>
        <pt x="1705" y="770" on="1"/>
        <pt x="1705" y="680" on="1"/>
        <pt x="1101" y="680" on="1"/>
        <pt x="1357" y="90" on="1"/>
        <pt x="1760" y="90" on="1"/>
        <pt x="1760" y="0" on="1"/>
        <pt x="1262" y="0" on="1"/>
        <pt x="705" y="1353" on="1"/>
        <pt x="402" y="570" on="1"/>
        <pt x="903" y="570" on="1"/>
        <pt x="931" y="480" on="1"/>
        <pt x="351" y="480" on="1"/>
        <pt x="157" y="0" on="1"/>
      </contour>
    </TTGlyph>
    <TTGlyph name="Aacute" xMin="35" yMin="0" xMax="1457" yMax="1810">
      <component glyphName="A" x="0" y="0" flags="0x200"/>
      <component glyphName="acute" x="538" y="380" flags="0x0"/>
    </TTGlyph>
    <TTGlyph name="Abreve" xMin="35" yMin="0" xMax="1457" yMax="1810">
      <component glyphName="A" x="0" y="0" flags="0x200"/>
      <component glyphName="breve" x="391" y="380" flags="0x0"/>
    </TTGlyph>
    <TTGlyph name="Acircumflex" xMin="35" yMin="0" xMax="1457" yMax="1810">
      <component glyphName="A" x="0" y="0" flags="0x200"/>
      <component glyphName="circumflex" x="396" y="380" flags="0x0"/>
    </TTGlyph>
    <TTGlyph name="Adieresis" xMin="35" yMin="0" xMax="1457" yMax="1790">
      <component glyphName="A" x="0" y="0" flags="0x200"/>
      <component glyphName="dieresis" x="429" y="380" flags="0x0"/>
    </TTGlyph>
    <TTGlyph name="Agrave" xMin="35" yMin="0" xMax="1457" yMax="1810">
      <component glyphName="A" x="0" y="0" flags="0x200"/>
      <component glyphName="grave" x="431" y="380" flags="0x0"/>
    </TTGlyph>
    <TTGlyph name="Alpha" xMin="35" yMin="0" xMax="1457" yMax="1430">
      <component glyphName="A" x="0" y="0" flags="0x200"/>
    </TTGlyph>
    <TTGlyph name="Alphatonos" xMin="35" yMin="0" xMax="1457" yMax="1430">
      <component glyphName="tonos" x="0" y="0" flags="0x0"/>
      <component glyphName="Alpha" x="0" y="0" flags="0x200"/>
    </TTGlyph>
    <TTGlyph name="Amacron" xMin="35" yMin="0" xMax="1457" yMax="1810">
      <component glyphName="A" x="0" y="0" flags="0x200"/>
      <component glyphName="macron" x="396" y="380" flags="0x0"/>
    </TTGlyph>
    <TTGlyph name="Aogonek" xMin="35" yMin="-426" xMax="1477" yMax="1430">
      <contour>
        <pt x="147" y="0" on="1"/>
        <pt x="35" y="0" on="1"/>
        <pt x="682" y="1430" on="1"/>
        <pt x="807" y="1430" on="1"/>
        <pt x="1457" y="0" on="1"/>
        <pt x="1215" y="-126" on="0"/>
        <pt x="1215" y="-228" on="1"/>
        <pt x="1215" y="-346" on="0"/>
        <pt x="1340" y="-346" on="1"/>
        <pt x="1425" y="-346" on="0"/>
        <pt x="1477" y="-326" on="1"/>
        <pt x="1477" y="-406" on="1"/>
        <pt x="1416" y="-426" on="0"/>
        <pt x="1328" y="-426" on="1"/>
        <pt x="1117" y="-426" on="0"/>
        <pt x="1117" y="-253" on="1"/>
        <pt x="1117" y="-102" on="0"/>
        <pt x="1332" y="0" on="1"/>
        <pt x="1120" y="480" on="1"/>
        <pt x="479" y="480" on="1"/>
        <pt x="510" y="570" on="1"/>
        <pt x="1081" y="570" on="1"/>
        <pt x="738" y="1348" on="1"/>
      </contour>
    </TTGlyph>
    <TTGlyph name="Aring" xMin="35" yMin="0" xMax="1457" yMax="1817">
      <contour>
        <pt x="748" y="1482" on="1"/>
        <pt x="882" y="1482" on="0"/>
        <pt x="882" y="1619" on="1"/>
        <pt x="882" y="1753" on="0"/>
        <pt x="748" y="1753" on="1"/>
        <pt x="610" y="1753" on="0"/>
        <pt x="610" y="1619" on="1"/>
        <pt x="610" y="1482" on="0"/>
      </contour>
      <contour>
        <pt x="147" y="0" on="1"/>
        <pt x="35" y="0" on="1"/>
        <pt x="679" y="1424" on="1"/>
        <pt x="530" y="1452" on="0"/>
        <pt x="530" y="1617" on="1"/>
        <pt x="530" y="1817" on="0"/>
        <pt x="748" y="1817" on="1"/>
        <pt x="962" y="1817" on="0"/>
        <pt x="962" y="1617" on="1"/>
        <pt x="962" y="1449" on="0"/>
        <pt x="810" y="1423" on="1"/>
        <pt x="1457" y="0" on="1"/>
        <pt x="1332" y="0" on="1"/>
        <pt x="1120" y="480" on="1"/>
        <pt x="479" y="480" on="1"/>
        <pt x="510" y="570" on="1"/>
        <pt x="1081" y="570" on="1"/>
        <pt x="738" y="1348" on="1"/>
      </contour>
    </TTGlyph>
    <TTGlyph name="Atilde" xMin="35" yMin="0" xMax="1457" yMax="1810">
      <component glyphName="A" x="0" y="0" flags="0x200"/>
      <component glyphName="tilde" x="396" y="380" flags="0x0"/>
    </TTGlyph>
    <TTGlyph name="B" xMin="160" yMin="0" xMax="1196" yMax="1430">
      <contour>
        <pt x="160" y="0" on="1"/>
        <pt x="160" y="1430" on="1"/>
        <pt x="770" y="1430" on="1"/>
        <pt x="1178" y="1430" on="0"/>
        <pt x="1178" y="1097" on="1"/>
        <pt x="1178" y="853" on="0"/>
        <pt x="882" y="748" on="1"/>
        <pt x="1196" y="695" on="0"/>
        <pt x="1196" y="413" on="1"/>
        <pt x="1196" y="0" on="0"/>
        <pt x="749" y="0" on="1"/>
      </contour>
      <contour>
        <pt x="738" y="90" on="1"/>
        <pt x="1084" y="90" on="0"/>
        <pt x="1084" y="410" on="1"/>
        <pt x="1084" y="693" on="0"/>
        <pt x="651" y="693" on="1"/>
        <pt x="571" y="693" on="1"/>
        <pt x="571" y="764" on="1"/>
        <pt x="1071" y="809" on="0"/>
        <pt x="1071" y="1090" on="1"/>
        <pt x="1071" y="1340" on="0"/>
        <pt x="763" y="1340" on="1"/>
        <pt x="265" y="1340" on="1"/>
        <pt x="265" y="90" on="1"/>
      </contour>
    </TTGlyph>
    <TTGlyph name="Beta" xMin="160" yMin="0" xMax="1196" yMax="1430">
      <component glyphName="B" x="0" y="0" flags="0x200"/>
    </TTGlyph>
    <TTGlyph name="C" xMin="110" yMin="-10" xMax="1260" yMax="1440">
      <contour>
        <pt x="1260" y="50" on="1"/>
        <pt x="1065" y="-10" on="0"/>
        <pt x="860" y="-10" on="1"/>
        <pt x="110" y="-10" on="0"/>
        <pt x="110" y="735" on="1"/>
        <pt x="110" y="1440" on="0"/>
        <pt x="860" y="1440" on="1"/>
        <pt x="1065" y="1440" on="0"/>
        <pt x="1260" y="1380" on="1"/>
        <pt x="1260" y="1290" on="1"/>
        <pt x="1065" y="1350" on="0"/>
        <pt x="880" y="1350" on="1"/>
        <pt x="215" y="1350" on="0"/>
        <pt x="215" y="735" on="1"/>
        <pt x="215" y="80" on="0"/>
        <pt x="880" y="80" on="1"/>
        <pt x="1065" y="80" on="0"/>
        <pt x="1260" y="140" on="1"/>
      </contour>
    </TTGlyph>
    <TTGlyph name="Cacute" xMin="110" yMin="-10" xMax="1260" yMax="1810">
      <component glyphName="C" x="0" y="0" flags="0x200"/>
      <component glyphName="acute" x="477" y="380" flags="0x0"/>
    </TTGlyph>
    <TTGlyph name="Ccaron" xMin="110" yMin="-10" xMax="1260" yMax="1810">
      <component glyphName="C" x="0" y="0" flags="0x200"/>
      <component glyphName="caron" x="446" y="380" flags="0x0"/>
    </TTGlyph>
    <TTGlyph name="Ccedilla" xMin="110" yMin="-422" xMax="1260" yMax="1440">
      <contour>
        <pt x="773" y="-7" on="1"/>
        <pt x="110" y="34" on="0"/>
        <pt x="110" y="735" on="1"/>
        <pt x="110" y="1440" on="0"/>
        <pt x="860" y="1440" on="1"/>
        <pt x="1065" y="1440" on="0"/>
        <pt x="1260" y="1380" on="1"/>
        <pt x="1260" y="1290" on="1"/>
        <pt x="1065" y="1350" on="0"/>
        <pt x="880" y="1350" on="1"/>
        <pt x="215" y="1350" on="0"/>
        <pt x="215" y="735" on="1"/>
        <pt x="215" y="80" on="0"/>
        <pt x="880" y="80" on="1"/>
        <pt x="1065" y="80" on="0"/>
        <pt x="1260" y="140" on="1"/>
        <pt x="1260" y="50" on="1"/>
        <pt x="1070" y="-9" on="0"/>
        <pt x="870" y="-10" on="1"/>
        <pt x="834" y="-77" on="1"/>
        <pt x="1058" y="-77" on="0"/>
        <pt x="1058" y="-249" on="1"/>
        <pt x="1058" y="-422" on="0"/>
        <pt x="817" y="-422" on="1"/>
        <pt x="709" y="-422" on="0"/>
        <pt x="601" y="-372" on="1"/>
        <pt x="601" y="-284" on="1"/>
        <pt x="709" y="-344" on="0"/>
        <pt x="817" y="-344" on="1"/>
        <pt x="965" y="-344" on="0"/>
        <pt x="965" y="-249" on="1"/>
        <pt x="965" y="-155" on="0"/>
        <pt x="842" y="-155" on="1"/>
        <pt x="689" y="-155" on="1"/>
      </contour>
    </TTGlyph>
    <TTGlyph name="Ccircumflex" xMin="110" yMin="-10" xMax="1260" yMax="1810">
      <component glyphName="C" x="0" y="0" flags="0x200"/>
      <component glyphName="circumflex" x="495" y="380" flags="0x0"/>
    </TTGlyph>
    <TTGlyph name="Cdotaccent" xMin="110" yMin="-10" xMax="1260" yMax="1810">
      <component glyphName="C" x="0" y="0" flags="0x200"/>
      <component glyphName="dotaccent" x="683" y="380" flags="0x0"/>
    </TTGlyph>
    <TTGlyph name="Chi" xMin="35" yMin="0" xMax="1285" yMax="1430">
      <component glyphName="X" x="0" y="0" flags="0x200"/>
    </TTGlyph>
    <TTGlyph name="D" xMin="160" yMin="0" xMax="1370" yMax="1430">
      <contour>
        <pt x="660" y="90" on="1"/>
        <pt x="1255" y="90" on="0"/>
        <pt x="1255" y="754" on="1"/>
        <pt x="1255" y="1340" on="0"/>
        <pt x="660" y="1340" on="1"/>
        <pt x="265" y="1340" on="1"/>
        <pt x="265" y="90" on="1"/>
      </contour>
      <contour>
        <pt x="160" y="0" on="1"/>
        <pt x="160" y="1430" on="1"/>
        <pt x="670" y="1430" on="1"/>
        <pt x="1370" y="1430" on="0"/>
        <pt x="1370" y="754" on="1"/>
        <pt x="1370" y="0" on="0"/>
        <pt x="660" y="0" on="1"/>
      </contour>
    </TTGlyph>
    <TTGlyph name="Dcaron" xMin="160" yMin="0" xMax="1370" yMax="1810">
      <component glyphName="D" x="0" y="0" flags="0x200"/>
      <component glyphName="caron" x="293" y="380" flags="0x0"/>
    </TTGlyph>
    <TTGlyph name="Dcroat" xMin="-40" yMin="0" xMax="1370" yMax="1430">
      <component glyphName="Eth" x="0" y="0" flags="0x200"/>
    </TTGlyph>
    <TTGlyph name="Delta" xMin="35" yMin="0" xMax="1457" yMax="1430">
      <contour>
        <pt x="35" y="0" on="1"/>
        <pt x="682" y="1430" on="1"/>
        <pt x="808" y="1430" on="1"/>
        <pt x="1457" y="0" on="1"/>
      </contour>
      <contour>
        <pt x="1291" y="90" on="1"/>
        <pt x="738" y="1348" on="1"/>
        <pt x="189" y="90" on="1"/>
      </contour>
    </TTGlyph>
    <TTGlyph name="E" xMin="160" yMin="0" xMax="1113" yMax="1430">
      <contour>
        <pt x="1099" y="1430" on="1"/>
        <pt x="1099" y="1340" on="1"/>
        <pt x="265" y="1340" on="1"/>
        <pt x="265" y="770" on="1"/>
        <pt x="1065" y="770" on="1"/>
        <pt x="1065" y="680" on="1"/>
        <pt x="265" y="680" on="1"/>
        <pt x="265" y="90" on="1"/>
        <pt x="1113" y="90" on="1"/>
        <pt x="1113" y="0" on="1"/>
        <pt x="160" y="0" on="1"/>
        <pt x="160" y="1430" on="1"/>
      </contour>
    </TTGlyph>
    <TTGlyph name="Eacute" xMin="160" yMin="0" xMax="1113" yMax="1810">
      <component glyphName="E" x="0" y="0" flags="0x200"/>
      <component glyphName="acute" x="429" y="380" flags="0x0"/>
    </TTGlyph>
    <TTGlyph name="Ebreve" xMin="160" yMin="0" xMax="1113" yMax="1810">
      <component glyphName="E" x="0" y="0" flags="0x200"/>
      <component glyphName="breve" x="282" y="380" flags="0x0"/>
    </TTGlyph>
    <TTGlyph name="Ecaron" xMin="160" yMin="0" xMax="1113" yMax="1810">
      <component glyphName="E" x="0" y="0" flags="0x200"/>
      <component glyphName="caron" x="287" y="380" flags="0x0"/>
    </TTGlyph>
    <TTGlyph name="Ecircumflex" xMin="160" yMin="0" xMax="1113" yMax="1810">
      <component glyphName="E" x="0" y="0" flags="0x200"/>
      <component glyphName="circumflex" x="287" y="380" flags="0x0"/>
    </TTGlyph>
    <TTGlyph name="Edieresis" xMin="160" yMin="0" xMax="1113" yMax="1790">
      <component glyphName="E" x="0" y="0" flags="0x200"/>
      <component glyphName="dieresis" x="319" y="380" flags="0x0"/>
    </TTGlyph>
    <TTGlyph name="Edotaccent" xMin="160" yMin="0" xMax="1113" yMax="1810">
      <component glyphName="E" x="0" y="0" flags="0x200"/>
      <component glyphName="dotaccent" x="454" y="380" flags="0x0"/>
    </TTGlyph>
    <TTGlyph name="Egrave" xMin="160" yMin="0" xMax="1113" yMax="1810">
      <component glyphName="E" x="0" y="0" flags="0x200"/>
      <component glyphName="grave" x="321" y="380" flags="0x0"/>
    </TTGlyph>
    <TTGlyph name="Emacron" xMin="160" yMin="0" xMax="1113" yMax="1810">
      <component glyphName="E" x="0" y="0" flags="0x200"/>
      <component glyphName="macron" x="287" y="380" flags="0x0"/>
    </TTGlyph>
    <TTGlyph name="Eng" xMin="160" yMin="-368" xMax="1345" yMax="1430">
      <contour>
        <pt x="1250" y="1430" on="1"/>
        <pt x="1345" y="1430" on="1"/>
        <pt x="1345" y="80" on="1"/>
        <pt x="1345" y="-238" on="0"/>
        <pt x="1190" y="-368" on="1"/>
        <pt x="1115" y="-303" on="1"/>
        <pt x="1233" y="-202" on="0"/>
        <pt x="1248" y="16" on="1"/>
        <pt x="255" y="1312" on="1"/>
        <pt x="255" y="0" on="1"/>
        <pt x="160" y="0" on="1"/>
        <pt x="160" y="1430" on="1"/>
        <pt x="295" y="1430" on="1"/>
        <pt x="1250" y="178" on="1"/>
      </contour>
    </TTGlyph>
    <TTGlyph name="Eogonek" xMin="160" yMin="-426" xMax="1133" yMax="1430">
      <contour>
        <pt x="988" y="0" on="1"/>
        <pt x="160" y="0" on="1"/>
        <pt x="160" y="1430" on="1"/>
        <pt x="1099" y="1430" on="1"/>
        <pt x="1099" y="1340" on="1"/>
        <pt x="265" y="1340" on="1"/>
        <pt x="265" y="770" on="1"/>
        <pt x="1065" y="770" on="1"/>
        <pt x="1065" y="680" on="1"/>
        <pt x="265" y="680" on="1"/>
        <pt x="265" y="90" on="1"/>
        <pt x="1113" y="90" on="1"/>
        <pt x="1113" y="0" on="1"/>
        <pt x="871" y="-126" on="0"/>
        <pt x="871" y="-228" on="1"/>
        <pt x="871" y="-346" on="0"/>
        <pt x="996" y="-346" on="1"/>
        <pt x="1081" y="-346" on="0"/>
        <pt x="1133" y="-326" on="1"/>
        <pt x="1133" y="-406" on="1"/>
        <pt x="1072" y="-426" on="0"/>
        <pt x="984" y="-426" on="1"/>
        <pt x="773" y="-426" on="0"/>
        <pt x="773" y="-253" on="1"/>
        <pt x="773" y="-102" on="0"/>
      </contour>
    </TTGlyph>
    <TTGlyph name="Epsilon" xMin="160" yMin="0" xMax="1113" yMax="1430">
      <component glyphName="E" x="0" y="0" flags="0x200"/>
    </TTGlyph>
    <TTGlyph name="Epsilontonos" xMin="-50" yMin="0" xMax="1286" yMax="1430">
      <contour>
        <pt x="114" y="1430" on="1"/>
        <pt x="273" y="1430" on="1"/>
        <pt x="34" y="1191" on="1"/>
        <pt x="-50" y="1191" on="1"/>
      </contour>
      <contour>
        <pt x="1272" y="1430" on="1"/>
        <pt x="1272" y="1340" on="1"/>
        <pt x="438" y="1340" on="1"/>
        <pt x="438" y="770" on="1"/>
        <pt x="1238" y="770" on="1"/>
        <pt x="1238" y="680" on="1"/>
        <pt x="438" y="680" on="1"/>
        <pt x="438" y="90" on="1"/>
        <pt x="1286" y="90" on="1"/>
        <pt x="1286" y="0" on="1"/>
        <pt x="333" y="0" on="1"/>
        <pt x="333" y="1430" on="1"/>
      </contour>
    </TTGlyph>
    <TTGlyph name="Eta" xMin="160" yMin="0" xMax="1345" yMax="1430">
      <component glyphName="H" x="0" y="0" flags="0x200"/>
    </TTGlyph>
    <TTGlyph name="Etatonos" xMin="-50" yMin="0" xMax="1518" yMax="1430">
      <contour>
        <pt x="114" y="1430" on="1"/>
        <pt x="273" y="1430" on="1"/>
        <pt x="34" y="1191" on="1"/>
        <pt x="-50" y="1191" on="1"/>
      </contour>
      <contour>
        <pt x="333" y="0" on="1"/>
        <pt x="333" y="1430" on="1"/>
        <pt x="438" y="1430" on="1"/>
        <pt x="438" y="770" on="1"/>
        <pt x="1413" y="770" on="1"/>
        <pt x="1413" y="1430" on="1"/>
        <pt x="1518" y="1430" on="1"/>
        <pt x="1518" y="0" on="1"/>
        <pt x="1413" y="0" on="1"/>
        <pt x="1413" y="680" on="1"/>
        <pt x="438" y="680" on="1"/>
        <pt x="438" y="0" on="1"/>
      </contour>
    </TTGlyph>
    <TTGlyph name="Eth" xMin="-40" yMin="0" xMax="1370" yMax="1430">
      <contour>
        <pt x="265" y="770" on="1"/>
        <pt x="710" y="770" on="1"/>
        <pt x="710" y="680" on="1"/>
        <pt x="265" y="680" on="1"/>
        <pt x="265" y="90" on="1"/>
        <pt x="660" y="90" on="1"/>
        <pt x="1255" y="90" on="0"/>
        <pt x="1255" y="754" on="1"/>
        <pt x="1255" y="1340" on="0"/>
        <pt x="660" y="1340" on="1"/>
        <pt x="265" y="1340" on="1"/>
      </contour>
      <contour>
        <pt x="160" y="680" on="1"/>
        <pt x="-40" y="680" on="1"/>
        <pt x="-40" y="770" on="1"/>
        <pt x="160" y="770" on="1"/>
        <pt x="160" y="1430" on="1"/>
        <pt x="670" y="1430" on="1"/>
        <pt x="1370" y="1430" on="0"/>
        <pt x="1370" y="754" on="1"/>
        <pt x="1370" y="0" on="0"/>
        <pt x="660" y="0" on="1"/>
        <pt x="160" y="0" on="1"/>
      </contour>
    </TTGlyph>
    <TTGlyph name="Euro" xMin="110" yMin="-10" xMax="1260" yMax="1440">
      <contour>
        <pt x="1260" y="50" on="1"/>
        <pt x="1075" y="-10" on="0"/>
        <pt x="860" y="-10" on="1"/>
        <pt x="110" y="-10" on="0"/>
        <pt x="110" y="735" on="1"/>
        <pt x="110" y="1440" on="0"/>
        <pt x="860" y="1440" on="1"/>
        <pt x="1075" y="1440" on="0"/>
        <pt x="1260" y="1380" on="1"/>
        <pt x="1260" y="1280" on="1"/>
        <pt x="1075" y="1350" on="0"/>
        <pt x="880" y="1350" on="1"/>
        <pt x="312" y="1350" on="0"/>
        <pt x="235" y="912" on="1"/>
        <pt x="1068" y="912" on="1"/>
        <pt x="1068" y="822" on="1"/>
        <pt x="225" y="822" on="1"/>
        <pt x="225" y="652" on="1"/>
        <pt x="1068" y="652" on="1"/>
        <pt x="1068" y="562" on="1"/>
        <pt x="235" y="562" on="1"/>
        <pt x="312" y="80" on="0"/>
        <pt x="880" y="80" on="1"/>
        <pt x="1075" y="80" on="0"/>
        <pt x="1260" y="150" on="1"/>
      </contour>
    </TTGlyph>
    <TTGlyph name="F" xMin="160" yMin="0" xMax="1099" yMax="1430">
      <contour>
        <pt x="1099" y="1430" on="1"/>
        <pt x="1099" y="1340" on="1"/>
        <pt x="265" y="1340" on="1"/>
        <pt x="265" y="770" on="1"/>
        <pt x="1065" y="770" on="1"/>
        <pt x="1065" y="680" on="1"/>
        <pt x="265" y="680" on="1"/>
        <pt x="265" y="0" on="1"/>
        <pt x="160" y="0" on="1"/>
        <pt x="160" y="1430" on="1"/>
      </contour>
    </TTGlyph>
    <TTGlyph name="G" xMin="110" yMin="-10" xMax="1260" yMax="1440">
      <contour>
        <pt x="1260" y="56" on="1"/>
        <pt x="1077" y="-10" on="0"/>
        <pt x="877" y="-10" on="1"/>
        <pt x="110" y="-10" on="0"/>
        <pt x="110" y="735" on="1"/>
        <pt x="110" y="1440" on="0"/>
        <pt x="860" y="1440" on="1"/>
        <pt x="1065" y="1440" on="0"/>
        <pt x="1260" y="1380" on="1"/>
        <pt x="1260" y="1290" on="1"/>
        <pt x="1065" y="1350" on="0"/>
        <pt x="880" y="1350" on="1"/>
        <pt x="215" y="1350" on="0"/>
        <pt x="215" y="735" on="1"/>
        <pt x="215" y="80" on="0"/>
        <pt x="861" y="80" on="1"/>
        <pt x="993" y="80" on="0"/>
        <pt x="1155" y="124" on="1"/>
        <pt x="1155" y="650" on="1"/>
        <pt x="1260" y="650" on="1"/>
      </contour>
    </TTGlyph>
    <TTGlyph name="Gamma" xMin="160" yMin="0" xMax="1013" yMax="1430">
      <contour>
        <pt x="160" y="0" on="1"/>
        <pt x="160" y="1430" on="1"/>
        <pt x="1013" y="1430" on="1"/>
        <pt x="1013" y="1340" on="1"/>
        <pt x="265" y="1340" on="1"/>
        <pt x="265" y="0" on="1"/>
      </contour>
    </TTGlyph>
    <TTGlyph name="Gbreve" xMin="110" yMin="-10" xMax="1260" yMax="1810">
      <component glyphName="G" x="0" y="0" flags="0x200"/>
      <component glyphName="breve" x="450" y="380" flags="0x0"/>
    </TTGlyph>
    <TTGlyph name="Gcircumflex" xMin="110" yMin="-10" xMax="1260" yMax="1810">
      <component glyphName="G" x="0" y="0" flags="0x200"/>
      <component glyphName="circumflex" x="485" y="380" flags="0x0"/>
    </TTGlyph>
    <TTGlyph name="Gcommaaccent" xMin="110" yMin="-380" xMax="1260" yMax="1440">
      <component glyphName="G" x="0" y="0" flags="0x200"/>
      <component glyphName="commaccent" x="533" y="0" flags="0x0"/>
    </TTGlyph>
    <TTGlyph name="Gdotaccent" xMin="110" yMin="-10" xMax="1260" yMax="1810">
      <component glyphName="G" x="0" y="0" flags="0x200"/>
      <component glyphName="dotaccent" x="653" y="380" flags="0x0"/>
    </TTGlyph>
    <TTGlyph name="H" xMin="160" yMin="0" xMax="1345" yMax="1430">
      <contour>
        <pt x="160" y="0" on="1"/>
        <pt x="160" y="1430" on="1"/>
        <pt x="265" y="1430" on="1"/>
        <pt x="265" y="770" on="1"/>
        <pt x="1240" y="770" on="1"/>
        <pt x="1240" y="1430" on="1"/>
        <pt x="1345" y="1430" on="1"/>
        <pt x="1345" y="0" on="1"/>
        <pt x="1240" y="0" on="1"/>
        <pt x="1240" y="680" on="1"/>
        <pt x="265" y="680" on="1"/>
        <pt x="265" y="0" on="1"/>
      </contour>
    </TTGlyph>
    <TTGlyph name="Hbar" xMin="160" yMin="0" xMax="1345" yMax="1430">
      <contour>
        <pt x="1240" y="1140" on="1"/>
        <pt x="1240" y="1430" on="1"/>
        <pt x="1345" y="1430" on="1"/>
        <pt x="1345" y="0" on="1"/>
        <pt x="1240" y="0" on="1"/>
        <pt x="1240" y="680" on="1"/>
        <pt x="265" y="680" on="1"/>
        <pt x="265" y="0" on="1"/>
        <pt x="160" y="0" on="1"/>
        <pt x="160" y="1430" on="1"/>
        <pt x="265" y="1430" on="1"/>
        <pt x="265" y="1140" on="1"/>
      </contour>
      <contour>
        <pt x="265" y="1050" on="1"/>
        <pt x="265" y="770" on="1"/>
        <pt x="1240" y="770" on="1"/>
        <pt x="1240" y="1050" on="1"/>
      </contour>
    </TTGlyph>
    <TTGlyph name="Hcircumflex" xMin="160" yMin="0" xMax="1345" yMax="1810">
      <component glyphName="H" x="0" y="0" flags="0x200"/>
      <component glyphName="circumflex" x="403" y="380" flags="0x0"/>
    </TTGlyph>
    <TTGlyph name="I" xMin="210" yMin="0" xMax="315" yMax="1430">
      <contour>
        <pt x="315" y="1430" on="1"/>
        <pt x="315" y="0" on="1"/>
        <pt x="210" y="0" on="1"/>
        <pt x="210" y="1430" on="1"/>
      </contour>
    </TTGlyph>
    <TTGlyph name="IJ" xMin="210" yMin="0" xMax="1015" yMax="1430">
      <component glyphName="I" x="0" y="0" flags="0x0"/>
      <component glyphName="J" x="525" y="0" flags="0x0"/>
    </TTGlyph>
    <TTGlyph name="Iacute" xMin="155" yMin="0" xMax="478" yMax="1810">
      <component glyphName="I" x="0" y="0" flags="0x200"/>
      <component glyphName="acute" x="55" y="380" flags="0x0"/>
    </TTGlyph>
    <TTGlyph name="Ibreve" xMin="8" yMin="0" xMax="518" yMax="1810">
      <component glyphName="I" x="1" y="0" flags="0x200"/>
      <component glyphName="breve" x="-92" y="380" flags="0x0"/>
    </TTGlyph>
    <TTGlyph name="Icircumflex" xMin="13" yMin="0" xMax="513" yMax="1810">
      <component glyphName="I" x="1" y="0" flags="0x200"/>
      <component glyphName="circumflex" x="-87" y="380" flags="0x0"/>
    </TTGlyph>
    <TTGlyph name="Idieresis" xMin="45" yMin="0" xMax="500" yMax="1790">
      <component glyphName="I" x="10" y="0" flags="0x200"/>
      <component glyphName="dieresis" x="-45" y="380" flags="0x0"/>
    </TTGlyph>
    <TTGlyph name="Idotaccent" xMin="180" yMin="0" xMax="345" yMax="1810">
      <component glyphName="I" x="0" y="0" flags="0x200"/>
      <component glyphName="dotaccent" x="80" y="380" flags="0x0"/>
    </TTGlyph>
    <TTGlyph name="Igrave" xMin="47" yMin="0" xMax="370" yMax="1810">
      <component glyphName="I" x="0" y="0" flags="0x200"/>
      <component glyphName="grave" x="-53" y="380" flags="0x0"/>
    </TTGlyph>
    <TTGlyph name="Imacron" xMin="13" yMin="0" xMax="513" yMax="1810">
      <component glyphName="I" x="1" y="0" flags="0x200"/>
      <component glyphName="macron" x="-87" y="380" flags="0x0"/>
    </TTGlyph>
    <TTGlyph name="Iogonek" xMin="-5" yMin="-426" xMax="355" yMax="1430">
      <contour>
        <pt x="210" y="0" on="1"/>
        <pt x="210" y="1430" on="1"/>
        <pt x="315" y="1430" on="1"/>
        <pt x="315" y="0" on="1"/>
        <pt x="93" y="-126" on="0"/>
        <pt x="93" y="-228" on="1"/>
        <pt x="93" y="-346" on="0"/>
        <pt x="218" y="-346" on="1"/>
        <pt x="303" y="-346" on="0"/>
        <pt x="355" y="-326" on="1"/>
        <pt x="355" y="-406" on="1"/>
        <pt x="294" y="-426" on="0"/>
        <pt x="206" y="-426" on="1"/>
        <pt x="-5" y="-426" on="0"/>
        <pt x="-5" y="-253" on="1"/>
        <pt x="-5" y="-102" on="0"/>
      </contour>
    </TTGlyph>
    <TTGlyph name="Iota" xMin="210" yMin="0" xMax="315" yMax="1430">
      <component glyphName="I" x="0" y="0" flags="0x200"/>
    </TTGlyph>
    <TTGlyph name="Iotadieresis" xMin="35" yMin="0" xMax="490" yMax="1790">
      <component glyphName="Iota" x="0" y="0" flags="0x200"/>
      <component glyphName="dieresis" x="-55" y="380" flags="0x0"/>
    </TTGlyph>
    <TTGlyph name="Iotatonos" xMin="-50" yMin="0" xMax="488" yMax="1430">
      <contour>
        <pt x="114" y="1430" on="1"/>
        <pt x="273" y="1430" on="1"/>
        <pt x="34" y="1191" on="1"/>
        <pt x="-50" y="1191" on="1"/>
      </contour>
      <contour>
        <pt x="488" y="1430" on="1"/>
        <pt x="488" y="0" on="1"/>
        <pt x="383" y="0" on="1"/>
        <pt x="383" y="1430" on="1"/>
      </contour>
    </TTGlyph>
    <TTGlyph name="Itilde" xMin="13" yMin="0" xMax="513" yMax="1810">
      <component glyphName="I" x="1" y="0" flags="0x200"/>
      <component glyphName="tilde" x="-87" y="380" flags="0x0"/>
    </TTGlyph>
    <TTGlyph name="J" xMin="35" yMin="0" xMax="490" yMax="1430">
      <contour>
        <pt x="490" y="1430" on="1"/>
        <pt x="490" y="412" on="1"/>
        <pt x="490" y="0" on="0"/>
        <pt x="35" y="0" on="1"/>
        <pt x="35" y="90" on="1"/>
        <pt x="385" y="90" on="0"/>
        <pt x="385" y="412" on="1"/>
        <pt x="385" y="1430" on="1"/>
      </contour>
    </TTGlyph>
    <TTGlyph name="Jcircumflex" xMin="36" yMin="0" xMax="683" yMax="1810">
      <component glyphName="J" x="1" y="0" flags="0x200"/>
      <component glyphName="circumflex" x="83" y="380" flags="0x0"/>
    </TTGlyph>
    <TTGlyph name="K" xMin="160" yMin="0" xMax="1270" yMax="1430">
      <contour>
        <pt x="265" y="1430" on="1"/>
        <pt x="265" y="0" on="1"/>
        <pt x="160" y="0" on="1"/>
        <pt x="160" y="1430" on="1"/>
      </contour>
      <contour>
        <pt x="1246" y="1430" on="1"/>
        <pt x="565" y="753" on="1"/>
        <pt x="1270" y="0" on="1"/>
        <pt x="1113" y="0" on="1"/>
        <pt x="460" y="718" on="1"/>
        <pt x="460" y="780" on="1"/>
        <pt x="1102" y="1430" on="1"/>
      </contour>
    </TTGlyph>
    <TTGlyph name="Kappa" xMin="160" yMin="0" xMax="1270" yMax="1430">
      <component glyphName="K" x="0" y="0" flags="0x200"/>
    </TTGlyph>
    <TTGlyph name="Kcommaaccent" xMin="160" yMin="-380" xMax="1270" yMax="1430">
      <component glyphName="K" x="0" y="0" flags="0x200"/>
      <component glyphName="commaccent" x="463" y="0" flags="0x0"/>
    </TTGlyph>
    <TTGlyph name="L" xMin="160" yMin="0" xMax="1093" yMax="1430">
      <contour>
        <pt x="265" y="1430" on="1"/>
        <pt x="265" y="90" on="1"/>
        <pt x="1093" y="90" on="1"/>
        <pt x="1093" y="0" on="1"/>
        <pt x="160" y="0" on="1"/>
        <pt x="160" y="1430" on="1"/>
      </contour>
    </TTGlyph>
    <TTGlyph name="Lacute" xMin="109" yMin="0" xMax="1093" yMax="1810">
      <component glyphName="L" x="0" y="0" flags="0x200"/>
      <component glyphName="acute" x="9" y="380" flags="0x0"/>
    </TTGlyph>
    <TTGlyph name="Lambda" xMin="35" yMin="0" xMax="1457" yMax="1430">
      <contour>
        <pt x="147" y="0" on="1"/>
        <pt x="35" y="0" on="1"/>
        <pt x="682" y="1430" on="1"/>
        <pt x="807" y="1430" on="1"/>
        <pt x="1457" y="0" on="1"/>
        <pt x="1332" y="0" on="1"/>
        <pt x="738" y="1348" on="1"/>
      </contour>
    </TTGlyph>
    <TTGlyph name="Lcaron" xMin="160" yMin="0" xMax="1093" yMax="1430">
      <contour>
        <pt x="265" y="1430" on="1"/>
        <pt x="265" y="90" on="1"/>
        <pt x="1093" y="90" on="1"/>
        <pt x="1093" y="0" on="1"/>
        <pt x="160" y="0" on="1"/>
        <pt x="160" y="1430" on="1"/>
      </contour>
      <contour>
        <pt x="750" y="1430" on="1"/>
        <pt x="600" y="995" on="1"/>
        <pt x="485" y="995" on="1"/>
        <pt x="635" y="1430" on="1"/>
      </contour>
    </TTGlyph>
    <TTGlyph name="Lcommaaccent" xMin="160" yMin="-380" xMax="1093" yMax="1430">
      <component glyphName="L" x="0" y="0" flags="0x200"/>
      <component glyphName="commaccent" x="424" y="0" flags="0x0"/>
    </TTGlyph>
    <TTGlyph name="Ldot" xMin="160" yMin="0" xMax="1093" yMax="1430">
      <component glyphName="L" x="0" y="0" flags="0x200"/>
      <component glyphName="periodcentered" x="450" y="190" flags="0x0"/>
    </TTGlyph>
    <TTGlyph name="Lslash" xMin="10" yMin="0" xMax="1093" yMax="1430">
      <contour>
        <pt x="160" y="592" on="1"/>
        <pt x="10" y="482" on="1"/>
        <pt x="10" y="592" on="1"/>
        <pt x="160" y="702" on="1"/>
        <pt x="160" y="1430" on="1"/>
        <pt x="265" y="1430" on="1"/>
        <pt x="265" y="780" on="1"/>
        <pt x="668" y="1076" on="1"/>
        <pt x="668" y="966" on="1"/>
        <pt x="265" y="670" on="1"/>
        <pt x="265" y="90" on="1"/>
        <pt x="1093" y="90" on="1"/>
        <pt x="1093" y="0" on="1"/>
        <pt x="160" y="0" on="1"/>
      </contour>
    </TTGlyph>
    <TTGlyph name="M" xMin="160" yMin="0" xMax="1610" yMax="1430">
      <contour>
        <pt x="160" y="0" on="1"/>
        <pt x="160" y="1430" on="1"/>
        <pt x="265" y="1430" on="1"/>
        <pt x="910" y="123" on="1"/>
        <pt x="1515" y="1430" on="1"/>
        <pt x="1610" y="1430" on="1"/>
        <pt x="1610" y="0" on="1"/>
        <pt x="1515" y="0" on="1"/>
        <pt x="1515" y="1237" on="1"/>
        <pt x="947" y="0" on="1"/>
        <pt x="861" y="0" on="1"/>
        <pt x="255" y="1247" on="1"/>
        <pt x="255" y="0" on="1"/>
      </contour>
    </TTGlyph>
    <TTGlyph name="MT.sign" xMin="100" yMin="-46" xMax="1624" yMax="1476">
      <contour>
        <pt x="1181" y="332" on="1"/>
        <pt x="1181" y="434" on="1"/>
        <pt x="926" y="447" on="1"/>
        <pt x="926" y="987" on="1"/>
        <pt x="1053" y="987" on="1"/>
        <pt x="1104" y="587" on="1"/>
        <pt x="1219" y="587" on="1"/>
        <pt x="1181" y="1098" on="1"/>
        <pt x="942" y="1098" on="1"/>
        <pt x="862" y="1060" on="1"/>
        <pt x="783" y="1098" on="1"/>
        <pt x="543" y="1098" on="1"/>
        <pt x="505" y="587" on="1"/>
        <pt x="619" y="587" on="1"/>
        <pt x="670" y="987" on="1"/>
        <pt x="798" y="987" on="1"/>
        <pt x="798" y="447" on="1"/>
        <pt x="543" y="434" on="1"/>
        <pt x="543" y="332" on="1"/>
      </contour>
      <contour>
        <pt x="534" y="1330" on="1"/>
        <pt x="571" y="1419" on="1"/>
        <pt x="660" y="1382" on="1"/>
        <pt x="713" y="1462" on="1"/>
        <pt x="794" y="1409" on="1"/>
        <pt x="862" y="1476" on="1"/>
        <pt x="930" y="1409" on="1"/>
        <pt x="1011" y="1462" on="1"/>
        <pt x="1064" y="1382" on="1"/>
        <pt x="1153" y="1419" on="1"/>
        <pt x="1190" y="1330" on="1"/>
        <pt x="1284" y="1349" on="1"/>
        <pt x="1304" y="1253" on="1"/>
        <pt x="1401" y="1253" on="1"/>
        <pt x="1401" y="1157" on="1"/>
        <pt x="1495" y="1138" on="1"/>
        <pt x="1476" y="1044" on="1"/>
        <pt x="1565" y="1007" on="1"/>
        <pt x="1529" y="917" on="1"/>
        <pt x="1610" y="865" on="1"/>
        <pt x="1556" y="783" on="1"/>
        <pt x="1624" y="716" on="1"/>
        <pt x="1555" y="647" on="1"/>
        <pt x="1610" y="565" on="1"/>
        <pt x="1528" y="513" on="1"/>
        <pt x="1565" y="423" on="1"/>
        <pt x="1476" y="386" on="1"/>
        <pt x="1495" y="292" on="1"/>
        <pt x="1401" y="273" on="1"/>
        <pt x="1401" y="177" on="1"/>
        <pt x="1304" y="177" on="1"/>
        <pt x="1284" y="81" on="1"/>
        <pt x="1190" y="100" on="1"/>
        <pt x="1153" y="11" on="1"/>
        <pt x="1064" y="48" on="1"/>
        <pt x="1011" y="-32" on="1"/>
        <pt x="930" y="21" on="1"/>
        <pt x="862" y="-46" on="1"/>
        <pt x="794" y="21" on="1"/>
        <pt x="713" y="-32" on="1"/>
        <pt x="660" y="48" on="1"/>
        <pt x="571" y="11" on="1"/>
        <pt x="534" y="100" on="1"/>
        <pt x="439" y="81" on="1"/>
        <pt x="420" y="177" on="1"/>
        <pt x="323" y="177" on="1"/>
        <pt x="323" y="273" on="1"/>
        <pt x="228" y="292" on="1"/>
        <pt x="247" y="386" on="1"/>
        <pt x="157" y="425" on="1"/>
        <pt x="194" y="513" on="1"/>
        <pt x="114" y="566" on="1"/>
        <pt x="169" y="647" on="1"/>
        <pt x="100" y="716" on="1"/>
        <pt x="169" y="783" on="1"/>
        <pt x="114" y="865" on="1"/>
        <pt x="196" y="919" on="1"/>
        <pt x="159" y="1007" on="1"/>
        <pt x="248" y="1044" on="1"/>
        <pt x="229" y="1138" on="1"/>
        <pt x="323" y="1157" on="1"/>
        <pt x="323" y="1253" on="1"/>
        <pt x="420" y="1253" on="1"/>
        <pt x="439" y="1349" on="1"/>
      </contour>
      <contour>
        <pt x="862" y="1347" on="1"/>
        <pt x="600" y="1347" on="0"/>
        <pt x="230" y="977" on="0"/>
        <pt x="230" y="716" on="1"/>
        <pt x="230" y="453" on="0"/>
        <pt x="600" y="83" on="0"/>
        <pt x="862" y="83" on="1"/>
        <pt x="1124" y="83" on="0"/>
        <pt x="1494" y="453" on="0"/>
        <pt x="1494" y="716" on="1"/>
        <pt x="1494" y="977" on="0"/>
        <pt x="1124" y="1347" on="0"/>
      </contour>
      <contour>
        <pt x="1101" y="1293" on="0"/>
        <pt x="1439" y="954" on="0"/>
        <pt x="1439" y="716" on="1"/>
        <pt x="1439" y="476" on="0"/>
        <pt x="1101" y="137" on="0"/>
        <pt x="862" y="137" on="1"/>
        <pt x="623" y="137" on="0"/>
        <pt x="285" y="476" on="0"/>
        <pt x="285" y="716" on="1"/>
        <pt x="285" y="954" on="0"/>
        <pt x="623" y="1293" on="0"/>
        <pt x="862" y="1293" on="1"/>
      </contour>
    </TTGlyph>
    <TTGlyph name="Mu" xMin="160" yMin="0" xMax="1610" yMax="1430">
      <component glyphName="M" x="0" y="0" flags="0x200"/>
    </TTGlyph>
    <TTGlyph name="N" xMin="160" yMin="0" xMax="1345" yMax="1430">
      <contour>
        <pt x="160" y="0" on="1"/>
        <pt x="160" y="1430" on="1"/>
        <pt x="295" y="1430" on="1"/>
        <pt x="1250" y="178" on="1"/>
        <pt x="1250" y="1430" on="1"/>
        <pt x="1345" y="1430" on="1"/>
        <pt x="1345" y="0" on="1"/>
        <pt x="1260" y="0" on="1"/>
        <pt x="255" y="1312" on="1"/>
        <pt x="255" y="0" on="1"/>
      </contour>
    </TTGlyph>
    <TTGlyph name="Nacute" xMin="160" yMin="0" xMax="1345" yMax="1810">
      <component glyphName="N" x="0" y="0" flags="0x200"/>
      <component glyphName="acute" x="545" y="380" flags="0x0"/>
    </TTGlyph>
    <TTGlyph name="Ncaron" xMin="160" yMin="0" xMax="1345" yMax="1810">
      <component glyphName="N" x="0" y="0" flags="0x200"/>
      <component glyphName="caron" x="403" y="380" flags="0x0"/>
    </TTGlyph>
    <TTGlyph name="Ncommaaccent" xMin="160" yMin="-380" xMax="1345" yMax="1430">
      <component glyphName="N" x="0" y="0" flags="0x200"/>
      <component glyphName="commaccent" x="550" y="0" flags="0x0"/>
    </TTGlyph>
    <TTGlyph name="Ntilde" xMin="160" yMin="0" xMax="1345" yMax="1810">
      <component glyphName="N" x="0" y="0" flags="0x200"/>
      <component glyphName="tilde" x="403" y="380" flags="0x0"/>
    </TTGlyph>
    <TTGlyph name="Nu" xMin="160" yMin="0" xMax="1345" yMax="1430">
      <component glyphName="N" x="0" y="0" flags="0x200"/>
    </TTGlyph>
    <TTGlyph name="O" xMin="110" yMin="-10" xMax="1535" yMax="1440">
      <contour>
        <pt x="225" y="80" on="0"/>
        <pt x="828" y="80" on="1"/>
        <pt x="1420" y="80" on="0"/>
        <pt x="1420" y="719" on="1"/>
        <pt x="1420" y="1350" on="0"/>
        <pt x="828" y="1350" on="1"/>
        <pt x="225" y="1350" on="0"/>
        <pt x="225" y="719" on="1"/>
      </contour>
      <contour>
        <pt x="110" y="713" on="1"/>
        <pt x="110" y="1440" on="0"/>
        <pt x="828" y="1440" on="1"/>
        <pt x="1535" y="1440" on="0"/>
        <pt x="1535" y="713" on="1"/>
        <pt x="1535" y="-10" on="0"/>
        <pt x="828" y="-10" on="1"/>
        <pt x="110" y="-10" on="0"/>
      </contour>
    </TTGlyph>
    <TTGlyph name="OE" xMin="110" yMin="0" xMax="2100" yMax="1430">
      <contour>
        <pt x="225" y="90" on="0"/>
        <pt x="828" y="90" on="1"/>
        <pt x="1420" y="90" on="0"/>
        <pt x="1420" y="719" on="1"/>
        <pt x="1420" y="1340" on="0"/>
        <pt x="828" y="1340" on="1"/>
        <pt x="225" y="1340" on="0"/>
        <pt x="225" y="719" on="1"/>
      </contour>
      <contour>
        <pt x="110" y="713" on="1"/>
        <pt x="110" y="1430" on="0"/>
        <pt x="828" y="1430" on="1"/>
        <pt x="2085" y="1430" on="1"/>
        <pt x="2085" y="1340" on="1"/>
        <pt x="1230" y="1340" on="1"/>
        <pt x="1505" y="1203" on="0"/>
        <pt x="1535" y="770" on="1"/>
        <pt x="2050" y="770" on="1"/>
        <pt x="2050" y="680" on="1"/>
        <pt x="1535" y="680" on="1"/>
        <pt x="1505" y="233" on="0"/>
        <pt x="1218" y="90" on="1"/>
        <pt x="2100" y="90" on="1"/>
        <pt x="2100" y="0" on="1"/>
        <pt x="828" y="0" on="1"/>
        <pt x="110" y="0" on="0"/>
      </contour>
    </TTGlyph>
    <TTGlyph name="Oacute" xMin="110" yMin="-10" xMax="1535" yMax="1810">
      <component glyphName="O" x="0" y="0" flags="0x200"/>
      <component glyphName="acute" x="615" y="380" flags="0x0"/>
    </TTGlyph>
    <TTGlyph name="Obreve" xMin="110" yMin="-10" xMax="1535" yMax="1810">
      <component glyphName="O" x="0" y="0" flags="0x200"/>
      <component glyphName="breve" x="468" y="380" flags="0x0"/>
    </TTGlyph>
    <TTGlyph name="Ocircumflex" xMin="110" yMin="-10" xMax="1535" yMax="1810">
      <component glyphName="O" x="0" y="0" flags="0x200"/>
      <component glyphName="circumflex" x="473" y="380" flags="0x0"/>
    </TTGlyph>
    <TTGlyph name="Odieresis" xMin="110" yMin="-10" xMax="1535" yMax="1790">
      <component glyphName="O" x="0" y="0" flags="0x200"/>
      <component glyphName="dieresis" x="505" y="380" flags="0x0"/>
    </TTGlyph>
    <TTGlyph name="Ograve" xMin="110" yMin="-10" xMax="1535" yMax="1810">
      <component glyphName="O" x="0" y="0" flags="0x200"/>
      <component glyphName="grave" x="507" y="380" flags="0x0"/>
    </TTGlyph>
    <TTGlyph name="Ohungarumlaut" xMin="110" yMin="-10" xMax="1535" yMax="1810">
      <component glyphName="O" x="0" y="0" flags="0x200"/>
      <component glyphName="hungarumlaut" x="471" y="380" flags="0x0"/>
    </TTGlyph>
    <TTGlyph name="Omacron" xMin="110" yMin="-10" xMax="1535" yMax="1810">
      <component glyphName="O" x="0" y="0" flags="0x200"/>
      <component glyphName="macron" x="473" y="380" flags="0x0"/>
    </TTGlyph>
    <TTGlyph name="Omega" xMin="120" yMin="0" xMax="1490" yMax="1450">
      <contour>
        <pt x="135" y="0" on="1"/>
        <pt x="135" y="90" on="1"/>
        <pt x="490" y="90" on="1"/>
        <pt x="120" y="400" on="0"/>
        <pt x="120" y="820" on="1"/>
        <pt x="120" y="1450" on="0"/>
        <pt x="805" y="1450" on="1"/>
        <pt x="1490" y="1450" on="0"/>
        <pt x="1490" y="820" on="1"/>
        <pt x="1490" y="400" on="0"/>
        <pt x="1120" y="90" on="1"/>
        <pt x="1475" y="90" on="1"/>
        <pt x="1475" y="0" on="1"/>
        <pt x="975" y="0" on="1"/>
        <pt x="975" y="90" on="1"/>
        <pt x="1385" y="420" on="0"/>
        <pt x="1385" y="820" on="1"/>
        <pt x="1385" y="1360" on="0"/>
        <pt x="805" y="1360" on="1"/>
        <pt x="225" y="1360" on="0"/>
        <pt x="225" y="820" on="1"/>
        <pt x="225" y="420" on="0"/>
        <pt x="635" y="90" on="1"/>
        <pt x="635" y="0" on="1"/>
      </contour>
    </TTGlyph>
    <TTGlyph name="Omegatonos" xMin="-50" yMin="0" xMax="1513" yMax="1450">
      <contour>
        <pt x="114" y="1430" on="1"/>
        <pt x="273" y="1430" on="1"/>
        <pt x="34" y="1191" on="1"/>
        <pt x="-50" y="1191" on="1"/>
      </contour>
      <contour>
        <pt x="158" y="0" on="1"/>
        <pt x="158" y="90" on="1"/>
        <pt x="513" y="90" on="1"/>
        <pt x="143" y="400" on="0"/>
        <pt x="143" y="820" on="1"/>
        <pt x="143" y="1450" on="0"/>
        <pt x="828" y="1450" on="1"/>
        <pt x="1513" y="1450" on="0"/>
        <pt x="1513" y="820" on="1"/>
        <pt x="1513" y="400" on="0"/>
        <pt x="1143" y="90" on="1"/>
        <pt x="1498" y="90" on="1"/>
        <pt x="1498" y="0" on="1"/>
        <pt x="998" y="0" on="1"/>
        <pt x="998" y="90" on="1"/>
        <pt x="1408" y="420" on="0"/>
        <pt x="1408" y="820" on="1"/>
        <pt x="1408" y="1360" on="0"/>
        <pt x="828" y="1360" on="1"/>
        <pt x="248" y="1360" on="0"/>
        <pt x="248" y="820" on="1"/>
        <pt x="248" y="420" on="0"/>
        <pt x="658" y="90" on="1"/>
        <pt x="658" y="0" on="1"/>
      </contour>
    </TTGlyph>
    <TTGlyph name="Omicron" xMin="110" yMin="-10" xMax="1535" yMax="1440">
      <component glyphName="O" x="0" y="0" flags="0x200"/>
    </TTGlyph>
    <TTGlyph name="Omicrontonos" xMin="-50" yMin="-10" xMax="1558" yMax="1440">
      <contour>
        <pt x="114" y="1430" on="1"/>
        <pt x="273" y="1430" on="1"/>
        <pt x="34" y="1191" on="1"/>
        <pt x="-50" y="1191" on="1"/>
      </contour>
      <contour>
        <pt x="248" y="80" on="0"/>
        <pt x="851" y="80" on="1"/>
        <pt x="1443" y="80" on="0"/>
        <pt x="1443" y="719" on="1"/>
        <pt x="1443" y="1350" on="0"/>
        <pt x="851" y="1350" on="1"/>
        <pt x="248" y="1350" on="0"/>
        <pt x="248" y="719" on="1"/>
      </contour>
      <contour>
        <pt x="133" y="713" on="1"/>
        <pt x="133" y="1440" on="0"/>
        <pt x="851" y="1440" on="1"/>
        <pt x="1558" y="1440" on="0"/>
        <pt x="1558" y="713" on="1"/>
        <pt x="1558" y="-10" on="0"/>
        <pt x="851" y="-10" on="1"/>
        <pt x="133" y="-10" on="0"/>
      </contour>
    </TTGlyph>
    <TTGlyph name="Oslash" xMin="110" yMin="-10" xMax="1535" yMax="1440">
      <contour>
        <pt x="470" y="164" on="1"/>
        <pt x="609" y="80" on="0"/>
        <pt x="828" y="80" on="1"/>
        <pt x="1420" y="80" on="0"/>
        <pt x="1420" y="719" on="1"/>
        <pt x="1420" y="1048" on="0"/>
        <pt x="1259" y="1206" on="1"/>
      </contour>
      <contour>
        <pt x="383" y="232" on="1"/>
        <pt x="1171" y="1272" on="1"/>
        <pt x="1036" y="1350" on="0"/>
        <pt x="828" y="1350" on="1"/>
        <pt x="225" y="1350" on="0"/>
        <pt x="225" y="719" on="1"/>
        <pt x="225" y="391" on="0"/>
      </contour>
      <contour>
        <pt x="407" y="82" on="1"/>
        <pt x="345" y="0" on="1"/>
        <pt x="208" y="0" on="1"/>
        <pt x="317" y="145" on="1"/>
        <pt x="110" y="324" on="0"/>
        <pt x="110" y="713" on="1"/>
        <pt x="110" y="1440" on="0"/>
        <pt x="828" y="1440" on="1"/>
        <pt x="1073" y="1440" on="0"/>
        <pt x="1233" y="1353" on="1"/>
        <pt x="1291" y="1430" on="1"/>
        <pt x="1429" y="1430" on="1"/>
        <pt x="1323" y="1291" on="1"/>
        <pt x="1535" y="1111" on="0"/>
        <pt x="1535" y="713" on="1"/>
        <pt x="1535" y="-10" on="0"/>
        <pt x="828" y="-10" on="1"/>
        <pt x="572" y="-10" on="0"/>
      </contour>
    </TTGlyph>
    <TTGlyph name="Otilde" xMin="110" yMin="-10" xMax="1535" yMax="1810">
      <component glyphName="O" x="0" y="0" flags="0x200"/>
      <component glyphName="tilde" x="473" y="380" flags="0x0"/>
    </TTGlyph>
    <TTGlyph name="P" xMin="160" yMin="0" xMax="1178" yMax="1430">
      <contour>
        <pt x="160" y="0" on="1"/>
        <pt x="160" y="1430" on="1"/>
        <pt x="760" y="1430" on="1"/>
        <pt x="1178" y="1430" on="0"/>
        <pt x="1178" y="1037" on="1"/>
        <pt x="1178" y="650" on="0"/>
        <pt x="509" y="544" on="1"/>
        <pt x="491" y="640" on="1"/>
        <pt x="1061" y="719" on="0"/>
        <pt x="1061" y="1029" on="1"/>
        <pt x="1061" y="1337" on="0"/>
        <pt x="743" y="1337" on="1"/>
        <pt x="265" y="1337" on="1"/>
        <pt x="265" y="0" on="1"/>
      </contour>
    </TTGlyph>
    <TTGlyph name="Phi" xMin="100" yMin="0" xMax="1544" yMax="1430">
      <contour>
        <pt x="770" y="113" on="1"/>
        <pt x="100" y="150" on="0"/>
        <pt x="100" y="723" on="1"/>
        <pt x="100" y="1280" on="0"/>
        <pt x="770" y="1317" on="1"/>
        <pt x="770" y="1430" on="1"/>
        <pt x="874" y="1430" on="1"/>
        <pt x="874" y="1318" on="1"/>
        <pt x="1544" y="1284" on="0"/>
        <pt x="1544" y="723" on="1"/>
        <pt x="1544" y="145" on="0"/>
        <pt x="874" y="112" on="1"/>
        <pt x="874" y="0" on="1"/>
        <pt x="770" y="0" on="1"/>
      </contour>
      <contour>
        <pt x="770" y="204" on="1"/>
        <pt x="770" y="1226" on="1"/>
        <pt x="214" y="1190" on="0"/>
        <pt x="214" y="719" on="1"/>
        <pt x="214" y="241" on="0"/>
      </contour>
      <contour>
        <pt x="874" y="1227" on="1"/>
        <pt x="874" y="203" on="1"/>
        <pt x="1430" y="237" on="0"/>
        <pt x="1430" y="719" on="1"/>
        <pt x="1430" y="1194" on="0"/>
      </contour>
    </TTGlyph>
    <TTGlyph name="Pi" xMin="160" yMin="0" xMax="1265" yMax="1430">
      <contour>
        <pt x="160" y="0" on="1"/>
        <pt x="160" y="1430" on="1"/>
        <pt x="1265" y="1430" on="1"/>
        <pt x="1265" y="0" on="1"/>
        <pt x="1160" y="0" on="1"/>
        <pt x="1160" y="1340" on="1"/>
        <pt x="265" y="1340" on="1"/>
        <pt x="265" y="0" on="1"/>
      </contour>
    </TTGlyph>
    <TTGlyph name="Psi" xMin="160" yMin="0" xMax="1490" yMax="1430">
      <contour>
        <pt x="773" y="541" on="1"/>
        <pt x="773" y="1430" on="1"/>
        <pt x="877" y="1430" on="1"/>
        <pt x="877" y="541" on="1"/>
        <pt x="1385" y="561" on="0"/>
        <pt x="1385" y="988" on="1"/>
        <pt x="1385" y="1430" on="1"/>
        <pt x="1490" y="1430" on="1"/>
        <pt x="1490" y="988" on="1"/>
        <pt x="1490" y="471" on="0"/>
        <pt x="877" y="451" on="1"/>
        <pt x="877" y="0" on="1"/>
        <pt x="773" y="0" on="1"/>
        <pt x="773" y="451" on="1"/>
        <pt x="160" y="471" on="0"/>
        <pt x="160" y="988" on="1"/>
        <pt x="160" y="1430" on="1"/>
        <pt x="265" y="1430" on="1"/>
        <pt x="265" y="988" on="1"/>
        <pt x="265" y="561" on="0"/>
      </contour>
    </TTGlyph>
    <TTGlyph name="Q" xMin="110" yMin="-371" xMax="1535" yMax="1440">
      <contour>
        <pt x="225" y="90" on="0"/>
        <pt x="828" y="90" on="1"/>
        <pt x="1420" y="90" on="0"/>
        <pt x="1420" y="719" on="1"/>
        <pt x="1420" y="1350" on="0"/>
        <pt x="828" y="1350" on="1"/>
        <pt x="225" y="1350" on="0"/>
        <pt x="225" y="719" on="1"/>
      </contour>
      <contour>
        <pt x="110" y="713" on="1"/>
        <pt x="110" y="1440" on="0"/>
        <pt x="828" y="1440" on="1"/>
        <pt x="1535" y="1440" on="0"/>
        <pt x="1535" y="713" on="1"/>
        <pt x="1535" y="115" on="0"/>
        <pt x="1000" y="-3" on="1"/>
        <pt x="1262" y="-303" on="1"/>
        <pt x="1168" y="-371" on="1"/>
        <pt x="858" y="-10" on="1"/>
        <pt x="110" y="-10" on="0"/>
      </contour>
    </TTGlyph>
    <TTGlyph name="R" xMin="160" yMin="0" xMax="1200" yMax="1430">
      <contour>
        <pt x="160" y="0" on="1"/>
        <pt x="160" y="1430" on="1"/>
        <pt x="750" y="1430" on="1"/>
        <pt x="1138" y="1430" on="0"/>
        <pt x="1138" y="1087" on="1"/>
        <pt x="1138" y="790" on="0"/>
        <pt x="717" y="666" on="1"/>
        <pt x="1200" y="0" on="1"/>
        <pt x="1056" y="0" on="1"/>
        <pt x="581" y="663" on="1"/>
        <pt x="581" y="734" on="1"/>
        <pt x="1021" y="799" on="0"/>
        <pt x="1021" y="1079" on="1"/>
        <pt x="1021" y="1337" on="0"/>
        <pt x="733" y="1337" on="1"/>
        <pt x="265" y="1337" on="1"/>
        <pt x="265" y="0" on="1"/>
      </contour>
    </TTGlyph>
    <TTGlyph name="Racute" xMin="160" yMin="0" xMax="1200" yMax="1810">
      <component glyphName="R" x="0" y="0" flags="0x200"/>
      <component glyphName="acute" x="372" y="380" flags="0x0"/>
    </TTGlyph>
    <TTGlyph name="Rcaron" xMin="160" yMin="0" xMax="1200" yMax="1810">
      <component glyphName="R" x="0" y="0" flags="0x200"/>
      <component glyphName="caron" x="248" y="380" flags="0x0"/>
    </TTGlyph>
    <TTGlyph name="Rcommaaccent" xMin="160" yMin="-380" xMax="1200" yMax="1430">
      <component glyphName="R" x="0" y="0" flags="0x200"/>
      <component glyphName="commaccent" x="428" y="0" flags="0x0"/>
    </TTGlyph>
    <TTGlyph name="Rho" xMin="160" yMin="0" xMax="1178" yMax="1430">
      <component glyphName="P" x="0" y="0" flags="0x200"/>
    </TTGlyph>
    <TTGlyph name="S" xMin="110" yMin="-10" xMax="1200" yMax="1440">
      <contour>
        <pt x="150" y="50" on="1"/>
        <pt x="150" y="160" on="1"/>
        <pt x="375" y="80" on="0"/>
        <pt x="646" y="80" on="1"/>
        <pt x="1095" y="80" on="0"/>
        <pt x="1095" y="420" on="1"/>
        <pt x="1095" y="670" on="0"/>
        <pt x="803" y="670" on="1"/>
        <pt x="509" y="670" on="1"/>
        <pt x="110" y="670" on="0"/>
        <pt x="110" y="1030" on="1"/>
        <pt x="110" y="1440" on="0"/>
        <pt x="695" y="1440" on="1"/>
        <pt x="935" y="1440" on="0"/>
        <pt x="1160" y="1380" on="1"/>
        <pt x="1160" y="1280" on="1"/>
        <pt x="935" y="1350" on="0"/>
        <pt x="695" y="1350" on="1"/>
        <pt x="215" y="1350" on="0"/>
        <pt x="215" y="1030" on="1"/>
        <pt x="215" y="770" on="0"/>
        <pt x="509" y="770" on="1"/>
        <pt x="803" y="770" on="1"/>
        <pt x="1200" y="770" on="0"/>
        <pt x="1200" y="420" on="1"/>
        <pt x="1200" y="-10" on="0"/>
        <pt x="646" y="-10" on="1"/>
        <pt x="375" y="-10" on="0"/>
      </contour>
    </TTGlyph>
    <TTGlyph name="Sacute" xMin="110" yMin="-10" xMax="1200" yMax="1810">
      <component glyphName="S" x="0" y="0" flags="0x200"/>
      <component glyphName="acute" x="447" y="380" flags="0x0"/>
    </TTGlyph>
    <TTGlyph name="Scaron" xMin="110" yMin="-10" xMax="1200" yMax="1810">
      <component glyphName="S" x="0" y="0" flags="0x200"/>
      <component glyphName="caron" x="305" y="380" flags="0x0"/>
    </TTGlyph>
    <TTGlyph name="Scedilla" xMin="110" yMin="-422" xMax="1200" yMax="1440">
      <contour>
        <pt x="568" y="-9" on="1"/>
        <pt x="342" y="-1" on="0"/>
        <pt x="150" y="50" on="1"/>
        <pt x="150" y="160" on="1"/>
        <pt x="375" y="80" on="0"/>
        <pt x="646" y="80" on="1"/>
        <pt x="1095" y="80" on="0"/>
        <pt x="1095" y="420" on="1"/>
        <pt x="1095" y="670" on="0"/>
        <pt x="803" y="670" on="1"/>
        <pt x="509" y="670" on="1"/>
        <pt x="110" y="670" on="0"/>
        <pt x="110" y="1030" on="1"/>
        <pt x="110" y="1440" on="0"/>
        <pt x="695" y="1440" on="1"/>
        <pt x="935" y="1440" on="0"/>
        <pt x="1160" y="1380" on="1"/>
        <pt x="1160" y="1280" on="1"/>
        <pt x="935" y="1350" on="0"/>
        <pt x="695" y="1350" on="1"/>
        <pt x="215" y="1350" on="0"/>
        <pt x="215" y="1030" on="1"/>
        <pt x="215" y="770" on="0"/>
        <pt x="509" y="770" on="1"/>
        <pt x="803" y="770" on="1"/>
        <pt x="1200" y="770" on="0"/>
        <pt x="1200" y="420" on="1"/>
        <pt x="1200" y="-2" on="0"/>
        <pt x="666" y="-10" on="1"/>
        <pt x="630" y="-77" on="1"/>
        <pt x="854" y="-77" on="0"/>
        <pt x="854" y="-249" on="1"/>
        <pt x="854" y="-422" on="0"/>
        <pt x="613" y="-422" on="1"/>
        <pt x="505" y="-422" on="0"/>
        <pt x="397" y="-372" on="1"/>
        <pt x="397" y="-284" on="1"/>
        <pt x="505" y="-344" on="0"/>
        <pt x="613" y="-344" on="1"/>
        <pt x="761" y="-344" on="0"/>
        <pt x="761" y="-249" on="1"/>
        <pt x="761" y="-155" on="0"/>
        <pt x="638" y="-155" on="1"/>
        <pt x="485" y="-155" on="1"/>
      </contour>
    </TTGlyph>
    <TTGlyph name="Scircumflex" xMin="110" yMin="-10" xMax="1200" yMax="1810">
      <component glyphName="S" x="0" y="0" flags="0x200"/>
      <component glyphName="circumflex" x="335" y="380" flags="0x0"/>
    </TTGlyph>
    <TTGlyph name="Scommaaccent" xMin="110" yMin="-380" xMax="1200" yMax="1440">
      <component glyphName="S" x="0" y="0" flags="0x200"/>
      <component glyphName="commaccent" x="453" y="0" flags="0x0"/>
    </TTGlyph>
    <TTGlyph name="Sigma" xMin="100" yMin="0" xMax="1080" yMax="1430">
      <contour>
        <pt x="100" y="1430" on="1"/>
        <pt x="1080" y="1430" on="1"/>
        <pt x="1080" y="1340" on="1"/>
        <pt x="230" y="1340" on="1"/>
        <pt x="720" y="750" on="1"/>
        <pt x="230" y="90" on="1"/>
        <pt x="1080" y="90" on="1"/>
        <pt x="1080" y="0" on="1"/>
        <pt x="100" y="0" on="1"/>
        <pt x="100" y="90" on="1"/>
        <pt x="585" y="750" on="1"/>
        <pt x="100" y="1340" on="1"/>
      </contour>
    </TTGlyph>
    <TTGlyph name="T" xMin="10" yMin="0" xMax="1085" yMax="1430">
      <contour>
        <pt x="1085" y="1430" on="1"/>
        <pt x="1085" y="1340" on="1"/>
        <pt x="595" y="1340" on="1"/>
        <pt x="595" y="0" on="1"/>
        <pt x="490" y="0" on="1"/>
        <pt x="490" y="1340" on="1"/>
        <pt x="10" y="1340" on="1"/>
        <pt x="10" y="1430" on="1"/>
      </contour>
    </TTGlyph>
    <TTGlyph name="Tau" xMin="10" yMin="0" xMax="1085" yMax="1430">
      <component glyphName="T" x="0" y="0" flags="0x200"/>
    </TTGlyph>
    <TTGlyph name="Tbar" xMin="10" yMin="0" xMax="1085" yMax="1430">
      <contour>
        <pt x="490" y="760" on="1"/>
        <pt x="490" y="1340" on="1"/>
        <pt x="10" y="1340" on="1"/>
        <pt x="10" y="1430" on="1"/>
        <pt x="1085" y="1430" on="1"/>
        <pt x="1085" y="1340" on="1"/>
        <pt x="595" y="1340" on="1"/>
        <pt x="595" y="760" on="1"/>
        <pt x="1085" y="760" on="1"/>
        <pt x="1085" y="670" on="1"/>
        <pt x="595" y="670" on="1"/>
        <pt x="595" y="0" on="1"/>
        <pt x="490" y="0" on="1"/>
        <pt x="490" y="670" on="1"/>
        <pt x="10" y="670" on="1"/>
        <pt x="10" y="760" on="1"/>
      </contour>
    </TTGlyph>
    <TTGlyph name="Tcaron" xMin="10" yMin="0" xMax="1085" yMax="1810">
      <component glyphName="T" x="0" y="0" flags="0x200"/>
      <component glyphName="caron" x="198" y="380" flags="0x0"/>
    </TTGlyph>
    <TTGlyph name="Tcommaaccent" xMin="10" yMin="-380" xMax="1085" yMax="1430">
      <component glyphName="T" x="0" y="0" flags="0x0"/>
      <component glyphName="commaccent" x="306" y="0" flags="0x0"/>
    </TTGlyph>
    <TTGlyph name="Theta" xMin="110" yMin="-10" xMax="1535" yMax="1440">
      <contour>
        <pt x="483" y="783" on="1"/>
        <pt x="1158" y="783" on="1"/>
        <pt x="1158" y="683" on="1"/>
        <pt x="483" y="683" on="1"/>
      </contour>
      <contour>
        <pt x="225" y="80" on="0"/>
        <pt x="828" y="80" on="1"/>
        <pt x="1420" y="80" on="0"/>
        <pt x="1420" y="719" on="1"/>
        <pt x="1420" y="1350" on="0"/>
        <pt x="828" y="1350" on="1"/>
        <pt x="225" y="1350" on="0"/>
        <pt x="225" y="719" on="1"/>
      </contour>
      <contour>
        <pt x="110" y="713" on="1"/>
        <pt x="110" y="1440" on="0"/>
        <pt x="828" y="1440" on="1"/>
        <pt x="1535" y="1440" on="0"/>
        <pt x="1535" y="713" on="1"/>
        <pt x="1535" y="-10" on="0"/>
        <pt x="828" y="-10" on="1"/>
        <pt x="110" y="-10" on="0"/>
      </contour>
    </TTGlyph>
    <TTGlyph name="Thorn" xMin="160" yMin="0" xMax="1178" yMax="1430">
      <contour>
        <pt x="160" y="0" on="1"/>
        <pt x="160" y="1430" on="1"/>
        <pt x="265" y="1430" on="1"/>
        <pt x="265" y="1122" on="1"/>
        <pt x="770" y="1122" on="1"/>
        <pt x="1178" y="1122" on="0"/>
        <pt x="1178" y="779" on="1"/>
        <pt x="1178" y="392" on="0"/>
        <pt x="609" y="300" on="1"/>
        <pt x="581" y="386" on="1"/>
        <pt x="1061" y="471" on="0"/>
        <pt x="1061" y="771" on="1"/>
        <pt x="1061" y="1029" on="0"/>
        <pt x="753" y="1029" on="1"/>
        <pt x="265" y="1029" on="1"/>
        <pt x="265" y="0" on="1"/>
      </contour>
    </TTGlyph>
    <TTGlyph name="U" xMin="160" yMin="-10" xMax="1310" yMax="1430">
      <contour>
        <pt x="160" y="552" on="1"/>
        <pt x="160" y="1430" on="1"/>
        <pt x="265" y="1430" on="1"/>
        <pt x="265" y="552" on="1"/>
        <pt x="265" y="80" on="0"/>
        <pt x="735" y="80" on="1"/>
        <pt x="1205" y="80" on="0"/>
        <pt x="1205" y="552" on="1"/>
        <pt x="1205" y="1430" on="1"/>
        <pt x="1310" y="1430" on="1"/>
        <pt x="1310" y="552" on="1"/>
        <pt x="1310" y="-10" on="0"/>
        <pt x="735" y="-10" on="1"/>
        <pt x="160" y="-10" on="0"/>
      </contour>
    </TTGlyph>
    <TTGlyph name="Uacute" xMin="160" yMin="-10" xMax="1310" yMax="1810">
      <component glyphName="U" x="0" y="0" flags="0x200"/>
      <component glyphName="acute" x="527" y="380" flags="0x0"/>
    </TTGlyph>
    <TTGlyph name="Ubreve" xMin="160" yMin="-10" xMax="1310" yMax="1810">
      <component glyphName="U" x="0" y="0" flags="0x200"/>
      <component glyphName="breve" x="380" y="380" flags="0x0"/>
    </TTGlyph>
    <TTGlyph name="Ucircumflex" xMin="160" yMin="-10" xMax="1310" yMax="1810">
      <component glyphName="U" x="0" y="0" flags="0x200"/>
      <component glyphName="circumflex" x="385" y="380" flags="0x0"/>
    </TTGlyph>
    <TTGlyph name="Udieresis" xMin="160" yMin="-10" xMax="1310" yMax="1790">
      <component glyphName="U" x="0" y="0" flags="0x200"/>
      <component glyphName="dieresis" x="418" y="380" flags="0x0"/>
    </TTGlyph>
    <TTGlyph name="Ugrave" xMin="160" yMin="-10" xMax="1310" yMax="1810">
      <component glyphName="U" x="0" y="0" flags="0x200"/>
      <component glyphName="grave" x="420" y="380" flags="0x0"/>
    </TTGlyph>
    <TTGlyph name="Uhungarumlaut" xMin="160" yMin="-10" xMax="1310" yMax="1810">
      <component glyphName="U" x="0" y="0" flags="0x200"/>
      <component glyphName="hungarumlaut" x="383" y="380" flags="0x0"/>
    </TTGlyph>
    <TTGlyph name="Umacron" xMin="160" yMin="-10" xMax="1310" yMax="1810">
      <component glyphName="U" x="0" y="0" flags="0x200"/>
      <component glyphName="macron" x="385" y="380" flags="0x0"/>
    </TTGlyph>
    <TTGlyph name="Uogonek" xMin="160" yMin="-426" xMax="1310" yMax="1430">
      <contour>
        <pt x="724" y="-10" on="1"/>
        <pt x="160" y="-4" on="0"/>
        <pt x="160" y="552" on="1"/>
        <pt x="160" y="1430" on="1"/>
        <pt x="265" y="1430" on="1"/>
        <pt x="265" y="552" on="1"/>
        <pt x="265" y="80" on="0"/>
        <pt x="735" y="80" on="1"/>
        <pt x="1205" y="80" on="0"/>
        <pt x="1205" y="552" on="1"/>
        <pt x="1205" y="1430" on="1"/>
        <pt x="1310" y="1430" on="1"/>
        <pt x="1310" y="552" on="1"/>
        <pt x="1310" y="44" on="0"/>
        <pt x="841" y="-5" on="1"/>
        <pt x="627" y="-128" on="0"/>
        <pt x="627" y="-228" on="1"/>
        <pt x="627" y="-346" on="0"/>
        <pt x="752" y="-346" on="1"/>
        <pt x="837" y="-346" on="0"/>
        <pt x="889" y="-326" on="1"/>
        <pt x="889" y="-406" on="1"/>
        <pt x="828" y="-426" on="0"/>
        <pt x="740" y="-426" on="1"/>
        <pt x="529" y="-426" on="0"/>
        <pt x="529" y="-253" on="1"/>
        <pt x="529" y="-109" on="0"/>
      </contour>
    </TTGlyph>
    <TTGlyph name="Upsilon" xMin="35" yMin="0" xMax="1215" yMax="1430">
      <component glyphName="Y" x="0" y="0" flags="0x200"/>
    </TTGlyph>
    <TTGlyph name="Upsilondieresis" xMin="35" yMin="0" xMax="1215" yMax="1790">
      <component glyphName="Upsilon" x="0" y="0" flags="0x200"/>
      <component glyphName="dieresis" x="308" y="380" flags="0x0"/>
    </TTGlyph>
    <TTGlyph name="Upsilontonos" xMin="-50" yMin="0" xMax="1488" yMax="1430">
      <contour>
        <pt x="114" y="1430" on="1"/>
        <pt x="273" y="1430" on="1"/>
        <pt x="34" y="1191" on="1"/>
        <pt x="-50" y="1191" on="1"/>
      </contour>
      <contour>
        <pt x="308" y="1430" on="1"/>
        <pt x="433" y="1430" on="1"/>
        <pt x="896" y="600" on="1"/>
        <pt x="1373" y="1430" on="1"/>
        <pt x="1488" y="1430" on="1"/>
        <pt x="952" y="500" on="1"/>
        <pt x="952" y="0" on="1"/>
        <pt x="847" y="0" on="1"/>
        <pt x="847" y="500" on="1"/>
      </contour>
    </TTGlyph>
    <TTGlyph name="Uring" xMin="160" yMin="-10" xMax="1310" yMax="1843">
      <component glyphName="U" x="0" y="0" flags="0x200"/>
      <component glyphName="ring" x="419" y="282" flags="0x0"/>
    </TTGlyph>
    <TTGlyph name="Utilde" xMin="160" yMin="-10" xMax="1310" yMax="1810">
      <component glyphName="U" x="0" y="0" flags="0x200"/>
      <component glyphName="tilde" x="385" y="380" flags="0x0"/>
    </TTGlyph>
    <TTGlyph name="V" xMin="35" yMin="0" xMax="1457" yMax="1430">
      <contour>
        <pt x="1457" y="1430" on="1"/>
        <pt x="830" y="0" on="1"/>
        <pt x="665" y="0" on="1"/>
        <pt x="35" y="1430" on="1"/>
        <pt x="150" y="1430" on="1"/>
        <pt x="751" y="81" on="1"/>
        <pt x="1345" y="1430" on="1"/>
      </contour>
    </TTGlyph>
    <TTGlyph name="W" xMin="35" yMin="0" xMax="1785" yMax="1430">
      <contour>
        <pt x="35" y="1430" on="1"/>
        <pt x="144" y="1430" on="1"/>
        <pt x="377" y="101" on="1"/>
        <pt x="839" y="1430" on="1"/>
        <pt x="944" y="1430" on="1"/>
        <pt x="1419" y="88" on="1"/>
        <pt x="1684" y="1430" on="1"/>
        <pt x="1785" y="1430" on="1"/>
        <pt x="1496" y="0" on="1"/>
        <pt x="1344" y="0" on="1"/>
        <pt x="892" y="1306" on="1"/>
        <pt x="439" y="0" on="1"/>
        <pt x="290" y="0" on="1"/>
      </contour>
    </TTGlyph>
    <TTGlyph name="Wcircumflex" xMin="35" yMin="0" xMax="1785" yMax="1810">
      <component glyphName="W" x="0" y="0" flags="0x200"/>
      <component glyphName="circumflex" x="560" y="380" flags="0x0"/>
    </TTGlyph>
    <TTGlyph name="X" xMin="35" yMin="0" xMax="1285" yMax="1430">
      <contour>
        <pt x="598" y="715" on="1"/>
        <pt x="35" y="1430" on="1"/>
        <pt x="160" y="1430" on="1"/>
        <pt x="660" y="794" on="1"/>
        <pt x="1160" y="1430" on="1"/>
        <pt x="1285" y="1430" on="1"/>
        <pt x="723" y="715" on="1"/>
        <pt x="1285" y="0" on="1"/>
        <pt x="1160" y="0" on="1"/>
        <pt x="660" y="636" on="1"/>
        <pt x="160" y="0" on="1"/>
        <pt x="35" y="0" on="1"/>
      </contour>
    </TTGlyph>
    <TTGlyph name="Xi" xMin="100" yMin="0" xMax="1096" yMax="1430">
      <contour>
        <pt x="100" y="100" on="1"/>
        <pt x="1096" y="100" on="1"/>
        <pt x="1096" y="0" on="1"/>
        <pt x="100" y="0" on="1"/>
      </contour>
      <contour>
        <pt x="100" y="1430" on="1"/>
        <pt x="1096" y="1430" on="1"/>
        <pt x="1096" y="1330" on="1"/>
        <pt x="100" y="1330" on="1"/>
      </contour>
      <contour>
        <pt x="160" y="783" on="1"/>
        <pt x="1036" y="783" on="1"/>
        <pt x="1036" y="683" on="1"/>
        <pt x="160" y="683" on="1"/>
      </contour>
    </TTGlyph>
    <TTGlyph name="Y" xMin="35" yMin="0" xMax="1215" yMax="1430">
      <contour>
        <pt x="35" y="1430" on="1"/>
        <pt x="160" y="1430" on="1"/>
        <pt x="623" y="600" on="1"/>
        <pt x="1100" y="1430" on="1"/>
        <pt x="1215" y="1430" on="1"/>
        <pt x="679" y="500" on="1"/>
        <pt x="679" y="0" on="1"/>
        <pt x="574" y="0" on="1"/>
        <pt x="574" y="500" on="1"/>
      </contour>
    </TTGlyph>
    <TTGlyph name="Yacute" xMin="35" yMin="0" xMax="1215" yMax="1810">
      <component glyphName="Y" x="0" y="0" flags="0x200"/>
      <component glyphName="acute" x="417" y="380" flags="0x0"/>
    </TTGlyph>
    <TTGlyph name="Ycircumflex" xMin="35" yMin="0" xMax="1215" yMax="1810">
      <component glyphName="Y" x="0" y="0" flags="0x200"/>
      <component glyphName="circumflex" x="275" y="380" flags="0x0"/>
    </TTGlyph>
    <TTGlyph name="Ydieresis" xMin="35" yMin="0" xMax="1215" yMax="1790">
      <component glyphName="Y" x="0" y="0" flags="0x200"/>
      <component glyphName="dieresis" x="308" y="380" flags="0x0"/>
    </TTGlyph>
    <TTGlyph name="Z" xMin="135" yMin="0" xMax="1135" yMax="1430">
      <contour>
        <pt x="1135" y="1430" on="1"/>
        <pt x="1135" y="1340" on="1"/>
        <pt x="268" y="90" on="1"/>
        <pt x="1115" y="90" on="1"/>
        <pt x="1115" y="0" on="1"/>
        <pt x="135" y="0" on="1"/>
        <pt x="135" y="80" on="1"/>
        <pt x="1029" y="1340" on="1"/>
        <pt x="155" y="1340" on="1"/>
        <pt x="155" y="1430" on="1"/>
      </contour>
    </TTGlyph>
    <TTGlyph name="Zacute" xMin="135" yMin="0" xMax="1135" yMax="1810">
      <component glyphName="Z" x="0" y="0" flags="0x200"/>
      <component glyphName="acute" x="427" y="380" flags="0x0"/>
    </TTGlyph>
    <TTGlyph name="Zcaron" xMin="135" yMin="0" xMax="1135" yMax="1831">
      <contour>
        <pt x="1135" y="1430" on="1"/>
        <pt x="1135" y="1340" on="1"/>
        <pt x="268" y="90" on="1"/>
        <pt x="1115" y="90" on="1"/>
        <pt x="1115" y="0" on="1"/>
        <pt x="135" y="0" on="1"/>
        <pt x="135" y="80" on="1"/>
        <pt x="1029" y="1340" on="1"/>
        <pt x="155" y="1340" on="1"/>
        <pt x="155" y="1430" on="1"/>
      </contour>
      <contour>
        <pt x="400" y="1831" on="1"/>
        <pt x="500" y="1831" on="1"/>
        <pt x="648" y="1637" on="1"/>
        <pt x="800" y="1831" on="1"/>
        <pt x="900" y="1831" on="1"/>
        <pt x="705" y="1571" on="1"/>
        <pt x="595" y="1571" on="1"/>
      </contour>
    </TTGlyph>
    <TTGlyph name="Zdot" xMin="135" yMin="0" xMax="1135" yMax="1810">
      <component glyphName="Z" x="0" y="0" flags="0x200"/>
      <component glyphName="dotaccent" x="453" y="380" flags="0x0"/>
    </TTGlyph>
    <TTGlyph name="Zeta" xMin="135" yMin="0" xMax="1135" yMax="1430">
      <component glyphName="Z" x="0" y="0" flags="0x200"/>
    </TTGlyph>
    <TTGlyph name="a" xMin="100" yMin="0" xMax="935" yMax="1050">
      <contour>
        <pt x="100" y="297" on="1"/>
        <pt x="100" y="610" on="0"/>
        <pt x="516" y="610" on="1"/>
        <pt x="663" y="610" on="0"/>
        <pt x="830" y="590" on="1"/>
        <pt x="830" y="719" on="1"/>
        <pt x="830" y="960" on="0"/>
        <pt x="527" y="960" on="1"/>
        <pt x="365" y="960" on="0"/>
        <pt x="195" y="910" on="1"/>
        <pt x="195" y="1000" on="1"/>
        <pt x="365" y="1050" on="0"/>
        <pt x="527" y="1050" on="1"/>
        <pt x="935" y="1050" on="0"/>
        <pt x="935" y="724" on="1"/>
        <pt x="935" y="0" on="1"/>
        <pt x="871" y="0" on="1"/>
        <pt x="847" y="104" on="1"/>
        <pt x="650" y="0" on="0"/>
        <pt x="465" y="0" on="1"/>
        <pt x="100" y="0" on="0"/>
      </contour>
      <contour>
        <pt x="516" y="520" on="1"/>
        <pt x="205" y="520" on="0"/>
        <pt x="205" y="300" on="1"/>
        <pt x="205" y="90" on="0"/>
        <pt x="465" y="90" on="1"/>
        <pt x="657" y="90" on="0"/>
        <pt x="830" y="192" on="1"/>
        <pt x="830" y="500" on="1"/>
        <pt x="663" y="520" on="0"/>
      </contour>
    </TTGlyph>
    <TTGlyph name="aacute" xMin="100" yMin="0" xMax="935" yMax="1430">
      <component glyphName="a" x="0" y="0" flags="0x200"/>
      <component glyphName="acute" x="350" y="0" flags="0x0"/>
    </TTGlyph>
    <TTGlyph name="abreve" xMin="100" yMin="0" xMax="935" yMax="1430">
      <component glyphName="a" x="0" y="0" flags="0x200"/>
      <component glyphName="breve" x="203" y="0" flags="0x0"/>
    </TTGlyph>
    <TTGlyph name="acircumflex" xMin="100" yMin="0" xMax="935" yMax="1430">
      <component glyphName="a" x="0" y="0" flags="0x200"/>
      <component glyphName="circumflex" x="208" y="0" flags="0x0"/>
    </TTGlyph>
    <TTGlyph name="acute" xMin="100" yMin="1191" xMax="423" yMax="1430">
      <contour>
        <pt x="264" y="1430" on="1"/>
        <pt x="423" y="1430" on="1"/>
        <pt x="184" y="1191" on="1"/>
        <pt x="100" y="1191" on="1"/>
      </contour>
    </TTGlyph>
    <TTGlyph name="adieresis" xMin="100" yMin="0" xMax="935" yMax="1410">
      <component glyphName="a" x="0" y="0" flags="0x200"/>
      <component glyphName="dieresis" x="250" y="0" flags="0x0"/>
    </TTGlyph>
    <TTGlyph name="ae" xMin="100" yMin="0" xMax="1727" yMax="1050">
      <contour>
        <pt x="516" y="530" on="1"/>
        <pt x="205" y="530" on="0"/>
        <pt x="205" y="300" on="1"/>
        <pt x="205" y="90" on="0"/>
        <pt x="465" y="90" on="1"/>
        <pt x="657" y="90" on="0"/>
        <pt x="850" y="192" on="1"/>
        <pt x="850" y="510" on="1"/>
        <pt x="663" y="530" on="0"/>
      </contour>
      <contour>
        <pt x="948" y="596" on="1"/>
        <pt x="1626" y="596" on="1"/>
        <pt x="1620" y="962" on="0"/>
        <pt x="1296" y="962" on="1"/>
        <pt x="966" y="962" on="0"/>
      </contour>
      <contour>
        <pt x="945" y="155" on="1"/>
        <pt x="700" y="0" on="0"/>
        <pt x="465" y="0" on="1"/>
        <pt x="100" y="0" on="0"/>
        <pt x="100" y="297" on="1"/>
        <pt x="100" y="620" on="0"/>
        <pt x="516" y="620" on="1"/>
        <pt x="663" y="620" on="0"/>
        <pt x="850" y="600" on="1"/>
        <pt x="850" y="719" on="1"/>
        <pt x="850" y="960" on="0"/>
        <pt x="527" y="960" on="1"/>
        <pt x="365" y="960" on="0"/>
        <pt x="195" y="910" on="1"/>
        <pt x="195" y="1000" on="1"/>
        <pt x="365" y="1050" on="0"/>
        <pt x="527" y="1050" on="1"/>
        <pt x="853" y="1050" on="0"/>
        <pt x="919" y="867" on="1"/>
        <pt x="1033" y="1050" on="0"/>
        <pt x="1296" y="1050" on="1"/>
        <pt x="1727" y="1050" on="0"/>
        <pt x="1727" y="573" on="1"/>
        <pt x="1727" y="539" on="0"/>
        <pt x="1725" y="502" on="1"/>
        <pt x="948" y="502" on="1"/>
        <pt x="948" y="90" on="0"/>
        <pt x="1354" y="90" on="1"/>
        <pt x="1533" y="90" on="0"/>
        <pt x="1672" y="140" on="1"/>
        <pt x="1672" y="50" on="1"/>
        <pt x="1533" y="0" on="0"/>
        <pt x="1354" y="0" on="1"/>
        <pt x="1080" y="0" on="0"/>
      </contour>
    </TTGlyph>
    <TTGlyph name="afii10017" xMin="35" yMin="0" xMax="1457" yMax="1430">
      <component glyphName="A" x="0" y="0" flags="0x200"/>
    </TTGlyph>
    <TTGlyph name="afii10018" xMin="160" yMin="0" xMax="1176" yMax="1430">
      <contour>
        <pt x="1161" y="1430" on="1"/>
        <pt x="1161" y="1340" on="1"/>
        <pt x="266" y="1340" on="1"/>
        <pt x="266" y="93" on="1"/>
        <pt x="753" y="93" on="1"/>
        <pt x="1071" y="93" on="0"/>
        <pt x="1071" y="402" on="1"/>
        <pt x="1071" y="730" on="0"/>
        <pt x="699" y="730" on="1"/>
        <pt x="511" y="730" on="1"/>
        <pt x="511" y="820" on="1"/>
        <pt x="708" y="820" on="1"/>
        <pt x="1176" y="820" on="0"/>
        <pt x="1176" y="413" on="1"/>
        <pt x="1176" y="0" on="0"/>
        <pt x="770" y="0" on="1"/>
        <pt x="160" y="0" on="1"/>
        <pt x="160" y="1430" on="1"/>
      </contour>
    </TTGlyph>
    <TTGlyph name="afii10019" xMin="160" yMin="0" xMax="1196" yMax="1430">
      <component glyphName="B" x="0" y="0" flags="0x200"/>
    </TTGlyph>
    <TTGlyph name="afii10020" xMin="160" yMin="0" xMax="1013" yMax="1430">
      <contour>
        <pt x="160" y="0" on="1"/>
        <pt x="160" y="1430" on="1"/>
        <pt x="1013" y="1430" on="1"/>
        <pt x="1013" y="1340" on="1"/>
        <pt x="265" y="1340" on="1"/>
        <pt x="265" y="0" on="1"/>
      </contour>
    </TTGlyph>
    <TTGlyph name="afii10021" xMin="0" yMin="-380" xMax="1544" yMax="1430">
      <contour>
        <pt x="418" y="90" on="1"/>
        <pt x="1254" y="90" on="1"/>
        <pt x="1254" y="1340" on="1"/>
        <pt x="704" y="1340" on="1"/>
        <pt x="704" y="341" on="0"/>
      </contour>
      <contour>
        <pt x="0" y="-380" on="1"/>
        <pt x="0" y="90" on="1"/>
        <pt x="184" y="90" on="1"/>
        <pt x="599" y="90" on="0"/>
        <pt x="599" y="1340" on="1"/>
        <pt x="599" y="1430" on="1"/>
        <pt x="1359" y="1430" on="1"/>
        <pt x="1359" y="90" on="1"/>
        <pt x="1544" y="90" on="1"/>
        <pt x="1544" y="-380" on="1"/>
        <pt x="1439" y="-380" on="1"/>
        <pt x="1439" y="0" on="1"/>
        <pt x="104" y="0" on="1"/>
        <pt x="104" y="-380" on="1"/>
      </contour>
    </TTGlyph>
    <TTGlyph name="afii10022" xMin="160" yMin="0" xMax="1113" yMax="1430">
      <component glyphName="E" x="0" y="0" flags="0x200"/>
    </TTGlyph>
    <TTGlyph name="afii10023" xMin="160" yMin="0" xMax="1113" yMax="1790">
      <component glyphName="E" x="0" y="0" flags="0x200"/>
      <component glyphName="dieresis" x="319" y="380" flags="0x0"/>
    </TTGlyph>
    <TTGlyph name="afii10024" xMin="25" yMin="0" xMax="2014" yMax="1430">
      <contour>
        <pt x="1825" y="0" on="1"/>
        <pt x="1486" y="540" on="0"/>
        <pt x="1310" y="723" on="0"/>
        <pt x="1192" y="723" on="1"/>
        <pt x="1192" y="796" on="1"/>
        <pt x="1392" y="796" on="0"/>
        <pt x="1719" y="1430" on="0"/>
        <pt x="1907" y="1430" on="1"/>
        <pt x="2014" y="1430" on="1"/>
        <pt x="2014" y="1340" on="1"/>
        <pt x="1935" y="1340" on="1"/>
        <pt x="1777" y="1340" on="0"/>
        <pt x="1509" y="797" on="0"/>
        <pt x="1364" y="758" on="1"/>
        <pt x="1439" y="745" on="0"/>
        <pt x="1619" y="546" on="0"/>
        <pt x="1969" y="0" on="1"/>
      </contour>
      <contour>
        <pt x="1072" y="1430" on="1"/>
        <pt x="1072" y="0" on="1"/>
        <pt x="967" y="0" on="1"/>
        <pt x="967" y="1430" on="1"/>
      </contour>
      <contour>
        <pt x="70" y="0" on="1"/>
        <pt x="420" y="546" on="0"/>
        <pt x="600" y="745" on="0"/>
        <pt x="675" y="758" on="1"/>
        <pt x="530" y="797" on="0"/>
        <pt x="262" y="1340" on="0"/>
        <pt x="104" y="1340" on="1"/>
        <pt x="25" y="1340" on="1"/>
        <pt x="25" y="1430" on="1"/>
        <pt x="132" y="1430" on="1"/>
        <pt x="320" y="1430" on="0"/>
        <pt x="647" y="796" on="0"/>
        <pt x="847" y="796" on="1"/>
        <pt x="847" y="723" on="1"/>
        <pt x="729" y="723" on="0"/>
        <pt x="553" y="540" on="0"/>
        <pt x="214" y="0" on="1"/>
      </contour>
    </TTGlyph>
    <TTGlyph name="afii10025" xMin="100" yMin="-10" xMax="1015" yMax="1440">
      <contour>
        <pt x="100" y="1380" on="1"/>
        <pt x="300" y="1440" on="0"/>
        <pt x="500" y="1440" on="1"/>
        <pt x="1015" y="1440" on="0"/>
        <pt x="1015" y="1050" on="1"/>
        <pt x="1015" y="794" on="0"/>
        <pt x="777" y="725" on="1"/>
        <pt x="1015" y="660" on="0"/>
        <pt x="1015" y="400" on="1"/>
        <pt x="1015" y="-10" on="0"/>
        <pt x="500" y="-10" on="1"/>
        <pt x="300" y="-10" on="0"/>
        <pt x="100" y="50" on="1"/>
        <pt x="100" y="150" on="1"/>
        <pt x="300" y="80" on="0"/>
        <pt x="500" y="80" on="1"/>
        <pt x="910" y="80" on="0"/>
        <pt x="910" y="400" on="1"/>
        <pt x="910" y="680" on="0"/>
        <pt x="578" y="680" on="1"/>
        <pt x="250" y="680" on="1"/>
        <pt x="250" y="770" on="1"/>
        <pt x="575" y="770" on="1"/>
        <pt x="910" y="770" on="0"/>
        <pt x="910" y="1050" on="1"/>
        <pt x="910" y="1350" on="0"/>
        <pt x="500" y="1350" on="1"/>
        <pt x="300" y="1350" on="0"/>
        <pt x="100" y="1280" on="1"/>
      </contour>
    </TTGlyph>
    <TTGlyph name="afii10026" xMin="160" yMin="0" xMax="1275" yMax="1430">
      <contour>
        <pt x="1170" y="0" on="1"/>
        <pt x="1170" y="1272" on="1"/>
        <pt x="275" y="0" on="1"/>
        <pt x="160" y="0" on="1"/>
        <pt x="160" y="1430" on="1"/>
        <pt x="265" y="1430" on="1"/>
        <pt x="265" y="158" on="1"/>
        <pt x="1160" y="1430" on="1"/>
        <pt x="1275" y="1430" on="1"/>
        <pt x="1275" y="0" on="1"/>
      </contour>
    </TTGlyph>
    <TTGlyph name="afii10027" xMin="160" yMin="0" xMax="1275" yMax="1784">
      <contour>
        <pt x="470" y="1784" on="1"/>
        <pt x="555" y="1784" on="1"/>
        <pt x="555" y="1604" on="0"/>
        <pt x="725" y="1604" on="1"/>
        <pt x="895" y="1604" on="0"/>
        <pt x="895" y="1784" on="1"/>
        <pt x="980" y="1784" on="1"/>
        <pt x="980" y="1524" on="0"/>
        <pt x="725" y="1524" on="1"/>
        <pt x="470" y="1524" on="0"/>
      </contour>
      <contour>
        <pt x="1170" y="0" on="1"/>
        <pt x="1170" y="1272" on="1"/>
        <pt x="275" y="0" on="1"/>
        <pt x="160" y="0" on="1"/>
        <pt x="160" y="1430" on="1"/>
        <pt x="265" y="1430" on="1"/>
        <pt x="265" y="158" on="1"/>
        <pt x="1160" y="1430" on="1"/>
        <pt x="1275" y="1430" on="1"/>
        <pt x="1275" y="0" on="1"/>
      </contour>
    </TTGlyph>
    <TTGlyph name="afii10028" xMin="160" yMin="0" xMax="1207" yMax="1430">
      <contour>
        <pt x="1018" y="0" on="1"/>
        <pt x="679" y="540" on="0"/>
        <pt x="503" y="723" on="0"/>
        <pt x="385" y="723" on="1"/>
        <pt x="385" y="796" on="1"/>
        <pt x="585" y="796" on="0"/>
        <pt x="912" y="1430" on="0"/>
        <pt x="1100" y="1430" on="1"/>
        <pt x="1207" y="1430" on="1"/>
        <pt x="1207" y="1340" on="1"/>
        <pt x="1128" y="1340" on="1"/>
        <pt x="970" y="1340" on="0"/>
        <pt x="682" y="797" on="0"/>
        <pt x="557" y="758" on="1"/>
        <pt x="632" y="745" on="0"/>
        <pt x="812" y="546" on="0"/>
        <pt x="1162" y="0" on="1"/>
      </contour>
      <contour>
        <pt x="265" y="1430" on="1"/>
        <pt x="265" y="0" on="1"/>
        <pt x="160" y="0" on="1"/>
        <pt x="160" y="1430" on="1"/>
      </contour>
    </TTGlyph>
    <TTGlyph name="afii10029" xMin="0" yMin="0" xMax="1274" yMax="1430">
      <contour>
        <pt x="0" y="90" on="1"/>
        <pt x="414" y="90" on="0"/>
        <pt x="414" y="800" on="1"/>
        <pt x="414" y="1430" on="1"/>
        <pt x="1274" y="1430" on="1"/>
        <pt x="1274" y="0" on="1"/>
        <pt x="1169" y="0" on="1"/>
        <pt x="1169" y="1340" on="1"/>
        <pt x="519" y="1340" on="1"/>
        <pt x="519" y="800" on="1"/>
        <pt x="519" y="0" on="0"/>
        <pt x="0" y="0" on="1"/>
      </contour>
    </TTGlyph>
    <TTGlyph name="afii10030" xMin="160" yMin="0" xMax="1610" yMax="1430">
      <component glyphName="M" x="0" y="0" flags="0x200"/>
    </TTGlyph>
    <TTGlyph name="afii10031" xMin="160" yMin="0" xMax="1265" yMax="1430">
      <contour>
        <pt x="160" y="0" on="1"/>
        <pt x="160" y="1430" on="1"/>
        <pt x="265" y="1430" on="1"/>
        <pt x="265" y="780" on="1"/>
        <pt x="1160" y="780" on="1"/>
        <pt x="1160" y="1430" on="1"/>
        <pt x="1265" y="1430" on="1"/>
        <pt x="1265" y="0" on="1"/>
        <pt x="1160" y="0" on="1"/>
        <pt x="1160" y="690" on="1"/>
        <pt x="265" y="690" on="1"/>
        <pt x="265" y="0" on="1"/>
      </contour>
    </TTGlyph>
    <TTGlyph name="afii10032" xMin="110" yMin="-10" xMax="1535" yMax="1440">
      <component glyphName="O" x="0" y="0" flags="0x200"/>
    </TTGlyph>
    <TTGlyph name="afii10033" xMin="160" yMin="0" xMax="1265" yMax="1430">
      <contour>
        <pt x="160" y="0" on="1"/>
        <pt x="160" y="1430" on="1"/>
        <pt x="1265" y="1430" on="1"/>
        <pt x="1265" y="0" on="1"/>
        <pt x="1160" y="0" on="1"/>
        <pt x="1160" y="1340" on="1"/>
        <pt x="265" y="1340" on="1"/>
        <pt x="265" y="0" on="1"/>
      </contour>
    </TTGlyph>
    <TTGlyph name="afii10034" xMin="160" yMin="0" xMax="1178" yMax="1430">
      <component glyphName="P" x="0" y="0" flags="0x200"/>
    </TTGlyph>
    <TTGlyph name="afii10035" xMin="110" yMin="-10" xMax="1260" yMax="1440">
      <component glyphName="C" x="0" y="0" flags="0x200"/>
    </TTGlyph>
    <TTGlyph name="afii10036" xMin="10" yMin="0" xMax="1085" yMax="1430">
      <component glyphName="T" x="0" y="0" flags="0x200"/>
    </TTGlyph>
    <TTGlyph name="afii10037" xMin="50" yMin="0" xMax="1282" yMax="1430">
      <contour>
        <pt x="1282" y="1430" on="1"/>
        <pt x="789" y="268" on="1"/>
        <pt x="675" y="0" on="0"/>
        <pt x="400" y="0" on="1"/>
        <pt x="272" y="0" on="0"/>
        <pt x="164" y="70" on="1"/>
        <pt x="164" y="160" on="1"/>
        <pt x="270" y="90" on="0"/>
        <pt x="397" y="90" on="1"/>
        <pt x="611" y="90" on="0"/>
        <pt x="674" y="271" on="1"/>
        <pt x="50" y="1430" on="1"/>
        <pt x="165" y="1430" on="1"/>
        <pt x="732" y="370" on="1"/>
        <pt x="1170" y="1430" on="1"/>
      </contour>
    </TTGlyph>
    <TTGlyph name="afii10038" xMin="100" yMin="0" xMax="1544" yMax="1430">
      <contour>
        <pt x="770" y="113" on="1"/>
        <pt x="100" y="150" on="0"/>
        <pt x="100" y="723" on="1"/>
        <pt x="100" y="1280" on="0"/>
        <pt x="770" y="1317" on="1"/>
        <pt x="770" y="1430" on="1"/>
        <pt x="874" y="1430" on="1"/>
        <pt x="874" y="1318" on="1"/>
        <pt x="1544" y="1284" on="0"/>
        <pt x="1544" y="723" on="1"/>
        <pt x="1544" y="145" on="0"/>
        <pt x="874" y="112" on="1"/>
        <pt x="874" y="0" on="1"/>
        <pt x="770" y="0" on="1"/>
      </contour>
      <contour>
        <pt x="770" y="204" on="1"/>
        <pt x="770" y="1226" on="1"/>
        <pt x="214" y="1190" on="0"/>
        <pt x="214" y="719" on="1"/>
        <pt x="214" y="241" on="0"/>
      </contour>
      <contour>
        <pt x="874" y="1227" on="1"/>
        <pt x="874" y="203" on="1"/>
        <pt x="1430" y="237" on="0"/>
        <pt x="1430" y="719" on="1"/>
        <pt x="1430" y="1194" on="0"/>
      </contour>
    </TTGlyph>
    <TTGlyph name="afii10039" xMin="25" yMin="0" xMax="1275" yMax="1430">
      <contour>
        <pt x="588" y="715" on="1"/>
        <pt x="25" y="1430" on="1"/>
        <pt x="150" y="1430" on="1"/>
        <pt x="650" y="794" on="1"/>
        <pt x="1150" y="1430" on="1"/>
        <pt x="1275" y="1430" on="1"/>
        <pt x="713" y="715" on="1"/>
        <pt x="1275" y="0" on="1"/>
        <pt x="1150" y="0" on="1"/>
        <pt x="650" y="636" on="1"/>
        <pt x="150" y="0" on="1"/>
        <pt x="25" y="0" on="1"/>
      </contour>
    </TTGlyph>
    <TTGlyph name="afii10040" xMin="160" yMin="-380" xMax="1377" yMax="1430">
      <contour>
        <pt x="160" y="0" on="1"/>
        <pt x="160" y="1430" on="1"/>
        <pt x="265" y="1430" on="1"/>
        <pt x="265" y="90" on="1"/>
        <pt x="1087" y="90" on="1"/>
        <pt x="1087" y="1430" on="1"/>
        <pt x="1192" y="1430" on="1"/>
        <pt x="1192" y="90" on="1"/>
        <pt x="1377" y="90" on="1"/>
        <pt x="1377" y="-380" on="1"/>
        <pt x="1272" y="-380" on="1"/>
        <pt x="1272" y="0" on="1"/>
      </contour>
    </TTGlyph>
    <TTGlyph name="afii10041" xMin="125" yMin="0" xMax="1158" yMax="1430">
      <contour>
        <pt x="1158" y="1430" on="1"/>
        <pt x="1158" y="0" on="1"/>
        <pt x="1053" y="0" on="1"/>
        <pt x="1053" y="634" on="1"/>
        <pt x="857" y="520" on="0"/>
        <pt x="624" y="520" on="1"/>
        <pt x="125" y="520" on="0"/>
        <pt x="125" y="1001" on="1"/>
        <pt x="125" y="1430" on="1"/>
        <pt x="230" y="1430" on="1"/>
        <pt x="230" y="998" on="1"/>
        <pt x="230" y="614" on="0"/>
        <pt x="629" y="614" on="1"/>
        <pt x="878" y="614" on="0"/>
        <pt x="1053" y="747" on="1"/>
        <pt x="1053" y="1430" on="1"/>
      </contour>
    </TTGlyph>
    <TTGlyph name="afii10042" xMin="160" yMin="0" xMax="1615" yMax="1430">
      <contour>
        <pt x="160" y="0" on="1"/>
        <pt x="160" y="1430" on="1"/>
        <pt x="265" y="1430" on="1"/>
        <pt x="265" y="90" on="1"/>
        <pt x="835" y="90" on="1"/>
        <pt x="835" y="1430" on="1"/>
        <pt x="940" y="1430" on="1"/>
        <pt x="940" y="90" on="1"/>
        <pt x="1510" y="90" on="1"/>
        <pt x="1510" y="1430" on="1"/>
        <pt x="1615" y="1430" on="1"/>
        <pt x="1615" y="0" on="1"/>
      </contour>
    </TTGlyph>
    <TTGlyph name="afii10043" xMin="160" yMin="-380" xMax="1800" yMax="1430">
      <contour>
        <pt x="160" y="0" on="1"/>
        <pt x="160" y="1430" on="1"/>
        <pt x="265" y="1430" on="1"/>
        <pt x="265" y="90" on="1"/>
        <pt x="835" y="90" on="1"/>
        <pt x="835" y="1430" on="1"/>
        <pt x="940" y="1430" on="1"/>
        <pt x="940" y="90" on="1"/>
        <pt x="1510" y="90" on="1"/>
        <pt x="1510" y="1430" on="1"/>
        <pt x="1615" y="1430" on="1"/>
        <pt x="1615" y="90" on="1"/>
        <pt x="1800" y="90" on="1"/>
        <pt x="1800" y="-380" on="1"/>
        <pt x="1695" y="-380" on="1"/>
        <pt x="1695" y="0" on="1"/>
      </contour>
    </TTGlyph>
    <TTGlyph name="afii10044" xMin="0" yMin="0" xMax="1610" yMax="1430">
      <contour>
        <pt x="687" y="1430" on="1"/>
        <pt x="687" y="93" on="1"/>
        <pt x="1185" y="93" on="1"/>
        <pt x="1493" y="93" on="0"/>
        <pt x="1493" y="402" on="1"/>
        <pt x="1493" y="730" on="0"/>
        <pt x="1131" y="730" on="1"/>
        <pt x="853" y="730" on="1"/>
        <pt x="853" y="820" on="1"/>
        <pt x="1131" y="820" on="1"/>
        <pt x="1610" y="820" on="0"/>
        <pt x="1610" y="413" on="1"/>
        <pt x="1610" y="0" on="0"/>
        <pt x="1192" y="0" on="1"/>
        <pt x="582" y="0" on="1"/>
        <pt x="582" y="1340" on="1"/>
        <pt x="0" y="1340" on="1"/>
        <pt x="0" y="1430" on="1"/>
      </contour>
    </TTGlyph>
    <TTGlyph name="afii10045" xMin="160" yMin="0" xMax="1485" yMax="1430">
      <contour>
        <pt x="265" y="1430" on="1"/>
        <pt x="265" y="93" on="1"/>
        <pt x="763" y="93" on="1"/>
        <pt x="1081" y="93" on="0"/>
        <pt x="1081" y="402" on="1"/>
        <pt x="1081" y="730" on="0"/>
        <pt x="709" y="730" on="1"/>
        <pt x="431" y="730" on="1"/>
        <pt x="431" y="820" on="1"/>
        <pt x="709" y="820" on="1"/>
        <pt x="1188" y="820" on="0"/>
        <pt x="1188" y="413" on="1"/>
        <pt x="1188" y="0" on="0"/>
        <pt x="770" y="0" on="1"/>
        <pt x="160" y="0" on="1"/>
        <pt x="160" y="1430" on="1"/>
      </contour>
      <contour>
        <pt x="1380" y="0" on="1"/>
        <pt x="1380" y="1430" on="1"/>
        <pt x="1485" y="1430" on="1"/>
        <pt x="1485" y="0" on="1"/>
      </contour>
    </TTGlyph>
    <TTGlyph name="afii10046" xMin="160" yMin="0" xMax="1188" yMax="1430">
      <contour>
        <pt x="265" y="1430" on="1"/>
        <pt x="265" y="93" on="1"/>
        <pt x="763" y="93" on="1"/>
        <pt x="1081" y="93" on="0"/>
        <pt x="1081" y="402" on="1"/>
        <pt x="1081" y="730" on="0"/>
        <pt x="709" y="730" on="1"/>
        <pt x="431" y="730" on="1"/>
        <pt x="431" y="820" on="1"/>
        <pt x="708" y="820" on="1"/>
        <pt x="1188" y="820" on="0"/>
        <pt x="1188" y="413" on="1"/>
        <pt x="1188" y="0" on="0"/>
        <pt x="770" y="0" on="1"/>
        <pt x="160" y="0" on="1"/>
        <pt x="160" y="1430" on="1"/>
      </contour>
    </TTGlyph>
    <TTGlyph name="afii10047" xMin="125" yMin="-10" xMax="1275" yMax="1440">
      <contour>
        <pt x="125" y="150" on="1"/>
        <pt x="310" y="80" on="0"/>
        <pt x="525" y="80" on="1"/>
        <pt x="1137" y="80" on="0"/>
        <pt x="1167" y="680" on="1"/>
        <pt x="197" y="680" on="1"/>
        <pt x="197" y="770" on="1"/>
        <pt x="1168" y="770" on="1"/>
        <pt x="1145" y="1350" on="0"/>
        <pt x="525" y="1350" on="1"/>
        <pt x="310" y="1350" on="0"/>
        <pt x="125" y="1280" on="1"/>
        <pt x="125" y="1380" on="1"/>
        <pt x="310" y="1440" on="0"/>
        <pt x="525" y="1440" on="1"/>
        <pt x="1275" y="1440" on="0"/>
        <pt x="1275" y="735" on="1"/>
        <pt x="1275" y="-10" on="0"/>
        <pt x="525" y="-10" on="1"/>
        <pt x="310" y="-10" on="0"/>
        <pt x="125" y="50" on="1"/>
      </contour>
    </TTGlyph>
    <TTGlyph name="afii10048" xMin="160" yMin="-10" xMax="1912" yMax="1440">
      <contour>
        <pt x="160" y="0" on="1"/>
        <pt x="160" y="1430" on="1"/>
        <pt x="264" y="1430" on="1"/>
        <pt x="264" y="770" on="1"/>
        <pt x="759" y="770" on="1"/>
        <pt x="783" y="1440" on="0"/>
        <pt x="1335" y="1440" on="1"/>
        <pt x="1912" y="1440" on="0"/>
        <pt x="1912" y="723" on="1"/>
        <pt x="1912" y="-10" on="0"/>
        <pt x="1335" y="-10" on="1"/>
        <pt x="773" y="-10" on="0"/>
        <pt x="758" y="680" on="1"/>
        <pt x="264" y="680" on="1"/>
        <pt x="264" y="0" on="1"/>
      </contour>
      <contour>
        <pt x="1335" y="80" on="1"/>
        <pt x="1797" y="80" on="0"/>
        <pt x="1797" y="719" on="1"/>
        <pt x="1797" y="1350" on="0"/>
        <pt x="1335" y="1350" on="1"/>
        <pt x="862" y="1350" on="0"/>
        <pt x="862" y="719" on="1"/>
        <pt x="862" y="80" on="0"/>
      </contour>
    </TTGlyph>
    <TTGlyph name="afii10049" xMin="25" yMin="0" xMax="1065" yMax="1430">
      <contour>
        <pt x="960" y="0" on="1"/>
        <pt x="960" y="1337" on="1"/>
        <pt x="492" y="1337" on="1"/>
        <pt x="204" y="1337" on="0"/>
        <pt x="204" y="1079" on="1"/>
        <pt x="204" y="799" on="0"/>
        <pt x="644" y="734" on="1"/>
        <pt x="644" y="663" on="1"/>
        <pt x="169" y="0" on="1"/>
        <pt x="25" y="0" on="1"/>
        <pt x="508" y="666" on="1"/>
        <pt x="87" y="790" on="0"/>
        <pt x="87" y="1087" on="1"/>
        <pt x="87" y="1430" on="0"/>
        <pt x="475" y="1430" on="1"/>
        <pt x="1065" y="1430" on="1"/>
        <pt x="1065" y="0" on="1"/>
      </contour>
    </TTGlyph>
    <TTGlyph name="afii10065" xMin="100" yMin="0" xMax="935" yMax="1050">
      <component glyphName="a" x="0" y="0" flags="0x200"/>
    </TTGlyph>
    <TTGlyph name="afii10066" xMin="125" yMin="-10" xMax="1086" yMax="1539">
      <contour>
        <pt x="1086" y="520" on="1"/>
        <pt x="1086" y="-10" on="0"/>
        <pt x="608" y="-10" on="1"/>
        <pt x="125" y="-10" on="0"/>
        <pt x="125" y="520" on="1"/>
        <pt x="125" y="845" on="1"/>
        <pt x="125" y="1430" on="0"/>
        <pt x="659" y="1430" on="1"/>
        <pt x="881" y="1430" on="0"/>
        <pt x="1052" y="1539" on="1"/>
        <pt x="1052" y="1436" on="1"/>
        <pt x="899" y="1340" on="0"/>
        <pt x="656" y="1340" on="1"/>
        <pt x="235" y="1340" on="0"/>
        <pt x="235" y="855" on="1"/>
        <pt x="356" y="1050" on="0"/>
        <pt x="618" y="1050" on="1"/>
        <pt x="1086" y="1050" on="0"/>
        <pt x="1086" y="544" on="1"/>
      </contour>
      <contour>
        <pt x="608" y="80" on="1"/>
        <pt x="980" y="80" on="0"/>
        <pt x="980" y="520" on="1"/>
        <pt x="980" y="954" on="0"/>
        <pt x="618" y="954" on="1"/>
        <pt x="235" y="954" on="0"/>
        <pt x="235" y="520" on="1"/>
        <pt x="235" y="80" on="0"/>
      </contour>
    </TTGlyph>
    <TTGlyph name="afii10067" xMin="150" yMin="0" xMax="986" yMax="1050">
      <contour>
        <pt x="658" y="90" on="1"/>
        <pt x="874" y="90" on="0"/>
        <pt x="874" y="290" on="1"/>
        <pt x="874" y="490" on="0"/>
        <pt x="621" y="490" on="1"/>
        <pt x="461" y="490" on="1"/>
        <pt x="461" y="571" on="1"/>
        <pt x="861" y="586" on="0"/>
        <pt x="861" y="800" on="1"/>
        <pt x="861" y="960" on="0"/>
        <pt x="683" y="960" on="1"/>
        <pt x="255" y="960" on="1"/>
        <pt x="255" y="90" on="1"/>
      </contour>
      <contour>
        <pt x="150" y="0" on="1"/>
        <pt x="150" y="1050" on="1"/>
        <pt x="690" y="1050" on="1"/>
        <pt x="968" y="1050" on="0"/>
        <pt x="968" y="797" on="1"/>
        <pt x="968" y="624" on="0"/>
        <pt x="772" y="545" on="1"/>
        <pt x="986" y="492" on="0"/>
        <pt x="986" y="293" on="1"/>
        <pt x="986" y="0" on="0"/>
        <pt x="669" y="0" on="1"/>
      </contour>
    </TTGlyph>
    <TTGlyph name="afii10068" xMin="150" yMin="0" xMax="768" yMax="1050">
      <contour>
        <pt x="150" y="0" on="1"/>
        <pt x="150" y="1050" on="1"/>
        <pt x="768" y="1050" on="1"/>
        <pt x="768" y="960" on="1"/>
        <pt x="255" y="960" on="1"/>
        <pt x="255" y="0" on="1"/>
      </contour>
    </TTGlyph>
    <TTGlyph name="afii10069" xMin="0" yMin="-380" xMax="1273" yMax="1050">
      <contour>
        <pt x="374" y="90" on="1"/>
        <pt x="983" y="90" on="1"/>
        <pt x="983" y="960" on="1"/>
        <pt x="533" y="960" on="1"/>
        <pt x="533" y="341" on="0"/>
      </contour>
      <contour>
        <pt x="0" y="-380" on="1"/>
        <pt x="0" y="90" on="1"/>
        <pt x="184" y="90" on="1"/>
        <pt x="428" y="90" on="0"/>
        <pt x="428" y="960" on="1"/>
        <pt x="428" y="1050" on="1"/>
        <pt x="1088" y="1050" on="1"/>
        <pt x="1088" y="90" on="1"/>
        <pt x="1273" y="90" on="1"/>
        <pt x="1273" y="-380" on="1"/>
        <pt x="1168" y="-380" on="1"/>
        <pt x="1168" y="0" on="1"/>
        <pt x="104" y="0" on="1"/>
        <pt x="104" y="-380" on="1"/>
      </contour>
    </TTGlyph>
    <TTGlyph name="afii10070" xMin="110" yMin="0" xMax="1014" yMax="1050">
      <component glyphName="e" x="0" y="0" flags="0x200"/>
    </TTGlyph>
    <TTGlyph name="afii10071" xMin="110" yMin="0" xMax="1014" yMax="1410">
      <component glyphName="e" x="0" y="0" flags="0x200"/>
      <component glyphName="dieresis" x="275" y="0" flags="0x0"/>
    </TTGlyph>
    <TTGlyph name="afii10072" xMin="25" yMin="0" xMax="1545" yMax="1050">
      <contour>
        <pt x="30" y="0" on="1"/>
        <pt x="196" y="264" on="1"/>
        <pt x="361" y="527" on="0"/>
        <pt x="469" y="558" on="1"/>
        <pt x="344" y="597" on="0"/>
        <pt x="222" y="960" on="0"/>
        <pt x="104" y="960" on="1"/>
        <pt x="25" y="960" on="1"/>
        <pt x="25" y="1050" on="1"/>
        <pt x="102" y="1050" on="1"/>
        <pt x="300" y="1050" on="0"/>
        <pt x="447" y="586" on="0"/>
        <pt x="637" y="586" on="1"/>
        <pt x="637" y="523" on="1"/>
        <pt x="459" y="523" on="0"/>
        <pt x="311" y="246" on="1"/>
        <pt x="164" y="0" on="1"/>
      </contour>
      <contour>
        <pt x="836" y="1050" on="1"/>
        <pt x="836" y="0" on="1"/>
        <pt x="731" y="0" on="1"/>
        <pt x="731" y="1050" on="1"/>
      </contour>
      <contour>
        <pt x="1406" y="0" on="1"/>
        <pt x="1259" y="246" on="1"/>
        <pt x="1111" y="523" on="0"/>
        <pt x="933" y="523" on="1"/>
        <pt x="933" y="586" on="1"/>
        <pt x="1123" y="586" on="0"/>
        <pt x="1270" y="1050" on="0"/>
        <pt x="1468" y="1050" on="1"/>
        <pt x="1545" y="1050" on="1"/>
        <pt x="1545" y="960" on="1"/>
        <pt x="1466" y="960" on="1"/>
        <pt x="1348" y="960" on="0"/>
        <pt x="1226" y="597" on="0"/>
        <pt x="1101" y="558" on="1"/>
        <pt x="1209" y="527" on="0"/>
        <pt x="1374" y="264" on="1"/>
        <pt x="1540" y="0" on="1"/>
      </contour>
    </TTGlyph>
    <TTGlyph name="afii10073" xMin="100" yMin="-10" xMax="865" yMax="1060">
      <contour>
        <pt x="100" y="1000" on="1"/>
        <pt x="300" y="1060" on="0"/>
        <pt x="450" y="1060" on="1"/>
        <pt x="865" y="1060" on="0"/>
        <pt x="865" y="768" on="1"/>
        <pt x="865" y="614" on="0"/>
        <pt x="727" y="535" on="1"/>
        <pt x="865" y="460" on="0"/>
        <pt x="865" y="310" on="1"/>
        <pt x="865" y="-10" on="0"/>
        <pt x="450" y="-10" on="1"/>
        <pt x="300" y="-10" on="0"/>
        <pt x="100" y="50" on="1"/>
        <pt x="100" y="150" on="1"/>
        <pt x="300" y="80" on="0"/>
        <pt x="450" y="80" on="1"/>
        <pt x="760" y="80" on="0"/>
        <pt x="760" y="310" on="1"/>
        <pt x="760" y="490" on="0"/>
        <pt x="528" y="490" on="1"/>
        <pt x="200" y="490" on="1"/>
        <pt x="200" y="580" on="1"/>
        <pt x="525" y="580" on="1"/>
        <pt x="760" y="580" on="0"/>
        <pt x="760" y="768" on="1"/>
        <pt x="760" y="970" on="0"/>
        <pt x="450" y="970" on="1"/>
        <pt x="300" y="970" on="0"/>
        <pt x="100" y="900" on="1"/>
      </contour>
    </TTGlyph>
    <TTGlyph name="afii10074" xMin="150" yMin="0" xMax="995" yMax="1050">
      <contour>
        <pt x="900" y="0" on="1"/>
        <pt x="900" y="912" on="1"/>
        <pt x="255" y="0" on="1"/>
        <pt x="150" y="0" on="1"/>
        <pt x="150" y="1050" on="1"/>
        <pt x="245" y="1050" on="1"/>
        <pt x="245" y="138" on="1"/>
        <pt x="890" y="1050" on="1"/>
        <pt x="995" y="1050" on="1"/>
        <pt x="995" y="0" on="1"/>
      </contour>
    </TTGlyph>
    <TTGlyph name="afii10075" xMin="150" yMin="0" xMax="995" yMax="1430">
      <component glyphName="afii10074" x="0" y="0" flags="0x200"/>
      <component glyphName="breve" x="218" y="0" flags="0x0"/>
    </TTGlyph>
    <TTGlyph name="afii10076" xMin="150" yMin="0" xMax="964" yMax="1050">
      <contour>
        <pt x="255" y="1050" on="1"/>
        <pt x="255" y="0" on="1"/>
        <pt x="150" y="0" on="1"/>
        <pt x="150" y="1050" on="1"/>
      </contour>
      <contour>
        <pt x="825" y="0" on="1"/>
        <pt x="678" y="246" on="1"/>
        <pt x="530" y="523" on="0"/>
        <pt x="352" y="523" on="1"/>
        <pt x="352" y="586" on="1"/>
        <pt x="542" y="586" on="0"/>
        <pt x="689" y="1050" on="0"/>
        <pt x="887" y="1050" on="1"/>
        <pt x="964" y="1050" on="1"/>
        <pt x="964" y="960" on="1"/>
        <pt x="885" y="960" on="1"/>
        <pt x="767" y="960" on="0"/>
        <pt x="645" y="597" on="0"/>
        <pt x="520" y="558" on="1"/>
        <pt x="628" y="527" on="0"/>
        <pt x="793" y="264" on="1"/>
        <pt x="959" y="0" on="1"/>
      </contour>
    </TTGlyph>
    <TTGlyph name="afii10077" xMin="0" yMin="0" xMax="957" yMax="1050">
      <contour>
        <pt x="0" y="90" on="1"/>
        <pt x="237" y="90" on="0"/>
        <pt x="237" y="420" on="1"/>
        <pt x="237" y="1050" on="1"/>
        <pt x="957" y="1050" on="1"/>
        <pt x="957" y="0" on="1"/>
        <pt x="852" y="0" on="1"/>
        <pt x="852" y="960" on="1"/>
        <pt x="342" y="960" on="1"/>
        <pt x="342" y="420" on="1"/>
        <pt x="342" y="0" on="0"/>
        <pt x="0" y="0" on="1"/>
      </contour>
    </TTGlyph>
    <TTGlyph name="afii10078" xMin="150" yMin="0" xMax="1270" yMax="1050">
      <contour>
        <pt x="150" y="0" on="1"/>
        <pt x="150" y="1050" on="1"/>
        <pt x="255" y="1050" on="1"/>
        <pt x="717" y="104" on="1"/>
        <pt x="1165" y="1050" on="1"/>
        <pt x="1270" y="1050" on="1"/>
        <pt x="1270" y="0" on="1"/>
        <pt x="1175" y="0" on="1"/>
        <pt x="1175" y="863" on="1"/>
        <pt x="757" y="0" on="1"/>
        <pt x="671" y="0" on="1"/>
        <pt x="245" y="863" on="1"/>
        <pt x="245" y="0" on="1"/>
      </contour>
    </TTGlyph>
    <TTGlyph name="afii10079" xMin="150" yMin="0" xMax="995" yMax="1050">
      <contour>
        <pt x="150" y="0" on="1"/>
        <pt x="150" y="1050" on="1"/>
        <pt x="255" y="1050" on="1"/>
        <pt x="255" y="580" on="1"/>
        <pt x="890" y="580" on="1"/>
        <pt x="890" y="1050" on="1"/>
        <pt x="995" y="1050" on="1"/>
        <pt x="995" y="0" on="1"/>
        <pt x="890" y="0" on="1"/>
        <pt x="890" y="490" on="1"/>
        <pt x="255" y="490" on="1"/>
        <pt x="255" y="0" on="1"/>
      </contour>
    </TTGlyph>
    <TTGlyph name="afii10080" xMin="100" yMin="-10" xMax="1100" yMax="1060">
      <contour>
        <pt x="100" y="525" on="1"/>
        <pt x="100" y="1060" on="0"/>
        <pt x="600" y="1060" on="1"/>
        <pt x="1100" y="1060" on="0"/>
        <pt x="1100" y="525" on="1"/>
        <pt x="1100" y="-10" on="0"/>
        <pt x="600" y="-10" on="1"/>
        <pt x="102" y="-10" on="0"/>
      </contour>
      <contour>
        <pt x="205" y="80" on="0"/>
        <pt x="600" y="80" on="1"/>
        <pt x="995" y="80" on="0"/>
        <pt x="995" y="529" on="1"/>
        <pt x="995" y="970" on="0"/>
        <pt x="600" y="970" on="1"/>
        <pt x="205" y="970" on="0"/>
        <pt x="205" y="529" on="1"/>
      </contour>
    </TTGlyph>
    <TTGlyph name="afii10081" xMin="150" yMin="0" xMax="995" yMax="1050">
      <contour>
        <pt x="150" y="0" on="1"/>
        <pt x="150" y="1050" on="1"/>
        <pt x="995" y="1050" on="1"/>
        <pt x="995" y="0" on="1"/>
        <pt x="890" y="0" on="1"/>
        <pt x="890" y="960" on="1"/>
        <pt x="255" y="960" on="1"/>
        <pt x="255" y="0" on="1"/>
      </contour>
    </TTGlyph>
    <TTGlyph name="afii10082" xMin="150" yMin="-380" xMax="1087" yMax="1050">
      <contour>
        <pt x="255" y="154" on="1"/>
        <pt x="444" y="100" on="0"/>
        <pt x="578" y="100" on="1"/>
        <pt x="985" y="100" on="0"/>
        <pt x="985" y="553" on="1"/>
        <pt x="985" y="956" on="0"/>
        <pt x="580" y="956" on="1"/>
        <pt x="440" y="956" on="0"/>
        <pt x="255" y="932" on="1"/>
      </contour>
      <contour>
        <pt x="150" y="1007" on="1"/>
        <pt x="359" y="1050" on="0"/>
        <pt x="582" y="1050" on="1"/>
        <pt x="1087" y="1050" on="0"/>
        <pt x="1087" y="551" on="1"/>
        <pt x="1087" y="0" on="0"/>
        <pt x="579" y="0" on="1"/>
        <pt x="453" y="0" on="0"/>
        <pt x="255" y="50" on="1"/>
        <pt x="255" y="-380" on="1"/>
        <pt x="150" y="-380" on="1"/>
      </contour>
    </TTGlyph>
    <TTGlyph name="afii10083" xMin="110" yMin="0" xMax="920" yMax="1050">
      <component glyphName="c" x="0" y="0" flags="0x200"/>
    </TTGlyph>
    <TTGlyph name="afii10084" xMin="0" yMin="0" xMax="845" yMax="1050">
      <contour>
        <pt x="845" y="1050" on="1"/>
        <pt x="845" y="960" on="1"/>
        <pt x="475" y="960" on="1"/>
        <pt x="475" y="0" on="1"/>
        <pt x="370" y="0" on="1"/>
        <pt x="370" y="960" on="1"/>
        <pt x="0" y="960" on="1"/>
        <pt x="0" y="1050" on="1"/>
      </contour>
    </TTGlyph>
    <TTGlyph name="afii10085" xMin="25" yMin="-388" xMax="1036" yMax="1050">
      <contour>
        <pt x="25" y="1050" on="1"/>
        <pt x="146" y="1050" on="1"/>
        <pt x="536" y="102" on="1"/>
        <pt x="920" y="1050" on="1"/>
        <pt x="1036" y="1050" on="1"/>
        <pt x="580" y="-31" on="1"/>
        <pt x="464" y="-317" on="0"/>
        <pt x="232" y="-388" on="1"/>
        <pt x="201" y="-304" on="1"/>
        <pt x="383" y="-238" on="0"/>
        <pt x="479" y="-16" on="1"/>
      </contour>
    </TTGlyph>
    <TTGlyph name="afii10086" xMin="100" yMin="-380" xMax="1544" yMax="1430">
      <contour>
        <pt x="770" y="-7" on="1"/>
        <pt x="100" y="27" on="0"/>
        <pt x="100" y="533" on="1"/>
        <pt x="100" y="1023" on="0"/>
        <pt x="770" y="1057" on="1"/>
        <pt x="770" y="1430" on="1"/>
        <pt x="874" y="1430" on="1"/>
        <pt x="874" y="1058" on="1"/>
        <pt x="1544" y="1027" on="0"/>
        <pt x="1544" y="533" on="1"/>
        <pt x="1544" y="23" on="0"/>
        <pt x="874" y="-8" on="1"/>
        <pt x="874" y="-380" on="1"/>
        <pt x="770" y="-380" on="1"/>
      </contour>
      <contour>
        <pt x="770" y="84" on="1"/>
        <pt x="770" y="966" on="1"/>
        <pt x="214" y="933" on="0"/>
        <pt x="214" y="529" on="1"/>
        <pt x="214" y="118" on="0"/>
      </contour>
      <contour>
        <pt x="874" y="967" on="1"/>
        <pt x="874" y="83" on="1"/>
        <pt x="1430" y="113" on="0"/>
        <pt x="1430" y="529" on="1"/>
        <pt x="1430" y="937" on="0"/>
      </contour>
    </TTGlyph>
    <TTGlyph name="afii10087" xMin="25" yMin="0" xMax="965" yMax="1050">
      <contour>
        <pt x="433" y="525" on="1"/>
        <pt x="25" y="1050" on="1"/>
        <pt x="150" y="1050" on="1"/>
        <pt x="495" y="606" on="1"/>
        <pt x="840" y="1050" on="1"/>
        <pt x="965" y="1050" on="1"/>
        <pt x="558" y="525" on="1"/>
        <pt x="965" y="0" on="1"/>
        <pt x="840" y="0" on="1"/>
        <pt x="495" y="444" on="1"/>
        <pt x="150" y="0" on="1"/>
        <pt x="25" y="0" on="1"/>
      </contour>
    </TTGlyph>
    <TTGlyph name="afii10088" xMin="150" yMin="-380" xMax="1206" yMax="1050">
      <contour>
        <pt x="150" y="0" on="1"/>
        <pt x="150" y="1050" on="1"/>
        <pt x="255" y="1050" on="1"/>
        <pt x="255" y="90" on="1"/>
        <pt x="916" y="90" on="1"/>
        <pt x="916" y="1050" on="1"/>
        <pt x="1021" y="1050" on="1"/>
        <pt x="1021" y="90" on="1"/>
        <pt x="1206" y="90" on="1"/>
        <pt x="1206" y="-380" on="1"/>
        <pt x="1101" y="-380" on="1"/>
        <pt x="1101" y="0" on="1"/>
      </contour>
    </TTGlyph>
    <TTGlyph name="afii10089" xMin="125" yMin="0" xMax="988" yMax="1050">
      <contour>
        <pt x="988" y="1050" on="1"/>
        <pt x="988" y="0" on="1"/>
        <pt x="883" y="0" on="1"/>
        <pt x="883" y="414" on="1"/>
        <pt x="737" y="300" on="0"/>
        <pt x="534" y="300" on="1"/>
        <pt x="125" y="300" on="0"/>
        <pt x="125" y="711" on="1"/>
        <pt x="125" y="1050" on="1"/>
        <pt x="230" y="1050" on="1"/>
        <pt x="230" y="708" on="1"/>
        <pt x="230" y="394" on="0"/>
        <pt x="539" y="394" on="1"/>
        <pt x="758" y="394" on="0"/>
        <pt x="883" y="527" on="1"/>
        <pt x="883" y="1050" on="1"/>
      </contour>
    </TTGlyph>
    <TTGlyph name="afii10090" xMin="150" yMin="0" xMax="1405" yMax="1050">
      <contour>
        <pt x="150" y="0" on="1"/>
        <pt x="150" y="1050" on="1"/>
        <pt x="255" y="1050" on="1"/>
        <pt x="255" y="90" on="1"/>
        <pt x="725" y="90" on="1"/>
        <pt x="725" y="1050" on="1"/>
        <pt x="830" y="1050" on="1"/>
        <pt x="830" y="90" on="1"/>
        <pt x="1300" y="90" on="1"/>
        <pt x="1300" y="1050" on="1"/>
        <pt x="1405" y="1050" on="1"/>
        <pt x="1405" y="0" on="1"/>
      </contour>
    </TTGlyph>
    <TTGlyph name="afii10091" xMin="150" yMin="-380" xMax="1590" yMax="1050">
      <contour>
        <pt x="150" y="0" on="1"/>
        <pt x="150" y="1050" on="1"/>
        <pt x="255" y="1050" on="1"/>
        <pt x="255" y="90" on="1"/>
        <pt x="725" y="90" on="1"/>
        <pt x="725" y="1050" on="1"/>
        <pt x="830" y="1050" on="1"/>
        <pt x="830" y="90" on="1"/>
        <pt x="1300" y="90" on="1"/>
        <pt x="1300" y="1050" on="1"/>
        <pt x="1405" y="1050" on="1"/>
        <pt x="1405" y="90" on="1"/>
        <pt x="1590" y="90" on="1"/>
        <pt x="1590" y="-380" on="1"/>
        <pt x="1485" y="-380" on="1"/>
        <pt x="1485" y="0" on="1"/>
      </contour>
    </TTGlyph>
    <TTGlyph name="afii10092" xMin="0" yMin="0" xMax="1252" yMax="1050">
      <contour>
        <pt x="489" y="1050" on="1"/>
        <pt x="489" y="93" on="1"/>
        <pt x="877" y="93" on="1"/>
        <pt x="1145" y="93" on="0"/>
        <pt x="1145" y="322" on="1"/>
        <pt x="1145" y="519" on="0"/>
        <pt x="893" y="519" on="1"/>
        <pt x="625" y="519" on="1"/>
        <pt x="625" y="609" on="1"/>
        <pt x="893" y="609" on="1"/>
        <pt x="1252" y="609" on="0"/>
        <pt x="1252" y="313" on="1"/>
        <pt x="1252" y="0" on="0"/>
        <pt x="884" y="0" on="1"/>
        <pt x="384" y="0" on="1"/>
        <pt x="384" y="960" on="1"/>
        <pt x="0" y="960" on="1"/>
        <pt x="0" y="1050" on="1"/>
      </contour>
    </TTGlyph>
    <TTGlyph name="afii10093" xMin="150" yMin="0" xMax="1300" yMax="1050">
      <contour>
        <pt x="1175" y="0" on="1"/>
        <pt x="1175" y="1050" on="1"/>
        <pt x="1300" y="1050" on="1"/>
        <pt x="1300" y="0" on="1"/>
      </contour>
      <contour>
        <pt x="255" y="1050" on="1"/>
        <pt x="255" y="93" on="1"/>
        <pt x="663" y="93" on="1"/>
        <pt x="911" y="93" on="0"/>
        <pt x="911" y="322" on="1"/>
        <pt x="911" y="519" on="0"/>
        <pt x="659" y="519" on="1"/>
        <pt x="391" y="519" on="1"/>
        <pt x="391" y="609" on="1"/>
        <pt x="658" y="609" on="1"/>
        <pt x="1018" y="609" on="0"/>
        <pt x="1018" y="313" on="1"/>
        <pt x="1018" y="0" on="0"/>
        <pt x="670" y="0" on="1"/>
        <pt x="150" y="0" on="1"/>
        <pt x="150" y="1050" on="1"/>
      </contour>
    </TTGlyph>
    <TTGlyph name="afii10094" xMin="150" yMin="0" xMax="1018" yMax="1050">
      <contour>
        <pt x="255" y="1050" on="1"/>
        <pt x="255" y="93" on="1"/>
        <pt x="663" y="93" on="1"/>
        <pt x="911" y="93" on="0"/>
        <pt x="911" y="322" on="1"/>
        <pt x="911" y="519" on="0"/>
        <pt x="659" y="519" on="1"/>
        <pt x="391" y="519" on="1"/>
        <pt x="391" y="609" on="1"/>
        <pt x="658" y="609" on="1"/>
        <pt x="1018" y="609" on="0"/>
        <pt x="1018" y="313" on="1"/>
        <pt x="1018" y="0" on="0"/>
        <pt x="670" y="0" on="1"/>
        <pt x="150" y="0" on="1"/>
        <pt x="150" y="1050" on="1"/>
      </contour>
    </TTGlyph>
    <TTGlyph name="afii10095" xMin="100" yMin="0" xMax="950" yMax="1050">
      <contour>
        <pt x="100" y="120" on="1"/>
        <pt x="230" y="90" on="0"/>
        <pt x="380" y="90" on="1"/>
        <pt x="819" y="90" on="0"/>
        <pt x="840" y="491" on="1"/>
        <pt x="164" y="491" on="1"/>
        <pt x="164" y="581" on="1"/>
        <pt x="841" y="581" on="1"/>
        <pt x="825" y="960" on="0"/>
        <pt x="370" y="960" on="1"/>
        <pt x="230" y="960" on="0"/>
        <pt x="100" y="930" on="1"/>
        <pt x="100" y="1020" on="1"/>
        <pt x="230" y="1050" on="0"/>
        <pt x="380" y="1050" on="1"/>
        <pt x="950" y="1050" on="0"/>
        <pt x="950" y="545" on="1"/>
        <pt x="950" y="0" on="0"/>
        <pt x="380" y="0" on="1"/>
        <pt x="230" y="0" on="0"/>
        <pt x="100" y="30" on="1"/>
      </contour>
    </TTGlyph>
    <TTGlyph name="afii10096" xMin="150" yMin="-10" xMax="1602" yMax="1060">
      <contour>
        <pt x="1145" y="80" on="1"/>
        <pt x="1487" y="80" on="0"/>
        <pt x="1487" y="529" on="1"/>
        <pt x="1487" y="970" on="0"/>
        <pt x="1145" y="970" on="1"/>
        <pt x="792" y="970" on="0"/>
        <pt x="792" y="529" on="1"/>
        <pt x="792" y="80" on="0"/>
      </contour>
      <contour>
        <pt x="150" y="0" on="1"/>
        <pt x="150" y="1050" on="1"/>
        <pt x="254" y="1050" on="1"/>
        <pt x="254" y="580" on="1"/>
        <pt x="680" y="580" on="1"/>
        <pt x="707" y="1060" on="0"/>
        <pt x="1145" y="1060" on="1"/>
        <pt x="1602" y="1060" on="0"/>
        <pt x="1602" y="523" on="1"/>
        <pt x="1602" y="-10" on="0"/>
        <pt x="1145" y="-10" on="1"/>
        <pt x="696" y="-10" on="0"/>
        <pt x="679" y="490" on="1"/>
        <pt x="254" y="490" on="1"/>
        <pt x="254" y="0" on="1"/>
      </contour>
    </TTGlyph>
    <TTGlyph name="afii10097" xMin="25" yMin="0" xMax="915" yMax="1050">
      <contour>
        <pt x="810" y="0" on="1"/>
        <pt x="810" y="957" on="1"/>
        <pt x="432" y="957" on="1"/>
        <pt x="224" y="957" on="0"/>
        <pt x="224" y="779" on="1"/>
        <pt x="224" y="599" on="0"/>
        <pt x="524" y="544" on="1"/>
        <pt x="524" y="453" on="1"/>
        <pt x="164" y="0" on="1"/>
        <pt x="25" y="0" on="1"/>
        <pt x="411" y="477" on="1"/>
        <pt x="117" y="546" on="0"/>
        <pt x="117" y="777" on="1"/>
        <pt x="117" y="1050" on="0"/>
        <pt x="435" y="1050" on="1"/>
        <pt x="915" y="1050" on="1"/>
        <pt x="915" y="0" on="1"/>
      </contour>
    </TTGlyph>
    <TTGlyph name="agrave" xMin="100" yMin="0" xMax="935" yMax="1430">
      <component glyphName="a" x="0" y="0" flags="0x200"/>
      <component glyphName="grave" x="262" y="0" flags="0x0"/>
    </TTGlyph>
    <TTGlyph name="alpha" xMin="100" yMin="0" xMax="1279" yMax="1050">
      <contour>
        <pt x="100" y="525" on="1"/>
        <pt x="100" y="1050" on="0"/>
        <pt x="540" y="1050" on="1"/>
        <pt x="871" y="1050" on="0"/>
        <pt x="1017" y="625" on="1"/>
        <pt x="1172" y="1050" on="1"/>
        <pt x="1279" y="1050" on="1"/>
        <pt x="1071" y="522" on="1"/>
        <pt x="1265" y="0" on="1"/>
        <pt x="1155" y="0" on="1"/>
        <pt x="1015" y="406" on="1"/>
        <pt x="836" y="0" on="0"/>
        <pt x="540" y="0" on="1"/>
        <pt x="102" y="0" on="0"/>
      </contour>
      <contour>
        <pt x="205" y="90" on="0"/>
        <pt x="540" y="90" on="1"/>
        <pt x="785" y="90" on="0"/>
        <pt x="965" y="529" on="1"/>
        <pt x="795" y="960" on="0"/>
        <pt x="540" y="960" on="1"/>
        <pt x="205" y="960" on="0"/>
        <pt x="205" y="529" on="1"/>
      </contour>
    </TTGlyph>
    <TTGlyph name="alphatonos" xMin="100" yMin="0" xMax="1279" yMax="1430">
      <component glyphName="alpha" x="0" y="0" flags="0x200"/>
      <component glyphName="tonos" x="462" y="0" flags="0x0"/>
    </TTGlyph>
    <TTGlyph name="amacron" xMin="100" yMin="0" xMax="935" yMax="1430">
      <component glyphName="a" x="0" y="0" flags="0x200"/>
      <component glyphName="macron" x="208" y="0" flags="0x0"/>
    </TTGlyph>
    <TTGlyph name="ampersand" xMin="110" yMin="-3" xMax="1285" yMax="1430">
      <contour>
        <pt x="110" y="1045" on="1"/>
        <pt x="110" y="1430" on="0"/>
        <pt x="620" y="1430" on="1"/>
        <pt x="805" y="1430" on="0"/>
        <pt x="980" y="1380" on="1"/>
        <pt x="980" y="1290" on="1"/>
        <pt x="795" y="1340" on="0"/>
        <pt x="623" y="1340" on="1"/>
        <pt x="215" y="1340" on="0"/>
        <pt x="215" y="1050" on="1"/>
        <pt x="215" y="770" on="0"/>
        <pt x="550" y="770" on="1"/>
        <pt x="1018" y="770" on="1"/>
        <pt x="1018" y="942" on="1"/>
        <pt x="1091" y="942" on="1"/>
        <pt x="1113" y="770" on="1"/>
        <pt x="1285" y="770" on="1"/>
        <pt x="1285" y="680" on="1"/>
        <pt x="1123" y="680" on="1"/>
        <pt x="1123" y="490" on="1"/>
        <pt x="1123" y="-3" on="0"/>
        <pt x="605" y="-3" on="1"/>
        <pt x="110" y="-3" on="0"/>
        <pt x="110" y="394" on="1"/>
        <pt x="110" y="641" on="0"/>
        <pt x="333" y="727" on="1"/>
        <pt x="110" y="792" on="0"/>
      </contour>
      <contour>
        <pt x="552" y="680" on="1"/>
        <pt x="215" y="680" on="0"/>
        <pt x="215" y="399" on="1"/>
        <pt x="215" y="90" on="0"/>
        <pt x="596" y="90" on="1"/>
        <pt x="1018" y="90" on="0"/>
        <pt x="1018" y="492" on="1"/>
        <pt x="1018" y="680" on="1"/>
      </contour>
    </TTGlyph>
    <TTGlyph name="anoteleia" xMin="111" yMin="925" xMax="246" yMax="1050">
      <contour>
        <pt x="246" y="1050" on="1"/>
        <pt x="246" y="925" on="1"/>
        <pt x="111" y="925" on="1"/>
        <pt x="111" y="1050" on="1"/>
      </contour>
    </TTGlyph>
    <TTGlyph name="aogonek" xMin="100" yMin="-426" xMax="955" yMax="1050">
      <contour>
        <pt x="516" y="520" on="1"/>
        <pt x="205" y="520" on="0"/>
        <pt x="205" y="300" on="1"/>
        <pt x="205" y="90" on="0"/>
        <pt x="465" y="90" on="1"/>
        <pt x="657" y="90" on="0"/>
        <pt x="830" y="192" on="1"/>
        <pt x="830" y="500" on="1"/>
        <pt x="663" y="520" on="0"/>
      </contour>
      <contour>
        <pt x="830" y="10" on="1"/>
        <pt x="830" y="104" on="1"/>
        <pt x="650" y="0" on="0"/>
        <pt x="465" y="0" on="1"/>
        <pt x="100" y="0" on="0"/>
        <pt x="100" y="297" on="1"/>
        <pt x="100" y="610" on="0"/>
        <pt x="516" y="610" on="1"/>
        <pt x="663" y="610" on="0"/>
        <pt x="830" y="590" on="1"/>
        <pt x="830" y="719" on="1"/>
        <pt x="830" y="960" on="0"/>
        <pt x="527" y="960" on="1"/>
        <pt x="365" y="960" on="0"/>
        <pt x="195" y="910" on="1"/>
        <pt x="195" y="1000" on="1"/>
        <pt x="365" y="1050" on="0"/>
        <pt x="527" y="1050" on="1"/>
        <pt x="935" y="1050" on="0"/>
        <pt x="935" y="724" on="1"/>
        <pt x="935" y="0" on="1"/>
        <pt x="693" y="-126" on="0"/>
        <pt x="693" y="-228" on="1"/>
        <pt x="693" y="-346" on="0"/>
        <pt x="818" y="-346" on="1"/>
        <pt x="903" y="-346" on="0"/>
        <pt x="955" y="-326" on="1"/>
        <pt x="955" y="-406" on="1"/>
        <pt x="894" y="-426" on="0"/>
        <pt x="806" y="-426" on="1"/>
        <pt x="595" y="-426" on="0"/>
        <pt x="595" y="-253" on="1"/>
        <pt x="595" y="-102" on="0"/>
      </contour>
    </TTGlyph>
    <TTGlyph name="approxequal" xMin="110" yMin="280" xMax="960" yMax="770">
      <contour>
        <pt x="960" y="420" on="1"/>
        <pt x="960" y="330" on="1"/>
        <pt x="849" y="280" on="0"/>
        <pt x="740" y="280" on="1"/>
        <pt x="631" y="280" on="0"/>
        <pt x="525" y="330" on="1"/>
        <pt x="419" y="380" on="0"/>
        <pt x="315" y="380" on="1"/>
        <pt x="212" y="380" on="0"/>
        <pt x="110" y="330" on="1"/>
        <pt x="110" y="420" on="1"/>
        <pt x="222" y="470" on="0"/>
        <pt x="330" y="470" on="1"/>
        <pt x="439" y="470" on="0"/>
        <pt x="545" y="420" on="1"/>
        <pt x="651" y="370" on="0"/>
        <pt x="755" y="370" on="1"/>
        <pt x="859" y="370" on="0"/>
      </contour>
      <contour>
        <pt x="960" y="720" on="1"/>
        <pt x="960" y="630" on="1"/>
        <pt x="849" y="580" on="0"/>
        <pt x="740" y="580" on="1"/>
        <pt x="631" y="580" on="0"/>
        <pt x="525" y="630" on="1"/>
        <pt x="419" y="680" on="0"/>
        <pt x="315" y="680" on="1"/>
        <pt x="212" y="680" on="0"/>
        <pt x="110" y="630" on="1"/>
        <pt x="110" y="720" on="1"/>
        <pt x="222" y="770" on="0"/>
        <pt x="330" y="770" on="1"/>
        <pt x="439" y="770" on="0"/>
        <pt x="545" y="720" on="1"/>
        <pt x="651" y="670" on="0"/>
        <pt x="755" y="670" on="1"/>
        <pt x="859" y="670" on="0"/>
      </contour>
    </TTGlyph>
    <TTGlyph name="aring" xMin="100" yMin="0" xMax="935" yMax="1561">
      <component glyphName="a" x="0" y="0" flags="0x200"/>
      <component glyphName="ring" x="242" y="0" flags="0x0"/>
    </TTGlyph>
    <TTGlyph name="asciicircum" xMin="60" yMin="700" xMax="1010" yMax="1430">
      <contour>
        <pt x="460" y="1430" on="1"/>
        <pt x="610" y="1430" on="1"/>
        <pt x="1010" y="700" on="1"/>
        <pt x="900" y="700" on="1"/>
        <pt x="531" y="1373" on="1"/>
        <pt x="170" y="700" on="1"/>
        <pt x="60" y="700" on="1"/>
      </contour>
    </TTGlyph>
    <TTGlyph name="asciitilde" xMin="110" yMin="440" xMax="860" yMax="611">
      <contour>
        <pt x="110" y="550" on="1"/>
        <pt x="168" y="611" on="0"/>
        <pt x="272" y="611" on="1"/>
        <pt x="358" y="611" on="0"/>
        <pt x="475" y="570" on="1"/>
        <pt x="592" y="530" on="0"/>
        <pt x="682" y="530" on="1"/>
        <pt x="791" y="530" on="0"/>
        <pt x="860" y="590" on="1"/>
        <pt x="860" y="500" on="1"/>
        <pt x="802" y="440" on="0"/>
        <pt x="698" y="440" on="1"/>
        <pt x="612" y="440" on="0"/>
        <pt x="495" y="480" on="1"/>
        <pt x="378" y="521" on="0"/>
        <pt x="288" y="521" on="1"/>
        <pt x="179" y="521" on="0"/>
        <pt x="110" y="460" on="1"/>
      </contour>
    </TTGlyph>
    <TTGlyph name="asterisk" xMin="110" yMin="847" xMax="721" yMax="1430">
      <contour>
        <pt x="338" y="1430" on="1"/>
        <pt x="494" y="1430" on="1"/>
        <pt x="464" y="1198" on="1"/>
        <pt x="673" y="1299" on="1"/>
        <pt x="721" y="1152" on="1"/>
        <pt x="493" y="1109" on="1"/>
        <pt x="652" y="939" on="1"/>
        <pt x="529" y="847" on="1"/>
        <pt x="416" y="1052" on="1"/>
        <pt x="303" y="848" on="1"/>
        <pt x="179" y="937" on="1"/>
        <pt x="340" y="1108" on="1"/>
        <pt x="110" y="1150" on="1"/>
        <pt x="158" y="1300" on="1"/>
        <pt x="369" y="1197" on="1"/>
      </contour>
    </TTGlyph>
    <TTGlyph name="at" xMin="160" yMin="-380" xMax="2010" yMax="1440">
      <contour>
        <pt x="1490" y="98" on="1"/>
        <pt x="1490" y="-60" on="0"/>
        <pt x="1640" y="-60" on="1"/>
        <pt x="1905" y="-60" on="0"/>
        <pt x="1905" y="540" on="1"/>
        <pt x="1905" y="1350" on="0"/>
        <pt x="1099" y="1350" on="1"/>
        <pt x="265" y="1350" on="0"/>
        <pt x="265" y="540" on="1"/>
        <pt x="265" y="-290" on="0"/>
        <pt x="1030" y="-290" on="1"/>
        <pt x="1030" y="-380" on="1"/>
        <pt x="160" y="-380" on="0"/>
        <pt x="160" y="540" on="1"/>
        <pt x="160" y="1440" on="0"/>
        <pt x="1084" y="1440" on="1"/>
        <pt x="2010" y="1440" on="0"/>
        <pt x="2010" y="540" on="1"/>
        <pt x="2010" y="-150" on="0"/>
        <pt x="1633" y="-150" on="1"/>
        <pt x="1385" y="-150" on="0"/>
        <pt x="1385" y="104" on="1"/>
        <pt x="1205" y="0" on="0"/>
        <pt x="1020" y="0" on="1"/>
        <pt x="665" y="0" on="0"/>
        <pt x="665" y="297" on="1"/>
        <pt x="665" y="610" on="0"/>
        <pt x="1071" y="610" on="1"/>
        <pt x="1218" y="610" on="0"/>
        <pt x="1385" y="590" on="1"/>
        <pt x="1385" y="719" on="1"/>
        <pt x="1385" y="960" on="0"/>
        <pt x="1082" y="960" on="1"/>
        <pt x="920" y="960" on="0"/>
        <pt x="750" y="910" on="1"/>
        <pt x="750" y="1000" on="1"/>
        <pt x="920" y="1050" on="0"/>
        <pt x="1082" y="1050" on="1"/>
        <pt x="1490" y="1050" on="0"/>
        <pt x="1490" y="724" on="1"/>
      </contour>
      <contour>
        <pt x="1071" y="520" on="1"/>
        <pt x="770" y="520" on="0"/>
        <pt x="770" y="300" on="1"/>
        <pt x="770" y="90" on="0"/>
        <pt x="1020" y="90" on="1"/>
        <pt x="1212" y="90" on="0"/>
        <pt x="1385" y="192" on="1"/>
        <pt x="1385" y="500" on="1"/>
        <pt x="1218" y="520" on="0"/>
      </contour>
    </TTGlyph>
    <TTGlyph name="atilde" xMin="100" yMin="0" xMax="935" yMax="1430">
      <component glyphName="a" x="0" y="0" flags="0x200"/>
      <component glyphName="tilde" x="208" y="0" flags="0x0"/>
    </TTGlyph>
    <TTGlyph name="b" xMin="160" yMin="0" xMax="1068" yMax="1430">
      <contour>
        <pt x="265" y="123" on="1"/>
        <pt x="426" y="94" on="0"/>
        <pt x="556" y="94" on="1"/>
        <pt x="966" y="94" on="0"/>
        <pt x="966" y="553" on="1"/>
        <pt x="966" y="950" on="0"/>
        <pt x="589" y="950" on="1"/>
        <pt x="445" y="950" on="0"/>
        <pt x="265" y="896" on="1"/>
      </contour>
      <contour>
        <pt x="160" y="1430" on="1"/>
        <pt x="265" y="1430" on="1"/>
        <pt x="265" y="1000" on="1"/>
        <pt x="454" y="1050" on="0"/>
        <pt x="590" y="1050" on="1"/>
        <pt x="1068" y="1050" on="0"/>
        <pt x="1068" y="546" on="1"/>
        <pt x="1068" y="0" on="0"/>
        <pt x="565" y="0" on="1"/>
        <pt x="339" y="0" on="0"/>
        <pt x="160" y="43" on="1"/>
      </contour>
    </TTGlyph>
    <TTGlyph name="backslash" xMin="35" yMin="0" xMax="875" yMax="1430">
      <contour>
        <pt x="35" y="1430" on="1"/>
        <pt x="150" y="1430" on="1"/>
        <pt x="875" y="0" on="1"/>
        <pt x="760" y="0" on="1"/>
      </contour>
    </TTGlyph>
    <TTGlyph name="bar" xMin="160" yMin="-380" xMax="265" yMax="1430">
      <contour>
        <pt x="265" y="1430" on="1"/>
        <pt x="265" y="-380" on="1"/>
        <pt x="160" y="-380" on="1"/>
        <pt x="160" y="1430" on="1"/>
      </contour>
    </TTGlyph>
    <TTGlyph name="beta" xMin="150" yMin="-362" xMax="1121" yMax="1430">
      <contour>
        <pt x="150" y="-362" on="1"/>
        <pt x="150" y="871" on="1"/>
        <pt x="150" y="1430" on="0"/>
        <pt x="644" y="1430" on="1"/>
        <pt x="1054" y="1430" on="0"/>
        <pt x="1054" y="1094" on="1"/>
        <pt x="1054" y="832" on="0"/>
        <pt x="803" y="769" on="1"/>
        <pt x="1121" y="732" on="0"/>
        <pt x="1121" y="381" on="1"/>
        <pt x="1121" y="-2" on="0"/>
        <pt x="707" y="-2" on="1"/>
        <pt x="571" y="-2" on="0"/>
        <pt x="415" y="58" on="1"/>
        <pt x="415" y="148" on="1"/>
        <pt x="572" y="88" on="0"/>
        <pt x="709" y="88" on="1"/>
        <pt x="1016" y="88" on="0"/>
        <pt x="1016" y="381" on="1"/>
        <pt x="1016" y="719" on="0"/>
        <pt x="565" y="720" on="1"/>
        <pt x="565" y="778" on="1"/>
        <pt x="963" y="832" on="0"/>
        <pt x="963" y="1094" on="1"/>
        <pt x="963" y="1340" on="0"/>
        <pt x="637" y="1340" on="1"/>
        <pt x="255" y="1340" on="0"/>
        <pt x="255" y="868" on="1"/>
        <pt x="255" y="-362" on="1"/>
      </contour>
    </TTGlyph>
    <TTGlyph name="braceleft" xMin="110" yMin="-380" xMax="555" yMax="1430">
      <contour>
        <pt x="555" y="1430" on="1"/>
        <pt x="425" y="1254" on="0"/>
        <pt x="425" y="952" on="1"/>
        <pt x="425" y="600" on="0"/>
        <pt x="235" y="525" on="1"/>
        <pt x="425" y="450" on="0"/>
        <pt x="425" y="98" on="1"/>
        <pt x="425" y="-204" on="0"/>
        <pt x="555" y="-380" on="1"/>
        <pt x="450" y="-380" on="1"/>
        <pt x="320" y="-204" on="0"/>
        <pt x="320" y="98" on="1"/>
        <pt x="320" y="480" on="0"/>
        <pt x="110" y="480" on="1"/>
        <pt x="110" y="570" on="1"/>
        <pt x="320" y="570" on="0"/>
        <pt x="320" y="952" on="1"/>
        <pt x="320" y="1254" on="0"/>
        <pt x="450" y="1430" on="1"/>
      </contour>
    </TTGlyph>
    <TTGlyph name="braceright" xMin="35" yMin="-380" xMax="480" yMax="1430">
      <contour>
        <pt x="140" y="1430" on="1"/>
        <pt x="270" y="1254" on="0"/>
        <pt x="270" y="952" on="1"/>
        <pt x="270" y="570" on="0"/>
        <pt x="480" y="570" on="1"/>
        <pt x="480" y="480" on="1"/>
        <pt x="270" y="480" on="0"/>
        <pt x="270" y="98" on="1"/>
        <pt x="270" y="-204" on="0"/>
        <pt x="140" y="-380" on="1"/>
        <pt x="35" y="-380" on="1"/>
        <pt x="165" y="-204" on="0"/>
        <pt x="165" y="98" on="1"/>
        <pt x="165" y="450" on="0"/>
        <pt x="355" y="525" on="1"/>
        <pt x="165" y="600" on="0"/>
        <pt x="165" y="952" on="1"/>
        <pt x="165" y="1254" on="0"/>
        <pt x="35" y="1430" on="1"/>
      </contour>
    </TTGlyph>
    <TTGlyph name="bracketleft" xMin="160" yMin="-380" xMax="530" yMax="1430">
      <contour>
        <pt x="530" y="1430" on="1"/>
        <pt x="530" y="1340" on="1"/>
        <pt x="255" y="1340" on="1"/>
        <pt x="255" y="-290" on="1"/>
        <pt x="530" y="-290" on="1"/>
        <pt x="530" y="-380" on="1"/>
        <pt x="160" y="-380" on="1"/>
        <pt x="160" y="1430" on="1"/>
      </contour>
    </TTGlyph>
    <TTGlyph name="bracketright" xMin="35" yMin="-380" xMax="405" yMax="1430">
      <contour>
        <pt x="405" y="1430" on="1"/>
        <pt x="405" y="-380" on="1"/>
        <pt x="35" y="-380" on="1"/>
        <pt x="35" y="-290" on="1"/>
        <pt x="310" y="-290" on="1"/>
        <pt x="310" y="1340" on="1"/>
        <pt x="35" y="1340" on="1"/>
        <pt x="35" y="1430" on="1"/>
      </contour>
    </TTGlyph>
    <TTGlyph name="breve" xMin="100" yMin="1170" xMax="610" yMax="1430">
      <contour>
        <pt x="100" y="1430" on="1"/>
        <pt x="185" y="1430" on="1"/>
        <pt x="185" y="1250" on="0"/>
        <pt x="355" y="1250" on="1"/>
        <pt x="525" y="1250" on="0"/>
        <pt x="525" y="1430" on="1"/>
        <pt x="610" y="1430" on="1"/>
        <pt x="610" y="1170" on="0"/>
        <pt x="355" y="1170" on="1"/>
        <pt x="100" y="1170" on="0"/>
      </contour>
    </TTGlyph>
    <TTGlyph name="brokenbar" xMin="160" yMin="-380" xMax="265" yMax="1430">
      <contour>
        <pt x="265" y="350" on="1"/>
        <pt x="265" y="-380" on="1"/>
        <pt x="160" y="-380" on="1"/>
        <pt x="160" y="350" on="1"/>
      </contour>
      <contour>
        <pt x="264" y="1430" on="1"/>
        <pt x="264" y="700" on="1"/>
        <pt x="160" y="700" on="1"/>
        <pt x="160" y="1430" on="1"/>
      </contour>
    </TTGlyph>
    <TTGlyph name="bullet" xMin="110" yMin="530" xMax="500" yMax="920">
      <contour>
        <pt x="110" y="725" on="1"/>
        <pt x="110" y="920" on="0"/>
        <pt x="305" y="920" on="1"/>
        <pt x="500" y="920" on="0"/>
        <pt x="500" y="725" on="1"/>
        <pt x="500" y="530" on="0"/>
        <pt x="305" y="530" on="1"/>
        <pt x="110" y="530" on="0"/>
      </contour>
    </TTGlyph>
    <TTGlyph name="c" xMin="110" yMin="0" xMax="920" yMax="1050">
      <contour>
        <pt x="920" y="30" on="1"/>
        <pt x="790" y="0" on="0"/>
        <pt x="640" y="0" on="1"/>
        <pt x="110" y="0" on="0"/>
        <pt x="110" y="545" on="1"/>
        <pt x="110" y="1050" on="0"/>
        <pt x="640" y="1050" on="1"/>
        <pt x="790" y="1050" on="0"/>
        <pt x="920" y="1020" on="1"/>
        <pt x="920" y="930" on="1"/>
        <pt x="780" y="960" on="0"/>
        <pt x="650" y="960" on="1"/>
        <pt x="225" y="960" on="0"/>
        <pt x="225" y="545" on="1"/>
        <pt x="225" y="90" on="0"/>
        <pt x="650" y="90" on="1"/>
        <pt x="780" y="90" on="0"/>
        <pt x="920" y="120" on="1"/>
      </contour>
    </TTGlyph>
    <TTGlyph name="cacute" xMin="110" yMin="0" xMax="920" yMax="1430">
      <component glyphName="c" x="0" y="0" flags="0x200"/>
      <component glyphName="acute" x="307" y="0" flags="0x0"/>
    </TTGlyph>
    <TTGlyph name="caron" xMin="100" yMin="1170" xMax="600" yMax="1430">
      <contour>
        <pt x="100" y="1430" on="1"/>
        <pt x="200" y="1430" on="1"/>
        <pt x="348" y="1236" on="1"/>
        <pt x="500" y="1430" on="1"/>
        <pt x="600" y="1430" on="1"/>
        <pt x="405" y="1170" on="1"/>
        <pt x="295" y="1170" on="1"/>
      </contour>
    </TTGlyph>
    <TTGlyph name="ccaron" xMin="110" yMin="0" xMax="920" yMax="1430">
      <component glyphName="c" x="0" y="0" flags="0x200"/>
      <component glyphName="caron" x="238" y="0" flags="0x0"/>
    </TTGlyph>
    <TTGlyph name="ccedilla" xMin="110" yMin="-422" xMax="920" yMax="1050">
      <contour>
        <pt x="569" y="3" on="1"/>
        <pt x="110" y="38" on="0"/>
        <pt x="110" y="545" on="1"/>
        <pt x="110" y="1050" on="0"/>
        <pt x="640" y="1050" on="1"/>
        <pt x="790" y="1050" on="0"/>
        <pt x="920" y="1020" on="1"/>
        <pt x="920" y="930" on="1"/>
        <pt x="780" y="960" on="0"/>
        <pt x="650" y="960" on="1"/>
        <pt x="225" y="960" on="0"/>
        <pt x="225" y="545" on="1"/>
        <pt x="225" y="90" on="0"/>
        <pt x="650" y="90" on="1"/>
        <pt x="780" y="90" on="0"/>
        <pt x="920" y="120" on="1"/>
        <pt x="920" y="30" on="1"/>
        <pt x="801" y="3" on="0"/>
        <pt x="665" y="0" on="1"/>
        <pt x="624" y="-77" on="1"/>
        <pt x="848" y="-77" on="0"/>
        <pt x="848" y="-249" on="1"/>
        <pt x="848" y="-422" on="0"/>
        <pt x="607" y="-422" on="1"/>
        <pt x="499" y="-422" on="0"/>
        <pt x="391" y="-372" on="1"/>
        <pt x="391" y="-284" on="1"/>
        <pt x="499" y="-344" on="0"/>
        <pt x="607" y="-344" on="1"/>
        <pt x="755" y="-344" on="0"/>
        <pt x="755" y="-249" on="1"/>
        <pt x="755" y="-155" on="0"/>
        <pt x="632" y="-155" on="1"/>
        <pt x="479" y="-155" on="1"/>
      </contour>
    </TTGlyph>
    <TTGlyph name="ccircumflex" xMin="110" yMin="0" xMax="920" yMax="1430">
      <component glyphName="c" x="0" y="0" flags="0x200"/>
      <component glyphName="circumflex" x="245" y="0" flags="0x0"/>
    </TTGlyph>
    <TTGlyph name="cdotaccent" xMin="110" yMin="0" xMax="920" yMax="1430">
      <component glyphName="c" x="0" y="0" flags="0x200"/>
      <component glyphName="dotaccent" x="443" y="0" flags="0x0"/>
    </TTGlyph>
    <TTGlyph name="cedilla" xMin="100" yMin="-422" xMax="557" yMax="75">
      <contour>
        <pt x="100" y="-284" on="1"/>
        <pt x="208" y="-344" on="0"/>
        <pt x="316" y="-344" on="1"/>
        <pt x="464" y="-344" on="0"/>
        <pt x="464" y="-249" on="1"/>
        <pt x="464" y="-155" on="0"/>
        <pt x="341" y="-155" on="1"/>
        <pt x="188" y="-155" on="1"/>
        <pt x="319" y="75" on="1"/>
        <pt x="414" y="75" on="1"/>
        <pt x="333" y="-77" on="1"/>
        <pt x="557" y="-77" on="0"/>
        <pt x="557" y="-249" on="1"/>
        <pt x="557" y="-422" on="0"/>
        <pt x="316" y="-422" on="1"/>
        <pt x="208" y="-422" on="0"/>
        <pt x="100" y="-372" on="1"/>
      </contour>
    </TTGlyph>
    <TTGlyph name="cent" xMin="110" yMin="0" xMax="920" yMax="1430">
      <contour>
        <pt x="560" y="1237" on="1"/>
        <pt x="560" y="1430" on="1"/>
        <pt x="675" y="1430" on="1"/>
        <pt x="675" y="1240" on="1"/>
        <pt x="805" y="1236" on="0"/>
        <pt x="920" y="1210" on="1"/>
        <pt x="920" y="1120" on="1"/>
        <pt x="780" y="1150" on="0"/>
        <pt x="650" y="1150" on="1"/>
        <pt x="225" y="1150" on="0"/>
        <pt x="225" y="735" on="1"/>
        <pt x="225" y="280" on="0"/>
        <pt x="650" y="280" on="1"/>
        <pt x="780" y="280" on="0"/>
        <pt x="920" y="310" on="1"/>
        <pt x="920" y="220" on="1"/>
        <pt x="805" y="194" on="0"/>
        <pt x="675" y="190" on="1"/>
        <pt x="675" y="0" on="1"/>
        <pt x="560" y="0" on="1"/>
        <pt x="560" y="193" on="1"/>
        <pt x="110" y="233" on="0"/>
        <pt x="110" y="735" on="1"/>
        <pt x="110" y="1200" on="0"/>
      </contour>
    </TTGlyph>
    <TTGlyph name="chi" xMin="40" yMin="-380" xMax="1010" yMax="1050">
      <contour>
        <pt x="463" y="335" on="1"/>
        <pt x="40" y="1050" on="1"/>
        <pt x="165" y="1050" on="1"/>
        <pt x="525" y="441" on="1"/>
        <pt x="885" y="1050" on="1"/>
        <pt x="1010" y="1050" on="1"/>
        <pt x="588" y="335" on="1"/>
        <pt x="1010" y="-380" on="1"/>
        <pt x="885" y="-380" on="1"/>
        <pt x="525" y="229" on="1"/>
        <pt x="165" y="-380" on="1"/>
        <pt x="40" y="-380" on="1"/>
      </contour>
    </TTGlyph>
    <TTGlyph name="circumflex" xMin="100" yMin="1170" xMax="600" yMax="1430">
      <contour>
        <pt x="295" y="1430" on="1"/>
        <pt x="405" y="1430" on="1"/>
        <pt x="600" y="1170" on="1"/>
        <pt x="500" y="1170" on="1"/>
        <pt x="348" y="1364" on="1"/>
        <pt x="200" y="1170" on="1"/>
        <pt x="100" y="1170" on="1"/>
      </contour>
    </TTGlyph>
    <TTGlyph name="colon" xMin="150" yMin="0" xMax="285" yMax="1050">
      <contour>
        <pt x="285" y="1050" on="1"/>
        <pt x="285" y="925" on="1"/>
        <pt x="150" y="925" on="1"/>
        <pt x="150" y="1050" on="1"/>
      </contour>
      <contour>
        <pt x="285" y="125" on="1"/>
        <pt x="285" y="0" on="1"/>
        <pt x="150" y="0" on="1"/>
        <pt x="150" y="125" on="1"/>
      </contour>
    </TTGlyph>
    <TTGlyph name="comma" xMin="25" yMin="-250" xMax="280" yMax="185">
      <contour>
        <pt x="280" y="185" on="1"/>
        <pt x="130" y="-250" on="1"/>
        <pt x="25" y="-250" on="1"/>
        <pt x="175" y="185" on="1"/>
      </contour>
    </TTGlyph>
    <TTGlyph name="commaccent" xMin="25" yMin="-380" xMax="280" yMax="-100">
      <contour>
        <pt x="280" y="-100" on="1"/>
        <pt x="130" y="-380" on="1"/>
        <pt x="25" y="-380" on="1"/>
        <pt x="175" y="-100" on="1"/>
      </contour>
    </TTGlyph>
    <TTGlyph name="copyright" xMin="150" yMin="-10" xMax="1635" yMax="1440">
      <contour>
        <pt x="255" y="80" on="0"/>
        <pt x="878" y="80" on="1"/>
        <pt x="1530" y="80" on="0"/>
        <pt x="1530" y="719" on="1"/>
        <pt x="1530" y="1350" on="0"/>
        <pt x="898" y="1350" on="1"/>
        <pt x="255" y="1350" on="0"/>
        <pt x="255" y="719" on="1"/>
      </contour>
      <contour>
        <pt x="150" y="723" on="1"/>
        <pt x="150" y="1440" on="0"/>
        <pt x="898" y="1440" on="1"/>
        <pt x="1635" y="1440" on="0"/>
        <pt x="1635" y="723" on="1"/>
        <pt x="1635" y="-10" on="0"/>
        <pt x="898" y="-10" on="1"/>
        <pt x="150" y="-10" on="0"/>
      </contour>
      <contour>
        <pt x="1183" y="336" on="1"/>
        <pt x="1058" y="285" on="0"/>
        <pt x="893" y="285" on="1"/>
        <pt x="477" y="285" on="0"/>
        <pt x="477" y="728" on="1"/>
        <pt x="477" y="1144" on="0"/>
        <pt x="893" y="1144" on="1"/>
        <pt x="1058" y="1144" on="0"/>
        <pt x="1183" y="1093" on="1"/>
        <pt x="1183" y="995" on="1"/>
        <pt x="1058" y="1053" on="0"/>
        <pt x="907" y="1053" on="1"/>
        <pt x="582" y="1053" on="0"/>
        <pt x="582" y="728" on="1"/>
        <pt x="582" y="376" on="0"/>
        <pt x="907" y="376" on="1"/>
        <pt x="1058" y="376" on="0"/>
        <pt x="1183" y="434" on="1"/>
      </contour>
    </TTGlyph>
    <TTGlyph name="currency" xMin="110" yMin="91" xMax="1009" yMax="978">
      <contour>
        <pt x="246" y="786" on="1"/>
        <pt x="110" y="906" on="1"/>
        <pt x="179" y="978" on="1"/>
        <pt x="304" y="837" on="1"/>
        <pt x="412" y="911" on="0"/>
        <pt x="566" y="911" on="1"/>
        <pt x="720" y="911" on="0"/>
        <pt x="816" y="834" on="1"/>
        <pt x="940" y="972" on="1"/>
        <pt x="1009" y="906" on="1"/>
        <pt x="867" y="780" on="1"/>
        <pt x="949" y="673" on="0"/>
        <pt x="949" y="535" on="1"/>
        <pt x="949" y="366" on="0"/>
        <pt x="871" y="273" on="1"/>
        <pt x="1009" y="163" on="1"/>
        <pt x="939" y="91" on="1"/>
        <pt x="821" y="224" on="1"/>
        <pt x="703" y="144" on="0"/>
        <pt x="558" y="144" on="1"/>
        <pt x="414" y="144" on="0"/>
        <pt x="295" y="224" on="1"/>
        <pt x="179" y="91" on="1"/>
        <pt x="110" y="153" on="1"/>
        <pt x="246" y="273" on="1"/>
        <pt x="169" y="376" on="0"/>
        <pt x="169" y="525" on="1"/>
        <pt x="169" y="682" on="0"/>
      </contour>
      <contour>
        <pt x="252" y="529" on="1"/>
        <pt x="252" y="223" on="0"/>
        <pt x="557" y="223" on="1"/>
        <pt x="862" y="223" on="0"/>
        <pt x="862" y="529" on="1"/>
        <pt x="862" y="833" on="0"/>
        <pt x="557" y="833" on="1"/>
        <pt x="252" y="833" on="0"/>
      </contour>
    </TTGlyph>
    <TTGlyph name="d" xMin="110" yMin="0" xMax="1030" yMax="1430">
      <contour>
        <pt x="925" y="896" on="1"/>
        <pt x="773" y="950" on="0"/>
        <pt x="609" y="950" on="1"/>
        <pt x="222" y="950" on="0"/>
        <pt x="222" y="553" on="1"/>
        <pt x="222" y="94" on="0"/>
        <pt x="609" y="94" on="1"/>
        <pt x="773" y="94" on="0"/>
        <pt x="925" y="133" on="1"/>
      </contour>
      <contour>
        <pt x="1030" y="63" on="1"/>
        <pt x="859" y="0" on="0"/>
        <pt x="599" y="0" on="1"/>
        <pt x="110" y="0" on="0"/>
        <pt x="110" y="546" on="1"/>
        <pt x="110" y="1050" on="0"/>
        <pt x="608" y="1050" on="1"/>
        <pt x="764" y="1050" on="0"/>
        <pt x="925" y="1000" on="1"/>
        <pt x="925" y="1430" on="1"/>
        <pt x="1030" y="1430" on="1"/>
      </contour>
    </TTGlyph>
    <TTGlyph name="dagger" xMin="60" yMin="-380" xMax="1005" yMax="1430">
      <contour>
        <pt x="585" y="1430" on="1"/>
        <pt x="585" y="1050" on="1"/>
        <pt x="1005" y="1050" on="1"/>
        <pt x="1005" y="960" on="1"/>
        <pt x="585" y="960" on="1"/>
        <pt x="585" y="-380" on="1"/>
        <pt x="480" y="-380" on="1"/>
        <pt x="480" y="960" on="1"/>
        <pt x="60" y="960" on="1"/>
        <pt x="60" y="1050" on="1"/>
        <pt x="480" y="1050" on="1"/>
        <pt x="480" y="1430" on="1"/>
      </contour>
    </TTGlyph>
    <TTGlyph name="daggerdbl" xMin="60" yMin="-380" xMax="1005" yMax="1430">
      <contour>
        <pt x="585" y="1430" on="1"/>
        <pt x="585" y="1050" on="1"/>
        <pt x="1005" y="1050" on="1"/>
        <pt x="1005" y="960" on="1"/>
        <pt x="585" y="960" on="1"/>
        <pt x="585" y="90" on="1"/>
        <pt x="1005" y="90" on="1"/>
        <pt x="1005" y="0" on="1"/>
        <pt x="585" y="0" on="1"/>
        <pt x="585" y="-380" on="1"/>
        <pt x="480" y="-380" on="1"/>
        <pt x="480" y="0" on="1"/>
        <pt x="60" y="0" on="1"/>
        <pt x="60" y="90" on="1"/>
        <pt x="480" y="90" on="1"/>
        <pt x="480" y="960" on="1"/>
        <pt x="60" y="960" on="1"/>
        <pt x="60" y="1050" on="1"/>
        <pt x="480" y="1050" on="1"/>
        <pt x="480" y="1430" on="1"/>
      </contour>
    </TTGlyph>
    <TTGlyph name="dcaron" xMin="110" yMin="0" xMax="1395" yMax="1430">
      <contour>
        <pt x="1395" y="1430" on="1"/>
        <pt x="1245" y="995" on="1"/>
        <pt x="1130" y="995" on="1"/>
        <pt x="1280" y="1430" on="1"/>
      </contour>
      <contour>
        <pt x="925" y="896" on="1"/>
        <pt x="773" y="950" on="0"/>
        <pt x="609" y="950" on="1"/>
        <pt x="222" y="950" on="0"/>
        <pt x="222" y="553" on="1"/>
        <pt x="222" y="94" on="0"/>
        <pt x="609" y="94" on="1"/>
        <pt x="773" y="94" on="0"/>
        <pt x="925" y="133" on="1"/>
      </contour>
      <contour>
        <pt x="1030" y="63" on="1"/>
        <pt x="859" y="0" on="0"/>
        <pt x="599" y="0" on="1"/>
        <pt x="110" y="0" on="0"/>
        <pt x="110" y="546" on="1"/>
        <pt x="110" y="1050" on="0"/>
        <pt x="608" y="1050" on="1"/>
        <pt x="764" y="1050" on="0"/>
        <pt x="925" y="1000" on="1"/>
        <pt x="925" y="1430" on="1"/>
        <pt x="1030" y="1430" on="1"/>
      </contour>
    </TTGlyph>
    <TTGlyph name="dcroat" xMin="110" yMin="0" xMax="1030" yMax="1430">
      <contour>
        <pt x="925" y="896" on="1"/>
        <pt x="773" y="950" on="0"/>
        <pt x="609" y="950" on="1"/>
        <pt x="222" y="950" on="0"/>
        <pt x="222" y="553" on="1"/>
        <pt x="222" y="94" on="0"/>
        <pt x="609" y="94" on="1"/>
        <pt x="773" y="94" on="0"/>
        <pt x="925" y="133" on="1"/>
      </contour>
      <contour>
        <pt x="925" y="1170" on="1"/>
        <pt x="140" y="1170" on="1"/>
        <pt x="140" y="1260" on="1"/>
        <pt x="925" y="1260" on="1"/>
        <pt x="925" y="1430" on="1"/>
        <pt x="1030" y="1430" on="1"/>
        <pt x="1030" y="63" on="1"/>
        <pt x="859" y="0" on="0"/>
        <pt x="599" y="0" on="1"/>
        <pt x="110" y="0" on="0"/>
        <pt x="110" y="546" on="1"/>
        <pt x="110" y="1050" on="0"/>
        <pt x="608" y="1050" on="1"/>
        <pt x="764" y="1050" on="0"/>
        <pt x="925" y="1000" on="1"/>
      </contour>
    </TTGlyph>
    <TTGlyph name="degree" xMin="110" yMin="911" xMax="662" yMax="1430">
      <contour>
        <pt x="200" y="985" on="0"/>
        <pt x="388" y="985" on="1"/>
        <pt x="572" y="985" on="0"/>
        <pt x="572" y="1172" on="1"/>
        <pt x="572" y="1356" on="0"/>
        <pt x="388" y="1356" on="1"/>
        <pt x="200" y="1356" on="0"/>
        <pt x="200" y="1172" on="1"/>
      </contour>
      <contour>
        <pt x="110" y="1170" on="1"/>
        <pt x="110" y="1430" on="0"/>
        <pt x="388" y="1430" on="1"/>
        <pt x="662" y="1430" on="0"/>
        <pt x="662" y="1170" on="1"/>
        <pt x="662" y="911" on="0"/>
        <pt x="388" y="911" on="1"/>
        <pt x="110" y="911" on="0"/>
      </contour>
    </TTGlyph>
    <TTGlyph name="delta" xMin="100" yMin="-10" xMax="1100" yMax="1430">
      <contour>
        <pt x="1100" y="-10" on="0"/>
        <pt x="593" y="-10" on="1"/>
        <pt x="100" y="-10" on="0"/>
        <pt x="100" y="530" on="1"/>
        <pt x="100" y="1040" on="0"/>
        <pt x="593" y="1040" on="1"/>
        <pt x="679" y="1040" on="0"/>
        <pt x="775" y="1010" on="1"/>
        <pt x="515" y="1223" on="0"/>
        <pt x="214" y="1350" on="1"/>
        <pt x="214" y="1430" on="1"/>
        <pt x="999" y="1430" on="1"/>
        <pt x="999" y="1350" on="1"/>
        <pt x="402" y="1350" on="1"/>
        <pt x="1087" y="1035" on="0"/>
        <pt x="1100" y="540" on="1"/>
      </contour>
      <contour>
        <pt x="995" y="536" on="1"/>
        <pt x="995" y="960" on="0"/>
        <pt x="593" y="960" on="1"/>
        <pt x="201" y="960" on="0"/>
        <pt x="201" y="530" on="1"/>
        <pt x="201" y="80" on="0"/>
        <pt x="594" y="80" on="1"/>
        <pt x="995" y="80" on="0"/>
      </contour>
    </TTGlyph>
    <TTGlyph name="dieresis" xMin="90" yMin="1280" xMax="545" yMax="1410">
      <contour>
        <pt x="545" y="1410" on="1"/>
        <pt x="545" y="1280" on="1"/>
        <pt x="410" y="1280" on="1"/>
        <pt x="410" y="1410" on="1"/>
      </contour>
      <contour>
        <pt x="225" y="1410" on="1"/>
        <pt x="225" y="1280" on="1"/>
        <pt x="90" y="1280" on="1"/>
        <pt x="90" y="1410" on="1"/>
      </contour>
    </TTGlyph>
    <TTGlyph name="dieresistonos" xMin="100" yMin="1191" xMax="755" yMax="1430">
      <contour>
        <pt x="755" y="1410" on="1"/>
        <pt x="755" y="1280" on="1"/>
        <pt x="620" y="1280" on="1"/>
        <pt x="620" y="1410" on="1"/>
      </contour>
      <contour>
        <pt x="235" y="1410" on="1"/>
        <pt x="235" y="1280" on="1"/>
        <pt x="100" y="1280" on="1"/>
        <pt x="100" y="1410" on="1"/>
      </contour>
      <contour>
        <pt x="414" y="1430" on="1"/>
        <pt x="573" y="1430" on="1"/>
        <pt x="334" y="1191" on="1"/>
        <pt x="250" y="1191" on="1"/>
      </contour>
    </TTGlyph>
    <TTGlyph name="divide" xMin="110" yMin="150" xMax="895" yMax="900">
      <contour>
        <pt x="895" y="570" on="1"/>
        <pt x="895" y="480" on="1"/>
        <pt x="110" y="480" on="1"/>
        <pt x="110" y="570" on="1"/>
      </contour>
      <contour>
        <pt x="575" y="280" on="1"/>
        <pt x="575" y="150" on="1"/>
        <pt x="430" y="150" on="1"/>
        <pt x="430" y="280" on="1"/>
      </contour>
      <contour>
        <pt x="575" y="900" on="1"/>
        <pt x="575" y="770" on="1"/>
        <pt x="430" y="770" on="1"/>
        <pt x="430" y="900" on="1"/>
      </contour>
    </TTGlyph>
    <TTGlyph name="dollar" xMin="110" yMin="0" xMax="920" yMax="1430">
      <contour>
        <pt x="479" y="1238" on="1"/>
        <pt x="479" y="1430" on="1"/>
        <pt x="574" y="1430" on="1"/>
        <pt x="574" y="1240" on="1"/>
        <pt x="729" y="1236" on="0"/>
        <pt x="890" y="1190" on="1"/>
        <pt x="890" y="1090" on="1"/>
        <pt x="715" y="1150" on="0"/>
        <pt x="547" y="1150" on="1"/>
        <pt x="215" y="1150" on="0"/>
        <pt x="215" y="940" on="1"/>
        <pt x="215" y="760" on="0"/>
        <pt x="440" y="760" on="1"/>
        <pt x="570" y="760" on="1"/>
        <pt x="920" y="760" on="0"/>
        <pt x="920" y="490" on="1"/>
        <pt x="920" y="223" on="0"/>
        <pt x="574" y="194" on="1"/>
        <pt x="574" y="0" on="1"/>
        <pt x="479" y="0" on="1"/>
        <pt x="479" y="190" on="1"/>
        <pt x="312" y="191" on="0"/>
        <pt x="140" y="240" on="1"/>
        <pt x="140" y="340" on="1"/>
        <pt x="315" y="280" on="0"/>
        <pt x="484" y="280" on="1"/>
        <pt x="815" y="280" on="0"/>
        <pt x="815" y="490" on="1"/>
        <pt x="815" y="660" on="0"/>
        <pt x="570" y="660" on="1"/>
        <pt x="440" y="660" on="1"/>
        <pt x="110" y="660" on="0"/>
        <pt x="110" y="940" on="1"/>
        <pt x="110" y="1216" on="0"/>
      </contour>
    </TTGlyph>
    <TTGlyph name="dotaccent" xMin="100" yMin="1280" xMax="265" yMax="1430">
      <contour>
        <pt x="265" y="1430" on="1"/>
        <pt x="265" y="1280" on="1"/>
        <pt x="100" y="1280" on="1"/>
        <pt x="100" y="1430" on="1"/>
      </contour>
    </TTGlyph>
    <TTGlyph name="dotlessi" xMin="170" yMin="0" xMax="275" yMax="1050">
      <contour>
        <pt x="275" y="1050" on="1"/>
        <pt x="275" y="0" on="1"/>
        <pt x="170" y="0" on="1"/>
        <pt x="170" y="1050" on="1"/>
      </contour>
    </TTGlyph>
    <TTGlyph name="e" xMin="110" yMin="0" xMax="1014" yMax="1050">
      <contour>
        <pt x="583" y="1050" on="1"/>
        <pt x="1014" y="1050" on="0"/>
        <pt x="1014" y="573" on="1"/>
        <pt x="1014" y="539" on="0"/>
        <pt x="1012" y="502" on="1"/>
        <pt x="215" y="502" on="1"/>
        <pt x="215" y="90" on="0"/>
        <pt x="651" y="90" on="1"/>
        <pt x="830" y="90" on="0"/>
        <pt x="969" y="140" on="1"/>
        <pt x="969" y="50" on="1"/>
        <pt x="830" y="0" on="0"/>
        <pt x="651" y="0" on="1"/>
        <pt x="110" y="0" on="0"/>
        <pt x="110" y="537" on="1"/>
        <pt x="110" y="1050" on="0"/>
      </contour>
      <contour>
        <pt x="215" y="596" on="1"/>
        <pt x="913" y="596" on="1"/>
        <pt x="907" y="962" on="0"/>
        <pt x="583" y="962" on="1"/>
        <pt x="233" y="962" on="0"/>
      </contour>
    </TTGlyph>
    <TTGlyph name="eacute" xMin="110" yMin="0" xMax="1014" yMax="1430">
      <component glyphName="e" x="0" y="0" flags="0x200"/>
      <component glyphName="acute" x="354" y="0" flags="0x0"/>
    </TTGlyph>
    <TTGlyph name="ebreve" xMin="110" yMin="0" xMax="1014" yMax="1430">
      <component glyphName="e" x="0" y="0" flags="0x200"/>
      <component glyphName="breve" x="227" y="0" flags="0x0"/>
    </TTGlyph>
    <TTGlyph name="ecaron" xMin="110" yMin="0" xMax="1014" yMax="1430">
      <component glyphName="e" x="0" y="0" flags="0x200"/>
      <component glyphName="caron" x="232" y="0" flags="0x0"/>
    </TTGlyph>
    <TTGlyph name="ecircumflex" xMin="110" yMin="0" xMax="1014" yMax="1430">
      <component glyphName="e" x="0" y="0" flags="0x200"/>
      <component glyphName="circumflex" x="232" y="0" flags="0x0"/>
    </TTGlyph>
    <TTGlyph name="edieresis" xMin="110" yMin="0" xMax="1014" yMax="1410">
      <component glyphName="e" x="0" y="0" flags="0x200"/>
      <component glyphName="dieresis" x="265" y="0" flags="0x0"/>
    </TTGlyph>
    <TTGlyph name="edotaccent" xMin="110" yMin="0" xMax="1014" yMax="1430">
      <component glyphName="e" x="0" y="0" flags="0x200"/>
      <component glyphName="dotaccent" x="390" y="0" flags="0x0"/>
    </TTGlyph>
    <TTGlyph name="egrave" xMin="110" yMin="0" xMax="1014" yMax="1430">
      <component glyphName="e" x="0" y="0" flags="0x200"/>
      <component glyphName="grave" x="267" y="0" flags="0x0"/>
    </TTGlyph>
    <TTGlyph name="eight" xMin="110" yMin="-10" xMax="1150" yMax="1444">
      <contour>
        <pt x="110" y="424" on="1"/>
        <pt x="110" y="667" on="0"/>
        <pt x="362" y="745" on="1"/>
        <pt x="150" y="830" on="0"/>
        <pt x="150" y="1078" on="1"/>
        <pt x="150" y="1444" on="0"/>
        <pt x="630" y="1444" on="1"/>
        <pt x="1110" y="1444" on="0"/>
        <pt x="1110" y="1078" on="1"/>
        <pt x="1110" y="830" on="0"/>
        <pt x="893" y="745" on="1"/>
        <pt x="1150" y="667" on="0"/>
        <pt x="1150" y="424" on="1"/>
        <pt x="1150" y="-10" on="0"/>
        <pt x="630" y="-10" on="1"/>
        <pt x="110" y="-10" on="0"/>
      </contour>
      <contour>
        <pt x="1005" y="790" on="0"/>
        <pt x="1005" y="1058" on="1"/>
        <pt x="1005" y="1350" on="0"/>
        <pt x="622" y="1350" on="1"/>
        <pt x="255" y="1350" on="0"/>
        <pt x="255" y="1058" on="1"/>
        <pt x="255" y="790" on="0"/>
        <pt x="635" y="790" on="1"/>
      </contour>
      <contour>
        <pt x="1045" y="80" on="0"/>
        <pt x="1045" y="418" on="1"/>
        <pt x="1045" y="700" on="0"/>
        <pt x="622" y="700" on="1"/>
        <pt x="215" y="700" on="0"/>
        <pt x="215" y="418" on="1"/>
        <pt x="215" y="80" on="0"/>
        <pt x="635" y="80" on="1"/>
      </contour>
    </TTGlyph>
    <TTGlyph name="eight.osf" xMin="115" yMin="-10" xMax="1135" yMax="1344">
      <contour>
        <pt x="115" y="374" on="1"/>
        <pt x="115" y="627" on="0"/>
        <pt x="397" y="705" on="1"/>
        <pt x="155" y="780" on="0"/>
        <pt x="155" y="1008" on="1"/>
        <pt x="155" y="1344" on="0"/>
        <pt x="625" y="1344" on="1"/>
        <pt x="1095" y="1344" on="0"/>
        <pt x="1095" y="1008" on="1"/>
        <pt x="1095" y="780" on="0"/>
        <pt x="848" y="705" on="1"/>
        <pt x="1135" y="627" on="0"/>
        <pt x="1135" y="374" on="1"/>
        <pt x="1135" y="-10" on="0"/>
        <pt x="625" y="-10" on="1"/>
        <pt x="115" y="-10" on="0"/>
      </contour>
      <contour>
        <pt x="990" y="740" on="0"/>
        <pt x="990" y="1008" on="1"/>
        <pt x="990" y="1250" on="0"/>
        <pt x="617" y="1250" on="1"/>
        <pt x="260" y="1250" on="0"/>
        <pt x="260" y="1008" on="1"/>
        <pt x="260" y="740" on="0"/>
        <pt x="630" y="740" on="1"/>
      </contour>
      <contour>
        <pt x="1030" y="80" on="0"/>
        <pt x="1030" y="378" on="1"/>
        <pt x="1030" y="650" on="0"/>
        <pt x="617" y="650" on="1"/>
        <pt x="220" y="650" on="0"/>
        <pt x="220" y="378" on="1"/>
        <pt x="220" y="80" on="0"/>
        <pt x="630" y="80" on="1"/>
      </contour>
    </TTGlyph>
    <TTGlyph name="ellipsis" xMin="110" yMin="0" xMax="945" yMax="125">
      <contour>
        <pt x="595" y="125" on="1"/>
        <pt x="595" y="0" on="1"/>
        <pt x="460" y="0" on="1"/>
        <pt x="460" y="125" on="1"/>
      </contour>
      <contour>
        <pt x="245" y="125" on="1"/>
        <pt x="245" y="0" on="1"/>
        <pt x="110" y="0" on="1"/>
        <pt x="110" y="125" on="1"/>
      </contour>
      <contour>
        <pt x="945" y="125" on="1"/>
        <pt x="945" y="0" on="1"/>
        <pt x="810" y="0" on="1"/>
        <pt x="810" y="125" on="1"/>
      </contour>
    </TTGlyph>
    <TTGlyph name="emacron" xMin="110" yMin="0" xMax="1014" yMax="1430">
      <component glyphName="e" x="0" y="0" flags="0x200"/>
      <component glyphName="macron" x="232" y="0" flags="0x0"/>
    </TTGlyph>
    <TTGlyph name="emdash" xMin="110" yMin="480" xMax="1610" yMax="570">
      <contour>
        <pt x="1610" y="570" on="1"/>
        <pt x="1610" y="480" on="1"/>
        <pt x="110" y="480" on="1"/>
        <pt x="110" y="570" on="1"/>
      </contour>
    </TTGlyph>
    <TTGlyph name="endash" xMin="110" yMin="480" xMax="1110" yMax="570">
      <contour>
        <pt x="1110" y="570" on="1"/>
        <pt x="1110" y="480" on="1"/>
        <pt x="110" y="480" on="1"/>
        <pt x="110" y="570" on="1"/>
      </contour>
    </TTGlyph>
    <TTGlyph name="eng" xMin="160" yMin="-368" xMax="1025" yMax="1050">
      <contour>
        <pt x="920" y="722" on="1"/>
        <pt x="920" y="956" on="0"/>
        <pt x="637" y="956" on="1"/>
        <pt x="448" y="956" on="0"/>
        <pt x="265" y="823" on="1"/>
        <pt x="265" y="0" on="1"/>
        <pt x="160" y="0" on="1"/>
        <pt x="160" y="1050" on="1"/>
        <pt x="235" y="1050" on="1"/>
        <pt x="248" y="916" on="1"/>
        <pt x="449" y="1050" on="0"/>
        <pt x="642" y="1050" on="1"/>
        <pt x="1025" y="1050" on="0"/>
        <pt x="1025" y="719" on="1"/>
        <pt x="1025" y="80" on="1"/>
        <pt x="1025" y="-238" on="0"/>
        <pt x="870" y="-368" on="1"/>
        <pt x="795" y="-303" on="1"/>
        <pt x="920" y="-188" on="0"/>
        <pt x="920" y="80" on="1"/>
      </contour>
    </TTGlyph>
    <TTGlyph name="eogonek" xMin="110" yMin="-426" xMax="1014" yMax="1050">
      <contour>
        <pt x="215" y="596" on="1"/>
        <pt x="913" y="596" on="1"/>
        <pt x="907" y="962" on="0"/>
        <pt x="583" y="962" on="1"/>
        <pt x="233" y="962" on="0"/>
      </contour>
      <contour>
        <pt x="834" y="19" on="1"/>
        <pt x="748" y="0" on="0"/>
        <pt x="651" y="0" on="1"/>
        <pt x="110" y="0" on="0"/>
        <pt x="110" y="537" on="1"/>
        <pt x="110" y="1050" on="0"/>
        <pt x="583" y="1050" on="1"/>
        <pt x="1014" y="1050" on="0"/>
        <pt x="1014" y="573" on="1"/>
        <pt x="1014" y="539" on="0"/>
        <pt x="1012" y="502" on="1"/>
        <pt x="215" y="502" on="1"/>
        <pt x="215" y="90" on="0"/>
        <pt x="651" y="90" on="1"/>
        <pt x="830" y="90" on="0"/>
        <pt x="969" y="140" on="1"/>
        <pt x="969" y="50" on="1"/>
        <pt x="727" y="-126" on="0"/>
        <pt x="727" y="-228" on="1"/>
        <pt x="727" y="-346" on="0"/>
        <pt x="852" y="-346" on="1"/>
        <pt x="937" y="-346" on="0"/>
        <pt x="989" y="-326" on="1"/>
        <pt x="989" y="-406" on="1"/>
        <pt x="928" y="-426" on="0"/>
        <pt x="840" y="-426" on="1"/>
        <pt x="629" y="-426" on="0"/>
        <pt x="629" y="-253" on="1"/>
        <pt x="629" y="-109" on="0"/>
      </contour>
    </TTGlyph>
    <TTGlyph name="epsilon" xMin="100" yMin="-10" xMax="825" yMax="1060">
      <contour>
        <pt x="825" y="910" on="1"/>
        <pt x="675" y="970" on="0"/>
        <pt x="505" y="970" on="1"/>
        <pt x="215" y="970" on="0"/>
        <pt x="215" y="778" on="1"/>
        <pt x="215" y="590" on="0"/>
        <pt x="540" y="590" on="1"/>
        <pt x="735" y="590" on="1"/>
        <pt x="735" y="500" on="1"/>
        <pt x="537" y="500" on="1"/>
        <pt x="205" y="500" on="0"/>
        <pt x="205" y="290" on="1"/>
        <pt x="205" y="80" on="0"/>
        <pt x="505" y="80" on="1"/>
        <pt x="675" y="80" on="0"/>
        <pt x="825" y="140" on="1"/>
        <pt x="825" y="40" on="1"/>
        <pt x="675" y="-10" on="0"/>
        <pt x="505" y="-10" on="1"/>
        <pt x="100" y="-10" on="0"/>
        <pt x="100" y="290" on="1"/>
        <pt x="100" y="490" on="0"/>
        <pt x="318" y="545" on="1"/>
        <pt x="110" y="604" on="0"/>
        <pt x="110" y="778" on="1"/>
        <pt x="110" y="1060" on="0"/>
        <pt x="515" y="1060" on="1"/>
        <pt x="675" y="1060" on="0"/>
        <pt x="825" y="1010" on="1"/>
      </contour>
    </TTGlyph>
    <TTGlyph name="epsilontonos" xMin="100" yMin="-10" xMax="825" yMax="1430">
      <component glyphName="epsilon" x="0" y="0" flags="0x200"/>
      <component glyphName="tonos" x="255" y="0" flags="0x0"/>
    </TTGlyph>
    <TTGlyph name="equal" xMin="110" yMin="330" xMax="860" yMax="720">
      <contour>
        <pt x="860" y="420" on="1"/>
        <pt x="860" y="330" on="1"/>
        <pt x="110" y="330" on="1"/>
        <pt x="110" y="420" on="1"/>
      </contour>
      <contour>
        <pt x="860" y="720" on="1"/>
        <pt x="860" y="630" on="1"/>
        <pt x="110" y="630" on="1"/>
        <pt x="110" y="720" on="1"/>
      </contour>
    </TTGlyph>
    <TTGlyph name="eta" xMin="160" yMin="-380" xMax="1025" yMax="1050">
      <contour>
        <pt x="160" y="0" on="1"/>
        <pt x="160" y="1050" on="1"/>
        <pt x="235" y="1050" on="1"/>
        <pt x="248" y="916" on="1"/>
        <pt x="449" y="1050" on="0"/>
        <pt x="642" y="1050" on="1"/>
        <pt x="1025" y="1050" on="0"/>
        <pt x="1025" y="719" on="1"/>
        <pt x="1025" y="-380" on="1"/>
        <pt x="920" y="-380" on="1"/>
        <pt x="920" y="722" on="1"/>
        <pt x="920" y="956" on="0"/>
        <pt x="637" y="956" on="1"/>
        <pt x="448" y="956" on="0"/>
        <pt x="265" y="823" on="1"/>
        <pt x="265" y="0" on="1"/>
      </contour>
    </TTGlyph>
    <TTGlyph name="etatonos" xMin="160" yMin="-380" xMax="1025" yMax="1430">
      <component glyphName="eta" x="0" y="0" flags="0x200"/>
      <component glyphName="tonos" x="385" y="0" flags="0x0"/>
    </TTGlyph>
    <TTGlyph name="eth" xMin="100" yMin="-10" xMax="1070" yMax="1430">
      <contour>
        <pt x="965" y="586" on="1"/>
        <pt x="965" y="702" on="0"/>
        <pt x="947" y="840" on="1"/>
        <pt x="827" y="970" on="0"/>
        <pt x="583" y="970" on="1"/>
        <pt x="201" y="970" on="0"/>
        <pt x="201" y="540" on="1"/>
        <pt x="201" y="80" on="0"/>
        <pt x="584" y="80" on="1"/>
        <pt x="965" y="80" on="0"/>
      </contour>
      <contour>
        <pt x="848" y="1278" on="1"/>
        <pt x="1070" y="1072" on="0"/>
        <pt x="1070" y="590" on="1"/>
        <pt x="1070" y="-10" on="0"/>
        <pt x="583" y="-10" on="1"/>
        <pt x="100" y="-10" on="0"/>
        <pt x="100" y="540" on="1"/>
        <pt x="100" y="1050" on="0"/>
        <pt x="574" y="1050" on="1"/>
        <pt x="801" y="1050" on="0"/>
        <pt x="930" y="950" on="1"/>
        <pt x="873" y="1133" on="0"/>
        <pt x="752" y="1230" on="1"/>
        <pt x="510" y="1111" on="1"/>
        <pt x="510" y="1200" on="1"/>
        <pt x="674" y="1281" on="1"/>
        <pt x="557" y="1340" on="0"/>
        <pt x="396" y="1340" on="1"/>
        <pt x="180" y="1340" on="1"/>
        <pt x="180" y="1430" on="1"/>
        <pt x="398" y="1430" on="1"/>
        <pt x="627" y="1430" on="0"/>
        <pt x="778" y="1332" on="1"/>
        <pt x="977" y="1430" on="1"/>
        <pt x="977" y="1341" on="1"/>
      </contour>
    </TTGlyph>
    <TTGlyph name="exclam" xMin="160" yMin="0" xMax="265" yMax="1430">
      <contour>
        <pt x="265" y="1430" on="1"/>
        <pt x="265" y="370" on="1"/>
        <pt x="160" y="370" on="1"/>
        <pt x="160" y="1430" on="1"/>
      </contour>
      <contour>
        <pt x="265" y="105" on="1"/>
        <pt x="265" y="0" on="1"/>
        <pt x="160" y="0" on="1"/>
        <pt x="160" y="105" on="1"/>
      </contour>
    </TTGlyph>
    <TTGlyph name="exclamdown" xMin="160" yMin="-380" xMax="265" yMax="1050">
      <contour>
        <pt x="160" y="-380" on="1"/>
        <pt x="160" y="680" on="1"/>
        <pt x="265" y="680" on="1"/>
        <pt x="265" y="-380" on="1"/>
      </contour>
      <contour>
        <pt x="160" y="945" on="1"/>
        <pt x="160" y="1050" on="1"/>
        <pt x="265" y="1050" on="1"/>
        <pt x="265" y="945" on="1"/>
      </contour>
    </TTGlyph>
    <TTGlyph name="f" xMin="160" yMin="0" xMax="816" yMax="1482">
      <contour>
        <pt x="160" y="0" on="1"/>
        <pt x="160" y="1101" on="1"/>
        <pt x="160" y="1482" on="0"/>
        <pt x="582" y="1482" on="1"/>
        <pt x="711" y="1482" on="0"/>
        <pt x="816" y="1442" on="1"/>
        <pt x="816" y="1352" on="1"/>
        <pt x="717" y="1392" on="0"/>
        <pt x="581" y="1392" on="1"/>
        <pt x="265" y="1392" on="0"/>
        <pt x="265" y="1099" on="1"/>
        <pt x="265" y="1050" on="1"/>
        <pt x="660" y="1050" on="1"/>
        <pt x="660" y="960" on="1"/>
        <pt x="265" y="960" on="1"/>
        <pt x="265" y="0" on="1"/>
      </contour>
    </TTGlyph>
    <TTGlyph name="fb" xMin="160" yMin="0" xMax="1734" yMax="1502">
      <contour>
        <pt x="921" y="896" on="1"/>
        <pt x="921" y="123" on="1"/>
        <pt x="1092" y="94" on="0"/>
        <pt x="1222" y="94" on="1"/>
        <pt x="1632" y="94" on="0"/>
        <pt x="1632" y="553" on="1"/>
        <pt x="1632" y="950" on="0"/>
        <pt x="1255" y="950" on="1"/>
        <pt x="1111" y="950" on="0"/>
      </contour>
      <contour>
        <pt x="816" y="1378" on="1"/>
        <pt x="697" y="1412" on="0"/>
        <pt x="571" y="1412" on="1"/>
        <pt x="265" y="1412" on="0"/>
        <pt x="265" y="1129" on="1"/>
        <pt x="265" y="1050" on="1"/>
        <pt x="580" y="1050" on="1"/>
        <pt x="580" y="960" on="1"/>
        <pt x="265" y="960" on="1"/>
        <pt x="265" y="0" on="1"/>
        <pt x="160" y="0" on="1"/>
        <pt x="160" y="1121" on="1"/>
        <pt x="160" y="1502" on="0"/>
        <pt x="572" y="1502" on="1"/>
        <pt x="741" y="1502" on="0"/>
        <pt x="921" y="1432" on="1"/>
        <pt x="921" y="1000" on="1"/>
        <pt x="1120" y="1050" on="0"/>
        <pt x="1256" y="1050" on="1"/>
        <pt x="1734" y="1050" on="0"/>
        <pt x="1734" y="546" on="1"/>
        <pt x="1734" y="0" on="0"/>
        <pt x="1231" y="0" on="1"/>
        <pt x="1005" y="0" on="0"/>
        <pt x="816" y="43" on="1"/>
      </contour>
    </TTGlyph>
    <TTGlyph name="ff" xMin="160" yMin="0" xMax="1452" yMax="1492">
      <contour>
        <pt x="796" y="960" on="1"/>
        <pt x="265" y="960" on="1"/>
        <pt x="265" y="0" on="1"/>
        <pt x="160" y="0" on="1"/>
        <pt x="160" y="1101" on="1"/>
        <pt x="160" y="1482" on="0"/>
        <pt x="492" y="1482" on="1"/>
        <pt x="591" y="1482" on="0"/>
        <pt x="681" y="1442" on="1"/>
        <pt x="681" y="1352" on="1"/>
        <pt x="597" y="1392" on="0"/>
        <pt x="491" y="1392" on="1"/>
        <pt x="265" y="1392" on="0"/>
        <pt x="265" y="1109" on="1"/>
        <pt x="265" y="1050" on="1"/>
        <pt x="796" y="1050" on="1"/>
        <pt x="796" y="1111" on="1"/>
        <pt x="796" y="1492" on="0"/>
        <pt x="1218" y="1492" on="1"/>
        <pt x="1347" y="1492" on="0"/>
        <pt x="1452" y="1452" on="1"/>
        <pt x="1452" y="1362" on="1"/>
        <pt x="1353" y="1402" on="0"/>
        <pt x="1217" y="1402" on="1"/>
        <pt x="901" y="1402" on="0"/>
        <pt x="901" y="1109" on="1"/>
        <pt x="901" y="1050" on="1"/>
        <pt x="1296" y="1050" on="1"/>
        <pt x="1296" y="960" on="1"/>
        <pt x="901" y="960" on="1"/>
        <pt x="901" y="0" on="1"/>
        <pt x="796" y="0" on="1"/>
      </contour>
    </TTGlyph>
    <TTGlyph name="ffb" xMin="160" yMin="0" xMax="2370" yMax="1502">
      <contour>
        <pt x="1557" y="896" on="1"/>
        <pt x="1557" y="123" on="1"/>
        <pt x="1728" y="94" on="0"/>
        <pt x="1858" y="94" on="1"/>
        <pt x="2268" y="94" on="0"/>
        <pt x="2268" y="553" on="1"/>
        <pt x="2268" y="950" on="0"/>
        <pt x="1891" y="950" on="1"/>
        <pt x="1747" y="950" on="0"/>
      </contour>
      <contour>
        <pt x="796" y="960" on="1"/>
        <pt x="265" y="960" on="1"/>
        <pt x="265" y="0" on="1"/>
        <pt x="160" y="0" on="1"/>
        <pt x="160" y="1111" on="1"/>
        <pt x="160" y="1492" on="0"/>
        <pt x="492" y="1492" on="1"/>
        <pt x="591" y="1492" on="0"/>
        <pt x="681" y="1452" on="1"/>
        <pt x="681" y="1362" on="1"/>
        <pt x="597" y="1402" on="0"/>
        <pt x="491" y="1402" on="1"/>
        <pt x="265" y="1402" on="0"/>
        <pt x="265" y="1119" on="1"/>
        <pt x="265" y="1050" on="1"/>
        <pt x="796" y="1050" on="1"/>
        <pt x="796" y="1121" on="1"/>
        <pt x="796" y="1502" on="0"/>
        <pt x="1208" y="1502" on="1"/>
        <pt x="1377" y="1502" on="0"/>
        <pt x="1557" y="1432" on="1"/>
        <pt x="1557" y="1000" on="1"/>
        <pt x="1756" y="1050" on="0"/>
        <pt x="1892" y="1050" on="1"/>
        <pt x="2370" y="1050" on="0"/>
        <pt x="2370" y="546" on="1"/>
        <pt x="2370" y="0" on="0"/>
        <pt x="1867" y="0" on="1"/>
        <pt x="1641" y="0" on="0"/>
        <pt x="1452" y="43" on="1"/>
        <pt x="1452" y="1378" on="1"/>
        <pt x="1333" y="1412" on="0"/>
        <pt x="1207" y="1412" on="1"/>
        <pt x="901" y="1412" on="0"/>
        <pt x="901" y="1129" on="1"/>
        <pt x="901" y="1050" on="1"/>
        <pt x="1216" y="1050" on="1"/>
        <pt x="1216" y="960" on="1"/>
        <pt x="901" y="960" on="1"/>
        <pt x="901" y="0" on="1"/>
        <pt x="796" y="0" on="1"/>
      </contour>
    </TTGlyph>
    <TTGlyph name="ffh" xMin="160" yMin="0" xMax="2317" yMax="1502">
      <contour>
        <pt x="796" y="960" on="1"/>
        <pt x="265" y="960" on="1"/>
        <pt x="265" y="0" on="1"/>
        <pt x="160" y="0" on="1"/>
        <pt x="160" y="1111" on="1"/>
        <pt x="160" y="1492" on="0"/>
        <pt x="492" y="1492" on="1"/>
        <pt x="591" y="1492" on="0"/>
        <pt x="681" y="1452" on="1"/>
        <pt x="681" y="1362" on="1"/>
        <pt x="597" y="1402" on="0"/>
        <pt x="491" y="1402" on="1"/>
        <pt x="265" y="1402" on="0"/>
        <pt x="265" y="1119" on="1"/>
        <pt x="265" y="1050" on="1"/>
        <pt x="796" y="1050" on="1"/>
        <pt x="796" y="1121" on="1"/>
        <pt x="796" y="1502" on="0"/>
        <pt x="1208" y="1502" on="1"/>
        <pt x="1377" y="1502" on="0"/>
        <pt x="1557" y="1432" on="1"/>
        <pt x="1557" y="936" on="1"/>
        <pt x="1741" y="1050" on="0"/>
        <pt x="1934" y="1050" on="1"/>
        <pt x="2317" y="1050" on="0"/>
        <pt x="2317" y="659" on="1"/>
        <pt x="2317" y="0" on="1"/>
        <pt x="2212" y="0" on="1"/>
        <pt x="2212" y="702" on="1"/>
        <pt x="2212" y="956" on="0"/>
        <pt x="1929" y="956" on="1"/>
        <pt x="1740" y="956" on="0"/>
        <pt x="1557" y="823" on="1"/>
        <pt x="1557" y="0" on="1"/>
        <pt x="1452" y="0" on="1"/>
        <pt x="1452" y="1378" on="1"/>
        <pt x="1333" y="1412" on="0"/>
        <pt x="1207" y="1412" on="1"/>
        <pt x="901" y="1412" on="0"/>
        <pt x="901" y="1129" on="1"/>
        <pt x="901" y="1050" on="1"/>
        <pt x="1216" y="1050" on="1"/>
        <pt x="1216" y="960" on="1"/>
        <pt x="901" y="960" on="1"/>
        <pt x="901" y="0" on="1"/>
        <pt x="796" y="0" on="1"/>
      </contour>
    </TTGlyph>
    <TTGlyph name="ffi" xMin="160" yMin="0" xMax="1538" yMax="1502">
      <contour>
        <pt x="797" y="1050" on="1"/>
        <pt x="797" y="1121" on="1"/>
        <pt x="797" y="1502" on="0"/>
        <pt x="1189" y="1502" on="1"/>
        <pt x="1338" y="1502" on="0"/>
        <pt x="1468" y="1432" on="1"/>
        <pt x="1468" y="1342" on="1"/>
        <pt x="1344" y="1412" on="0"/>
        <pt x="1188" y="1412" on="1"/>
        <pt x="902" y="1412" on="0"/>
        <pt x="902" y="1129" on="1"/>
        <pt x="902" y="1050" on="1"/>
        <pt x="1538" y="1050" on="1"/>
        <pt x="1538" y="0" on="1"/>
        <pt x="1433" y="0" on="1"/>
        <pt x="1433" y="960" on="1"/>
        <pt x="902" y="960" on="1"/>
        <pt x="902" y="0" on="1"/>
        <pt x="796" y="0" on="1"/>
        <pt x="796" y="960" on="1"/>
        <pt x="265" y="960" on="1"/>
        <pt x="265" y="0" on="1"/>
        <pt x="160" y="0" on="1"/>
        <pt x="160" y="1111" on="1"/>
        <pt x="160" y="1492" on="0"/>
        <pt x="492" y="1492" on="1"/>
        <pt x="591" y="1492" on="0"/>
        <pt x="681" y="1452" on="1"/>
        <pt x="681" y="1362" on="1"/>
        <pt x="597" y="1402" on="0"/>
        <pt x="491" y="1402" on="1"/>
        <pt x="265" y="1402" on="0"/>
        <pt x="265" y="1119" on="1"/>
        <pt x="265" y="1050" on="1"/>
      </contour>
    </TTGlyph>
    <TTGlyph name="ffj" xMin="160" yMin="-368" xMax="1528" yMax="1502">
      <contour>
        <pt x="796" y="0" on="1"/>
        <pt x="796" y="960" on="1"/>
        <pt x="265" y="960" on="1"/>
        <pt x="265" y="0" on="1"/>
        <pt x="160" y="0" on="1"/>
        <pt x="160" y="1111" on="1"/>
        <pt x="160" y="1492" on="0"/>
        <pt x="492" y="1492" on="1"/>
        <pt x="591" y="1492" on="0"/>
        <pt x="681" y="1452" on="1"/>
        <pt x="681" y="1362" on="1"/>
        <pt x="597" y="1402" on="0"/>
        <pt x="491" y="1402" on="1"/>
        <pt x="265" y="1402" on="0"/>
        <pt x="265" y="1119" on="1"/>
        <pt x="265" y="1050" on="1"/>
        <pt x="797" y="1050" on="1"/>
        <pt x="797" y="1121" on="1"/>
        <pt x="797" y="1502" on="0"/>
        <pt x="1189" y="1502" on="1"/>
        <pt x="1338" y="1502" on="0"/>
        <pt x="1468" y="1432" on="1"/>
        <pt x="1468" y="1342" on="1"/>
        <pt x="1344" y="1412" on="0"/>
        <pt x="1188" y="1412" on="1"/>
        <pt x="902" y="1412" on="0"/>
        <pt x="902" y="1129" on="1"/>
        <pt x="902" y="1050" on="1"/>
        <pt x="1528" y="1050" on="1"/>
        <pt x="1528" y="80" on="1"/>
        <pt x="1528" y="-238" on="0"/>
        <pt x="1373" y="-368" on="1"/>
        <pt x="1298" y="-303" on="1"/>
        <pt x="1423" y="-218" on="0"/>
        <pt x="1423" y="80" on="1"/>
        <pt x="1423" y="960" on="1"/>
        <pt x="902" y="960" on="1"/>
        <pt x="902" y="0" on="1"/>
      </contour>
    </TTGlyph>
    <TTGlyph name="ffk" xMin="160" yMin="0" xMax="2368" yMax="1502">
      <contour>
        <pt x="796" y="960" on="1"/>
        <pt x="265" y="960" on="1"/>
        <pt x="265" y="0" on="1"/>
        <pt x="160" y="0" on="1"/>
        <pt x="160" y="1111" on="1"/>
        <pt x="160" y="1492" on="0"/>
        <pt x="492" y="1492" on="1"/>
        <pt x="591" y="1492" on="0"/>
        <pt x="681" y="1452" on="1"/>
        <pt x="681" y="1362" on="1"/>
        <pt x="597" y="1402" on="0"/>
        <pt x="491" y="1402" on="1"/>
        <pt x="265" y="1402" on="0"/>
        <pt x="265" y="1119" on="1"/>
        <pt x="265" y="1050" on="1"/>
        <pt x="796" y="1050" on="1"/>
        <pt x="796" y="1121" on="1"/>
        <pt x="796" y="1502" on="0"/>
        <pt x="1208" y="1502" on="1"/>
        <pt x="1377" y="1502" on="0"/>
        <pt x="1557" y="1432" on="1"/>
        <pt x="1557" y="968" on="1"/>
        <pt x="1750" y="1050" on="0"/>
        <pt x="1970" y="1050" on="1"/>
        <pt x="2342" y="1050" on="0"/>
        <pt x="2342" y="747" on="1"/>
        <pt x="2342" y="517" on="0"/>
        <pt x="2012" y="433" on="1"/>
        <pt x="2368" y="0" on="1"/>
        <pt x="2214" y="0" on="1"/>
        <pt x="1880" y="435" on="1"/>
        <pt x="1880" y="498" on="1"/>
        <pt x="2237" y="539" on="0"/>
        <pt x="2237" y="748" on="1"/>
        <pt x="2237" y="960" on="0"/>
        <pt x="1947" y="960" on="1"/>
        <pt x="1754" y="960" on="0"/>
        <pt x="1557" y="866" on="1"/>
        <pt x="1557" y="0" on="1"/>
        <pt x="1452" y="0" on="1"/>
        <pt x="1452" y="1378" on="1"/>
        <pt x="1333" y="1412" on="0"/>
        <pt x="1207" y="1412" on="1"/>
        <pt x="901" y="1412" on="0"/>
        <pt x="901" y="1129" on="1"/>
        <pt x="901" y="1050" on="1"/>
        <pt x="1216" y="1050" on="1"/>
        <pt x="1216" y="960" on="1"/>
        <pt x="901" y="960" on="1"/>
        <pt x="901" y="0" on="1"/>
        <pt x="796" y="0" on="1"/>
      </contour>
    </TTGlyph>
    <TTGlyph name="ffl" xMin="160" yMin="0" xMax="1557" yMax="1502">
      <contour>
        <pt x="796" y="960" on="1"/>
        <pt x="265" y="960" on="1"/>
        <pt x="265" y="0" on="1"/>
        <pt x="160" y="0" on="1"/>
        <pt x="160" y="1111" on="1"/>
        <pt x="160" y="1492" on="0"/>
        <pt x="492" y="1492" on="1"/>
        <pt x="591" y="1492" on="0"/>
        <pt x="681" y="1452" on="1"/>
        <pt x="681" y="1362" on="1"/>
        <pt x="597" y="1402" on="0"/>
        <pt x="491" y="1402" on="1"/>
        <pt x="265" y="1402" on="0"/>
        <pt x="265" y="1119" on="1"/>
        <pt x="265" y="1050" on="1"/>
        <pt x="796" y="1050" on="1"/>
        <pt x="796" y="1121" on="1"/>
        <pt x="796" y="1502" on="0"/>
        <pt x="1208" y="1502" on="1"/>
        <pt x="1377" y="1502" on="0"/>
        <pt x="1557" y="1432" on="1"/>
        <pt x="1557" y="0" on="1"/>
        <pt x="1452" y="0" on="1"/>
        <pt x="1452" y="1378" on="1"/>
        <pt x="1333" y="1412" on="0"/>
        <pt x="1207" y="1412" on="1"/>
        <pt x="901" y="1412" on="0"/>
        <pt x="901" y="1129" on="1"/>
        <pt x="901" y="1050" on="1"/>
        <pt x="1216" y="1050" on="1"/>
        <pt x="1216" y="960" on="1"/>
        <pt x="901" y="960" on="1"/>
        <pt x="901" y="0" on="1"/>
        <pt x="796" y="0" on="1"/>
      </contour>
    </TTGlyph>
    <TTGlyph name="fh" xMin="160" yMin="0" xMax="1681" yMax="1502">
      <contour>
        <pt x="816" y="1378" on="1"/>
        <pt x="697" y="1412" on="0"/>
        <pt x="571" y="1412" on="1"/>
        <pt x="265" y="1412" on="0"/>
        <pt x="265" y="1129" on="1"/>
        <pt x="265" y="1050" on="1"/>
        <pt x="580" y="1050" on="1"/>
        <pt x="580" y="960" on="1"/>
        <pt x="265" y="960" on="1"/>
        <pt x="265" y="0" on="1"/>
        <pt x="160" y="0" on="1"/>
        <pt x="160" y="1121" on="1"/>
        <pt x="160" y="1502" on="0"/>
        <pt x="572" y="1502" on="1"/>
        <pt x="741" y="1502" on="0"/>
        <pt x="921" y="1432" on="1"/>
        <pt x="921" y="936" on="1"/>
        <pt x="1105" y="1050" on="0"/>
        <pt x="1298" y="1050" on="1"/>
        <pt x="1681" y="1050" on="0"/>
        <pt x="1681" y="659" on="1"/>
        <pt x="1681" y="0" on="1"/>
        <pt x="1576" y="0" on="1"/>
        <pt x="1576" y="702" on="1"/>
        <pt x="1576" y="956" on="0"/>
        <pt x="1293" y="956" on="1"/>
        <pt x="1104" y="956" on="0"/>
        <pt x="921" y="823" on="1"/>
        <pt x="921" y="0" on="1"/>
        <pt x="816" y="0" on="1"/>
      </contour>
    </TTGlyph>
    <TTGlyph name="fi" xMin="160" yMin="0" xMax="891" yMax="1502">
      <contour>
        <pt x="891" y="1050" on="1"/>
        <pt x="891" y="0" on="1"/>
        <pt x="786" y="0" on="1"/>
        <pt x="786" y="960" on="1"/>
        <pt x="265" y="960" on="1"/>
        <pt x="265" y="0" on="1"/>
        <pt x="160" y="0" on="1"/>
        <pt x="160" y="1121" on="1"/>
        <pt x="160" y="1502" on="0"/>
        <pt x="552" y="1502" on="1"/>
        <pt x="701" y="1502" on="0"/>
        <pt x="831" y="1432" on="1"/>
        <pt x="831" y="1342" on="1"/>
        <pt x="707" y="1412" on="0"/>
        <pt x="551" y="1412" on="1"/>
        <pt x="265" y="1412" on="0"/>
        <pt x="265" y="1129" on="1"/>
        <pt x="265" y="1050" on="1"/>
      </contour>
    </TTGlyph>
    <TTGlyph name="five" xMin="115" yMin="-10" xMax="1045" yMax="1430">
      <contour>
        <pt x="165" y="1430" on="1"/>
        <pt x="989" y="1430" on="1"/>
        <pt x="989" y="1340" on="1"/>
        <pt x="253" y="1340" on="1"/>
        <pt x="219" y="818" on="1"/>
        <pt x="406" y="840" on="0"/>
        <pt x="535" y="840" on="1"/>
        <pt x="1045" y="840" on="0"/>
        <pt x="1045" y="440" on="1"/>
        <pt x="1045" y="-10" on="0"/>
        <pt x="515" y="-10" on="1"/>
        <pt x="315" y="-10" on="0"/>
        <pt x="115" y="50" on="1"/>
        <pt x="115" y="150" on="1"/>
        <pt x="315" y="80" on="0"/>
        <pt x="525" y="80" on="1"/>
        <pt x="940" y="80" on="0"/>
        <pt x="940" y="440" on="1"/>
        <pt x="940" y="750" on="0"/>
        <pt x="535" y="750" on="1"/>
        <pt x="310" y="750" on="0"/>
        <pt x="115" y="700" on="1"/>
      </contour>
    </TTGlyph>
    <TTGlyph name="five.osf" xMin="155" yMin="-290" xMax="1045" yMax="1050">
      <contour>
        <pt x="205" y="1050" on="1"/>
        <pt x="979" y="1050" on="1"/>
        <pt x="979" y="960" on="1"/>
        <pt x="292" y="960" on="1"/>
        <pt x="259" y="458" on="1"/>
        <pt x="446" y="490" on="0"/>
        <pt x="545" y="490" on="1"/>
        <pt x="1045" y="490" on="0"/>
        <pt x="1045" y="130" on="1"/>
        <pt x="1045" y="-290" on="0"/>
        <pt x="485" y="-290" on="1"/>
        <pt x="305" y="-290" on="0"/>
        <pt x="155" y="-230" on="1"/>
        <pt x="155" y="-130" on="1"/>
        <pt x="305" y="-200" on="0"/>
        <pt x="495" y="-200" on="1"/>
        <pt x="940" y="-200" on="0"/>
        <pt x="940" y="130" on="1"/>
        <pt x="940" y="400" on="0"/>
        <pt x="545" y="400" on="1"/>
        <pt x="350" y="400" on="0"/>
        <pt x="155" y="350" on="1"/>
      </contour>
    </TTGlyph>
    <TTGlyph name="fj" xMin="160" yMin="-368" xMax="891" yMax="1502">
      <contour>
        <pt x="786" y="960" on="1"/>
        <pt x="265" y="960" on="1"/>
        <pt x="265" y="0" on="1"/>
        <pt x="160" y="0" on="1"/>
        <pt x="160" y="1121" on="1"/>
        <pt x="160" y="1502" on="0"/>
        <pt x="552" y="1502" on="1"/>
        <pt x="701" y="1502" on="0"/>
        <pt x="831" y="1432" on="1"/>
        <pt x="831" y="1342" on="1"/>
        <pt x="707" y="1412" on="0"/>
        <pt x="551" y="1412" on="1"/>
        <pt x="265" y="1412" on="0"/>
        <pt x="265" y="1129" on="1"/>
        <pt x="265" y="1050" on="1"/>
        <pt x="891" y="1050" on="1"/>
        <pt x="891" y="80" on="1"/>
        <pt x="891" y="-238" on="0"/>
        <pt x="736" y="-368" on="1"/>
        <pt x="661" y="-303" on="1"/>
        <pt x="786" y="-218" on="0"/>
        <pt x="786" y="80" on="1"/>
      </contour>
    </TTGlyph>
    <TTGlyph name="fk" xMin="160" yMin="0" xMax="1732" yMax="1502">
      <contour>
        <pt x="816" y="1378" on="1"/>
        <pt x="697" y="1412" on="0"/>
        <pt x="571" y="1412" on="1"/>
        <pt x="265" y="1412" on="0"/>
        <pt x="265" y="1129" on="1"/>
        <pt x="265" y="1050" on="1"/>
        <pt x="580" y="1050" on="1"/>
        <pt x="580" y="960" on="1"/>
        <pt x="265" y="960" on="1"/>
        <pt x="265" y="0" on="1"/>
        <pt x="160" y="0" on="1"/>
        <pt x="160" y="1121" on="1"/>
        <pt x="160" y="1502" on="0"/>
        <pt x="572" y="1502" on="1"/>
        <pt x="741" y="1502" on="0"/>
        <pt x="921" y="1432" on="1"/>
        <pt x="921" y="968" on="1"/>
        <pt x="1114" y="1050" on="0"/>
        <pt x="1334" y="1050" on="1"/>
        <pt x="1706" y="1050" on="0"/>
        <pt x="1706" y="747" on="1"/>
        <pt x="1706" y="517" on="0"/>
        <pt x="1376" y="433" on="1"/>
        <pt x="1732" y="0" on="1"/>
        <pt x="1578" y="0" on="1"/>
        <pt x="1244" y="435" on="1"/>
        <pt x="1244" y="498" on="1"/>
        <pt x="1601" y="539" on="0"/>
        <pt x="1601" y="748" on="1"/>
        <pt x="1601" y="960" on="0"/>
        <pt x="1311" y="960" on="1"/>
        <pt x="1118" y="960" on="0"/>
        <pt x="921" y="866" on="1"/>
        <pt x="921" y="0" on="1"/>
        <pt x="816" y="0" on="1"/>
      </contour>
    </TTGlyph>
    <TTGlyph name="fl" xMin="160" yMin="0" xMax="921" yMax="1502">
      <contour>
        <pt x="816" y="1378" on="1"/>
        <pt x="697" y="1412" on="0"/>
        <pt x="571" y="1412" on="1"/>
        <pt x="265" y="1412" on="0"/>
        <pt x="265" y="1129" on="1"/>
        <pt x="265" y="1050" on="1"/>
        <pt x="580" y="1050" on="1"/>
        <pt x="580" y="960" on="1"/>
        <pt x="265" y="960" on="1"/>
        <pt x="265" y="0" on="1"/>
        <pt x="160" y="0" on="1"/>
        <pt x="160" y="1121" on="1"/>
        <pt x="160" y="1502" on="0"/>
        <pt x="572" y="1502" on="1"/>
        <pt x="741" y="1502" on="0"/>
        <pt x="921" y="1432" on="1"/>
        <pt x="921" y="0" on="1"/>
        <pt x="816" y="0" on="1"/>
      </contour>
    </TTGlyph>
    <TTGlyph name="florin" xMin="60" yMin="-384" xMax="927" yMax="1434">
      <contour>
        <pt x="927" y="1340" on="1"/>
        <pt x="903" y="1345" on="0"/>
        <pt x="881" y="1345" on="1"/>
        <pt x="708" y="1345" on="0"/>
        <pt x="655" y="1070" on="1"/>
        <pt x="621" y="920" on="1"/>
        <pt x="831" y="920" on="1"/>
        <pt x="811" y="830" on="1"/>
        <pt x="601" y="830" on="1"/>
        <pt x="437" y="-20" on="1"/>
        <pt x="364" y="-384" on="0"/>
        <pt x="112" y="-384" on="1"/>
        <pt x="87" y="-384" on="0"/>
        <pt x="60" y="-380" on="1"/>
        <pt x="60" y="-290" on="1"/>
        <pt x="84" y="-295" on="0"/>
        <pt x="106" y="-295" on="1"/>
        <pt x="279" y="-295" on="0"/>
        <pt x="332" y="-20" on="1"/>
        <pt x="496" y="830" on="1"/>
        <pt x="316" y="830" on="1"/>
        <pt x="336" y="920" on="1"/>
        <pt x="516" y="920" on="1"/>
        <pt x="550" y="1070" on="1"/>
        <pt x="623" y="1434" on="0"/>
        <pt x="875" y="1434" on="1"/>
        <pt x="900" y="1434" on="0"/>
        <pt x="927" y="1430" on="1"/>
      </contour>
    </TTGlyph>
    <TTGlyph name="four" xMin="60" yMin="0" xMax="1145" yMax="1430">
      <contour>
        <pt x="987" y="0" on="1"/>
        <pt x="882" y="0" on="1"/>
        <pt x="882" y="340" on="1"/>
        <pt x="60" y="340" on="1"/>
        <pt x="60" y="430" on="1"/>
        <pt x="685" y="1430" on="1"/>
        <pt x="799" y="1430" on="1"/>
        <pt x="173" y="430" on="1"/>
        <pt x="882" y="430" on="1"/>
        <pt x="882" y="998" on="1"/>
        <pt x="987" y="998" on="1"/>
        <pt x="987" y="430" on="1"/>
        <pt x="1145" y="394" on="1"/>
        <pt x="1145" y="340" on="1"/>
        <pt x="987" y="340" on="1"/>
      </contour>
    </TTGlyph>
    <TTGlyph name="four.osf" xMin="60" yMin="-280" xMax="1105" yMax="1049">
      <contour>
        <pt x="917" y="-280" on="1"/>
        <pt x="812" y="-280" on="1"/>
        <pt x="812" y="29" on="1"/>
        <pt x="60" y="29" on="1"/>
        <pt x="60" y="119" on="1"/>
        <pt x="655" y="1049" on="1"/>
        <pt x="769" y="1049" on="1"/>
        <pt x="173" y="119" on="1"/>
        <pt x="812" y="119" on="1"/>
        <pt x="812" y="657" on="1"/>
        <pt x="917" y="657" on="1"/>
        <pt x="917" y="119" on="1"/>
        <pt x="1105" y="83" on="1"/>
        <pt x="1105" y="29" on="1"/>
        <pt x="917" y="29" on="1"/>
      </contour>
    </TTGlyph>
    <TTGlyph name="fraction" xMin="110" yMin="0" xMax="1180" yMax="1430">
      <contour>
        <pt x="235" y="0" on="1"/>
        <pt x="110" y="0" on="1"/>
        <pt x="1055" y="1430" on="1"/>
        <pt x="1180" y="1430" on="1"/>
      </contour>
    </TTGlyph>
    <TTGlyph name="g" xMin="110" yMin="-380" xMax="1027" yMax="1050">
      <contour>
        <pt x="922" y="932" on="1"/>
        <pt x="777" y="956" on="0"/>
        <pt x="637" y="956" on="1"/>
        <pt x="212" y="956" on="0"/>
        <pt x="212" y="533" on="1"/>
        <pt x="212" y="100" on="0"/>
        <pt x="609" y="100" on="1"/>
        <pt x="753" y="100" on="0"/>
        <pt x="922" y="154" on="1"/>
      </contour>
      <contour>
        <pt x="1027" y="0" on="1"/>
        <pt x="1027" y="-380" on="0"/>
        <pt x="564" y="-380" on="1"/>
        <pt x="370" y="-380" on="0"/>
        <pt x="220" y="-330" on="1"/>
        <pt x="220" y="-240" on="1"/>
        <pt x="373" y="-290" on="0"/>
        <pt x="566" y="-290" on="1"/>
        <pt x="922" y="-290" on="0"/>
        <pt x="922" y="0" on="1"/>
        <pt x="922" y="50" on="1"/>
        <pt x="744" y="0" on="0"/>
        <pt x="608" y="0" on="1"/>
        <pt x="110" y="0" on="0"/>
        <pt x="110" y="531" on="1"/>
        <pt x="110" y="1050" on="0"/>
        <pt x="645" y="1050" on="1"/>
        <pt x="848" y="1050" on="0"/>
        <pt x="1027" y="1007" on="1"/>
      </contour>
    </TTGlyph>
    <TTGlyph name="g.alt" xMin="90" yMin="-400" xMax="1085" yMax="1050">
      <contour>
        <pt x="560" y="1050" on="1"/>
        <pt x="706" y="1050" on="0"/>
        <pt x="803" y="1000" on="1"/>
        <pt x="929" y="1050" on="1"/>
        <pt x="1085" y="1050" on="1"/>
        <pt x="1085" y="960" on="1"/>
        <pt x="870" y="960" on="1"/>
        <pt x="984" y="871" on="0"/>
        <pt x="985" y="707" on="1"/>
        <pt x="985" y="355" on="0"/>
        <pt x="547" y="355" on="1"/>
        <pt x="454" y="355" on="0"/>
        <pt x="360" y="385" on="1"/>
        <pt x="225" y="292" on="0"/>
        <pt x="225" y="201" on="1"/>
        <pt x="225" y="120" on="0"/>
        <pt x="354" y="120" on="1"/>
        <pt x="748" y="120" on="1"/>
        <pt x="1045" y="120" on="0"/>
        <pt x="1045" y="-105" on="1"/>
        <pt x="1045" y="-400" on="0"/>
        <pt x="553" y="-400" on="1"/>
        <pt x="301" y="-400" on="0"/>
        <pt x="90" y="-310" on="1"/>
        <pt x="90" y="-200" on="1"/>
        <pt x="304" y="-310" on="0"/>
        <pt x="557" y="-310" on="1"/>
        <pt x="940" y="-310" on="0"/>
        <pt x="940" y="-105" on="1"/>
        <pt x="940" y="30" on="0"/>
        <pt x="751" y="30" on="1"/>
        <pt x="348" y="30" on="1"/>
        <pt x="125" y="30" on="0"/>
        <pt x="125" y="204" on="1"/>
        <pt x="125" y="308" on="0"/>
        <pt x="272" y="420" on="1"/>
        <pt x="120" y="520" on="0"/>
        <pt x="120" y="698" on="1"/>
        <pt x="120" y="1050" on="0"/>
      </contour>
      <contour>
        <pt x="225" y="450" on="0"/>
        <pt x="555" y="450" on="1"/>
        <pt x="880" y="450" on="0"/>
        <pt x="880" y="705" on="1"/>
        <pt x="880" y="960" on="0"/>
        <pt x="555" y="960" on="1"/>
        <pt x="225" y="960" on="0"/>
        <pt x="225" y="705" on="1"/>
      </contour>
    </TTGlyph>
    <TTGlyph name="gamma" xMin="35" yMin="-380" xMax="1035" yMax="1050">
      <contour>
        <pt x="35" y="1050" on="1"/>
        <pt x="150" y="1050" on="1"/>
        <pt x="532" y="123" on="1"/>
        <pt x="920" y="1050" on="1"/>
        <pt x="1035" y="1050" on="1"/>
        <pt x="579" y="0" on="1"/>
        <pt x="579" y="-380" on="1"/>
        <pt x="474" y="-380" on="1"/>
        <pt x="474" y="0" on="1"/>
      </contour>
    </TTGlyph>
    <TTGlyph name="gbreve" xMin="110" yMin="-380" xMax="1027" yMax="1430">
      <component glyphName="g" x="0" y="0" flags="0x200"/>
      <component glyphName="breve" x="244" y="0" flags="0x0"/>
    </TTGlyph>
    <TTGlyph name="gbreve.alt" xMin="90" yMin="-400" xMax="1085" yMax="1430">
      <contour>
        <pt x="560" y="1050" on="1"/>
        <pt x="706" y="1050" on="0"/>
        <pt x="803" y="1000" on="1"/>
        <pt x="929" y="1050" on="1"/>
        <pt x="1085" y="1050" on="1"/>
        <pt x="1085" y="960" on="1"/>
        <pt x="870" y="960" on="1"/>
        <pt x="984" y="871" on="0"/>
        <pt x="985" y="707" on="1"/>
        <pt x="985" y="355" on="0"/>
        <pt x="547" y="355" on="1"/>
        <pt x="454" y="355" on="0"/>
        <pt x="360" y="385" on="1"/>
        <pt x="225" y="292" on="0"/>
        <pt x="225" y="201" on="1"/>
        <pt x="225" y="120" on="0"/>
        <pt x="354" y="120" on="1"/>
        <pt x="748" y="120" on="1"/>
        <pt x="1045" y="120" on="0"/>
        <pt x="1045" y="-105" on="1"/>
        <pt x="1045" y="-400" on="0"/>
        <pt x="553" y="-400" on="1"/>
        <pt x="301" y="-400" on="0"/>
        <pt x="90" y="-310" on="1"/>
        <pt x="90" y="-200" on="1"/>
        <pt x="304" y="-310" on="0"/>
        <pt x="557" y="-310" on="1"/>
        <pt x="940" y="-310" on="0"/>
        <pt x="940" y="-105" on="1"/>
        <pt x="940" y="30" on="0"/>
        <pt x="751" y="30" on="1"/>
        <pt x="348" y="30" on="1"/>
        <pt x="125" y="30" on="0"/>
        <pt x="125" y="204" on="1"/>
        <pt x="125" y="308" on="0"/>
        <pt x="272" y="420" on="1"/>
        <pt x="120" y="520" on="0"/>
        <pt x="120" y="698" on="1"/>
        <pt x="120" y="1050" on="0"/>
      </contour>
      <contour>
        <pt x="225" y="450" on="0"/>
        <pt x="555" y="450" on="1"/>
        <pt x="880" y="450" on="0"/>
        <pt x="880" y="705" on="1"/>
        <pt x="880" y="960" on="0"/>
        <pt x="555" y="960" on="1"/>
        <pt x="225" y="960" on="0"/>
        <pt x="225" y="705" on="1"/>
      </contour>
      <contour>
        <pt x="304" y="1430" on="1"/>
        <pt x="389" y="1430" on="1"/>
        <pt x="389" y="1250" on="0"/>
        <pt x="559" y="1250" on="1"/>
        <pt x="729" y="1250" on="0"/>
        <pt x="729" y="1430" on="1"/>
        <pt x="814" y="1430" on="1"/>
        <pt x="814" y="1170" on="0"/>
        <pt x="559" y="1170" on="1"/>
        <pt x="304" y="1170" on="0"/>
      </contour>
    </TTGlyph>
    <TTGlyph name="gcircumflex" xMin="110" yMin="-380" xMax="1027" yMax="1430">
      <component glyphName="g" x="0" y="0" flags="0x200"/>
      <component glyphName="circumflex" x="269" y="0" flags="0x0"/>
    </TTGlyph>
    <TTGlyph name="gcircumflex.alt" xMin="90" yMin="-400" xMax="1085" yMax="1430">
      <contour>
        <pt x="560" y="1050" on="1"/>
        <pt x="706" y="1050" on="0"/>
        <pt x="803" y="1000" on="1"/>
        <pt x="929" y="1050" on="1"/>
        <pt x="1085" y="1050" on="1"/>
        <pt x="1085" y="960" on="1"/>
        <pt x="870" y="960" on="1"/>
        <pt x="984" y="871" on="0"/>
        <pt x="985" y="707" on="1"/>
        <pt x="985" y="355" on="0"/>
        <pt x="547" y="355" on="1"/>
        <pt x="454" y="355" on="0"/>
        <pt x="360" y="385" on="1"/>
        <pt x="225" y="292" on="0"/>
        <pt x="225" y="201" on="1"/>
        <pt x="225" y="120" on="0"/>
        <pt x="354" y="120" on="1"/>
        <pt x="748" y="120" on="1"/>
        <pt x="1045" y="120" on="0"/>
        <pt x="1045" y="-105" on="1"/>
        <pt x="1045" y="-400" on="0"/>
        <pt x="553" y="-400" on="1"/>
        <pt x="301" y="-400" on="0"/>
        <pt x="90" y="-310" on="1"/>
        <pt x="90" y="-200" on="1"/>
        <pt x="304" y="-310" on="0"/>
        <pt x="557" y="-310" on="1"/>
        <pt x="940" y="-310" on="0"/>
        <pt x="940" y="-105" on="1"/>
        <pt x="940" y="30" on="0"/>
        <pt x="751" y="30" on="1"/>
        <pt x="348" y="30" on="1"/>
        <pt x="125" y="30" on="0"/>
        <pt x="125" y="204" on="1"/>
        <pt x="125" y="308" on="0"/>
        <pt x="272" y="420" on="1"/>
        <pt x="120" y="520" on="0"/>
        <pt x="120" y="698" on="1"/>
        <pt x="120" y="1050" on="0"/>
      </contour>
      <contour>
        <pt x="225" y="450" on="0"/>
        <pt x="555" y="450" on="1"/>
        <pt x="880" y="450" on="0"/>
        <pt x="880" y="705" on="1"/>
        <pt x="880" y="960" on="0"/>
        <pt x="555" y="960" on="1"/>
        <pt x="225" y="960" on="0"/>
        <pt x="225" y="705" on="1"/>
      </contour>
      <contour>
        <pt x="512" y="1430" on="1"/>
        <pt x="622" y="1430" on="1"/>
        <pt x="817" y="1170" on="1"/>
        <pt x="717" y="1170" on="1"/>
        <pt x="565" y="1364" on="1"/>
        <pt x="417" y="1170" on="1"/>
        <pt x="317" y="1170" on="1"/>
      </contour>
    </TTGlyph>
</ttFont>
